<?xml version="1.0" encoding="UTF-8"?>
<svg id="Layer_2" xmlns="http://www.w3.org/2000/svg" version="1.1" viewBox="0 0 447.6 557.7">
  <!-- Generator: Adobe Illustrator 29.2.1, SVG Export Plug-In . SVG Version: 2.1.0 Build 116)  -->
  <g id="Layer_2-2">
    <g id="zYxrlZ.tif">
      <g>
        <path d="M246.7,269.4c0-.2.4-.4.4-.6,0-2-.2-3.6,0-5.5,0-.5,1.8-3.2,1.9-3.4,0-.4-.3-1-.3-1.5,0-.3,1.4-4.4,1.6-4.9.6-1.4,1.8-3,3.5-3,0,.9.6,1.9.5,2.7,0,.2-.6,1.4-.7,1.6-.3,2,.5,4.3.3,6.5,0,.4-1.2,1-.6,2.1,1.1,2-.3,2-.3,3.6,0,1.1,1.8,10.2,2.2,11.2,0,.2,1.2,1.1,1.3,1.3.5,1,.1,1.9,1.7,2.4,1.1.1,1.4-2.5,1.1-3.5-.8-2-.2-5.5.4-8.2.3-1.2,1-4.2,1.5-5.3.2-.6,2.1-2.6,2.6-2.3,0,.7.5,1.6.4,2.2,0,.2-1.1,1.7-1.1,2.2,0,.7.5,1.7.5,2.4s-1.4,3-1.4,3.3c0,1.2.5,3.6.5,5,0,1.7.3,2.7.3,4,0,.8.7,4.5,1,5.4,0,.2.5.2.6.4.5,1,.1,1.8,1.7,2.4.2-.5,1.3-1.7,1.4-2,.1-1.5.3-1.2.6-2.1.5-1.9.5-4.5,1.3-6.3.6-1.4,1.8-3,3.5-3-.7,1.2.2,2.2.1,3.2s-1.6,3.5-1.7,4.4c0,1.6,1.3,2.5,1.2,3.8,0,.2-.4.4-.4.6,0,1.2,1.1,6.8,1.5,7.8,0,.2.4.2.6.4.4.6.5,1.4,1.7.9-.2-.8.2-1.8.5-2.4,1-3.3,1.5-7.7,4-10.4.3-.3,1.5-1.3,1.8-1.1.3.8-.4,1.7-.5,2.4-.3,1.6,0,3.1-.1,4.6s-1.5,2.4-.6,4.7c0,.2.5.2.6.4,0,.1-.6.9-.1,2,0,.2.5.2.6.4.5,1.4.4,3.8,1,4.9,0,.1,1.8,1.5,2.1,1.9.5,0,1.3-1.1,1.5-1.5.4-1,.9-2.8.8-3.7l2-2.7c.2.9.4,1.6.2,2.5-.3,2.1-.5,5.5-.3,7.4s.9,3.8,1.1,5.6c.5.4,1.5-1.1,1.7-1.6.6-1.7,1-4.2,3.1-4.9,0-1.2.8-2.7,1.5-3.8,1.1-.6,1.7,1.5,1.7,2.4,0,1.2-.5,3.4-.6,4.7-.3,2.8.5,5.1.4,7,0,.3-.8.9-.8,1.2-.3,4.4,2.1,10.6,2.5,15.2.3,3.7,1.7,7.4,3.2,11,.8,1.9.9,3.8,1.5,5.2,0,.2,1.1,1,1.3,1.3.7,1.2,1.1,3,1.8,4.2.9,1.4,2.7,2.6,3.8,3.8.6.7,2.7,1,3.6,1.6.6,0,1.4-.4,1.9-.4.2,0,.5.6,1.1.3,2.5-1.2,3.2-.3,5.3-1,.2,0,.2-.5.4-.6.4-.2,1.1,0,1.5-.3.2-.1.3-.8,1.1-.7l.2-1.3c-1.4-1.4-3.3-2.9-5-3.8s-1.9-.4-3.7-2c-.5-.4-1.5-1.1-1.8-1.7-.2-.4,0-1.1-.3-1.5-.1-.2-1.2-1.1-1.3-1.3-.8-1.7-.7-4.8-1.3-6.8-.6-1.7-2.1-3.3-2.1-5.6,0-.1.7-.7.2-1.5-.5-1-1.2-1.8-1.2-3.3,0-.2.4-.4.4-.6.2-1.2.4-2.5,1.1-3.5.9.2,1.1-.7,1.4-.8.4-.2,1-.1,1.5-.3.2,0,.2-.5.4-.6,1.3-.5,3.1-.4,4.4-.9.2,0,.2-.5.4-.6.2-.2.7,0,.7-.1,0-.1-.2-.5-.1-.7.4-1.1,2-2,1.4-3.3-.1-.2-1.2-1.1-1.3-1.3-.5-1.1-.5-3.1-.9-4.4-1.5-5.3-3-11.2-6.1-15.5-1.9-2.6-2.2-5.2-3.6-7.9,0-.1-1.6-1.1-1.8-1.7-.3-.8-.2-2.2-.6-2.9-.1-.3-1.4-.8-1.7-1.2-1.6-1.8-1.2-6.5-3.8-7.6-1.9-.9-6-4.2-7.1-6.4-.3-.6-.3-1.6-1-2.3-.7-.8-3.9-1-4.5-2.1-.2-.4,0-1.1-.3-1.5-.2-.3-1.6-.8-1.7-1.2-.6-1.1-.8-1.7-2.2-2.3-4.6-1.9-9.1-4.1-13.5-6.9-1.6.3-4.9-2.3-6-2.4-.7,0-2.9.8-3.2.6l.4-2.1,3.1.4c.6-1.8,2.5-1.1,3.7-1.7.3-.1,1.1-1.5.9-1.9-.1-.2-.9-.5-1.2-.8-.4-.5-1-1.7-1.5-2.2-2.2-2.5-7.6-3.6-9-7.1l-1,.2c-1.7-2.2-4.1-4-6.2-6.1-1.6-1.7-3-2.5-4-4.8-.7-1.5-1.5-3-2.4-4.6-.1-.2-1.2-1.1-1.3-1.3-.6-1.3-.4-2.4.6-3.4h.5c.5.4,1.5.3,2.1.5,2.7.9,3.3,2.2,5,3.8.4.3,1.4,1.1,1.9.9.9-.5.3-1.8.3-2.3,0-.3.6-1.8.6-2.1,0-.5-.4-1.5-.3-1.7,0,0,1-.3,1.4-.8-.1,1,1.1,1.1,1.3,1.5.7,1.4.5,4.3,1.1,5.8,0,.2,1.2,1.1,1.3,1.3.6,1.4.9,3.5,1.9,4.7.2.2,2.5,1.7,2.6,1.8,1.4.1.8-1.9.8-2.4,0-.2.4-.4.4-.6,0-1.6-.7-3.6-1.4-4.8l1.7-3.1c1,.5,1.2,1.6,1.7,2.4-.9,1.2,1,2.1-.3,3.6l.2,1c1.3,1.2,2,3.5,2.5,5.1.3.9.2,2.2.6,2.9.2.5,2.3,1.2,3,2.4.2.4.9-.1,1.4.5.4-.2,0-1.4,0-1.8,0-.1-1-1-1.3-1.3l-.2-1c.5-1.2,1.2-2.6,1.3-3.8,0-.4-.3-1-.3-1.5,0-.3.7-.8.8-1.2,0-.3-.2-.6-.1-.7s.5,0,.7-.1c.8-.7,1.1-2.7,2.5-2.5,1.2.1,2,2.3,1.9,3.4,0,.3-.8.9-.8,1.2,0,1.1,0,5.7.3,6.5,0,.2.5.2.6.4.3,1,.3,2.2.6,3.2.5,0,1.3-.6,1.3-1s0-2.1,0-2.3c0-.1.5,0,.7-.1.3-.2.5-.9.8-1.2.9-.8,1.9-.7,2.8-1.1.1,0,1.1-1.4,1.8,0,.4.8,0,1.7,0,2.5-.1,1.6-1.3,5.4-.7,6.7.2.5.9.5.4,1.9,1,.5.7,1.9,1.1,2.8,0,.2.8.3.7,1.1-1.5,0-2,.5-2.7,1.8.5.4,1.3.7,1.7,1.2,1,1,1.7,1,2.4,2,1.6,2.2,4.3,3.9,5.1,5.5.2.4,5.3,4.7,6.1,5.4,2.2,1.8,2.5,1.5,3.9,4.3.2.5,2,.8,1.9,1.9l.9-.4c-.1-1.6-.9-3.3-1-4.9,0-.2.4-.4.4-.6,0-.5-.3-1-.3-1.5,0-.3.9-1.3,1.2-1.7,0-.1-.1-.4-.1-.5.4-.7,1.9-3,2.3-3.5.6-.5,1.2-.5,1.9-.6.5,1.4.2,2.8-.7,3.9l.2,1,1.3,1.3c-.9,3,0,6.5,1.3,9.3.3.8.7,1.7,1,2.3.1.2,1,.5,1.2.8.6,1.1-1,2.4-.8,3.7.8.6,1.8,1.4,2.4,2,1.9,2,3.5,4.1,5.2,6,1.3,1.5,1.5.8,1.7.9,0,0,.2.6.1.7,0,.4-.7.7-.2,1.5.1.3,2,1.6,2.4,2,2.8,3.2,5.3,8.4,8.3,11.5,1.5,1.5,1,.5,2,2.6.8,1.6,2.4,2.2,3.2,3.4.8,1.1.5.1,1.3,1.3,1.2,1.7,4.1,3.4,4.3,3.7,2.8,5.5,7.7,8.2,10.7,13.3,2.3-.2,3.5,2.5,4.8,3.9.8.8,1.7.3,2.9,2,1.1,1.5,3.4,5.1,5.4,5.8.5.2.9-.7,1,1.3,1.6,0,4,2.5,5.3,3.8.9.9,1.9,2.6,2.7,3.5s1.9.7,2.4-.5c-.3-.3-1.1-1-1.3-1.3-.5-.8-.7-2.1-1.1-2.8,0-.1-1.6-1.1-1.8-1.7-.4-.9-1.9-8.7-1.9-9.7,0-.2.7-1.5.7-1.6,0-1.1-.8-2.8-.8-3.9,0-.4.9-1.6.5-2.4,1.8-.7,2.5.6,2.5,2.3,0,.2-.7,1.5-.7,1.6,0,.6,0,2.6,0,3,.2,1.7.8,3.6,1,5.4l2.2,2.3c.6-.8.9-1.9,1.9-1.9,0-1.4.2-4,2.2-4,0,.7.4,1.5.4,2.2,0,2.2.8,5.4.5,7.5-.1.8-1,1.7-.5,2.6.2.3,1.6.9,1.7,1.2.4.9,0,2.4,1.9,1.9-.5-.9.6-1.5.6-1.9,0-.8-.1-2.1,0-3,0-2.1,1.3-1.4,2.4-.5l-.6,2.1c1.8.7,0,3.3.3,4,.4.4,2.3,1.8,2.4,2,.2.3,0,.8.2,1,.6.8,1.6,1.3,1.5,2.5h2c-.4-.6.2-1,.2-1.2,0-.6-.4-1.4-.4-1.9,0-.4.9-1.6.5-2.4,1.7-.6,2.1,2,2.2,3.4,0,1-.6,1.8,1.1,2.8-1.7,1.5,0,2.9.2,3.5,0,.2-.4.4-.4.6-.1,1.3,1.1,1.3,1.4,1.8.9,1.6-.6,1.3-.7,1.4,0,.1.2.5.1.7,0,.2-.4.4-.4.6,0,.6.4,2.3.6,2.9,0,.2.5.2.6.4.1.3,0,.7.2,1,.2.4,2.3,1.4,2.9,2,2.2,2.1,5.2,3.2,7.6,5.1,3.8,3,8.3,5.3,12.3,7.4,2.1,1.1,4.3,2.3,5.5,3.7,1,1.2,2.5,1.1,3.6,1.6,1.7.7,2.4,2,4.8,2.3.6,0,1.2.2,1.8,0,.8-.4.2-1.9.8-2.4l-.6-.4,1.1-2.2c0-2-1.2-1.7-2-2.6-1.1-1.2-1.2-2.9-1.8-4.2-.1-.2-2.8-2.3-3.1-2.9-1.4-2.7-5.6-5.3-7.5-7.6-.5-.6-1.6-1.6-2.5-2.5s-2.6-1.1-2.8-1.2c-.1,0,0-.9-.2-1.2-.7-1.3-4.8-4.2-4.9-4.6-1.7-3.3-6.3-6.4-8.9-9.4-.2-.3-1.2-1.1-1.3-1.3-.2-.6-.3-2.5-.5-2.7-.1,0-.5.2-.7.1-1-.3-2.2-2.2-2.7-1-.8-.5-3.2-.7-3.6-1.6-.3-.6-.2-1.8-.5-2.4-.2-.5-1.8-1.5-1.8-1.7-1.1-2.2-2.4-3.3-4.1-5.3s-3.8-3.5-5.1-5.5c-.8-1.1-.5-.1-1.3-1.3-1.4-2-3.3-3.8-5.1-5.5s-3.7-3.3-5-5.1c-.5-.6-.8-1.7-1.6-2-.2,0-.6.2-.7.1-.2-.1-.2-2.1-.5-2.7-.1-.3-2-1.6-2.4-2-1.8-2.1-3.8-5.2-5-7.6-.1-.2-2.8-2-3-2.4-.2-.5-.1-1.4-.4-1.9-.1-.2-1-.5-1.2-.8-1.8-3.5-4.7-7.2-7.2-10.7-2.3-3.2-4.8-7.1-7.5-9.6-1.6-1.5-5.6-7.6-6.9-8-.3,0-.6.2-.7.1-.1,0,0-.9-.2-1.2-.2-.5-6.6-5.1-7.8-6-2-1.6-4.7-4.7-6.9-5.5-2.5-.8-3.1-4.6-5.6-5.5-1.3-.4-.6-.4-1.5-1.5-2.6-3.1-7.4-4.6-8.7-8.1l-1,.2c-.7-2.5-4.8-4-6.1-5.6-.9-1.1-3.4-2-4.8-3.6-1.1-1.3-4.2-1.6-5.7-3.4-2.5-2.9-8.2-4.6-11.6-7.8-.4-.4-6.8-4.8-7.3-4.9-1.8-.1-2.5.1-3.5-1.1-.9-1.1-3-.1-2.9-1.7-2.6-.2-6-1.3-8.2.6-.4-.5-.9-.2-1.1-.3-1-.4-2-2-2.4-2-.8,0-2.1.6-2.9.6-1.2,0-4.6-1.5-5.3-1.5-2,0-4.6.3-6.5.3-.4,0-2.3-1-2.7-1-.6,0-1.4.4-1.9.4-.4,0-2.2-.9-2.7-1-.4,0-1,.3-1.5.3-.5,0-3.2-1.8-3.4-1.9-2.9-.2-3-1.2-5.8-1.4-.6,0-3.7-1.7-3.9-1.8-.8,0-2.1.6-2.9.6-.3,0-.9-.8-1.2-.8-1.3-.1-2.8,0-4.1-.2-.4,0-1.9-1.5-2.3-1.6-.7,0-1.7.5-2.4.5-.9,0-3.2-.7-4.2-.7-2.4.1-3.3,1.6-5.2-1-1.3.8-2.2-.5-2.6-.5-.5,0-1.3.4-1.9.4-.2,0-.4-.4-.6-.4-1.5.1-3.5,1-4.9,1-.8,0-4-1.7-4.4-1.7-1,1.5-2.8,1.4-4.1,2.3-1-.5-2,0-3-1.2,0,0,0-.4-.1-.5-.1-.2-.5-.2-.6-.4-.2-.4-.7-3-.7-3.4,0-1.2,2.3-2,3.4-1.9.2,0,1.4.6,1.6.7.6,0,1.8,0,2.5,0,2.5.1,12.9,1.3,14.3.7,2-.9,2.9-.7,5.1,0,3.8,1.2,9,1.2,12.9,1.5,1.3.1,1.9-.1,3,0,0,0,1,.3,1.1.3,1.3.5,2.4,1.7,2.4,3.1.6-.9,1.5-.6,2.1-.9s1.9-1.6,2.7-1.5c1.8.7,4.1.5,6.2.8,3.3.5,6.3,1.3,9.4,1.7s5.9.6,8.8,1.3c2.7.7,6.1.6,8.9,1.8,3.6,1.5,8.1,2.8,12.2,3.1.8,0,.9,1.3,1,1.3.2.1,2.5.4,3.2,1.1.3.3.7,1.5.8,1.6.2.1,1.2-.4,1.7-.3.8,0,2.3,1.9,2.7,2.2,1.6,1.4,10.6,4.2,11.1,5.4.3.5.4,1.4.9,1.9,1,1.1,4,1.2,4.5,2.1.9,1.8,6.2,6.1,8,6.2.6,0,6.5,7.2,7.5,7.6,1.6.5,1.7,1.7,2.2,2.1.2.2,1.1-.5,2.2.8.7.9,3,1.1,3.4,1.9.2.4,0,1.1.3,1.5.5,1,3.7,2.9,4.4,4.2.2.4.2,1.6.3,1.7s2.9.6,3.4,1.6c1.7,3.4,3.7,4.3,6.4,6.8,2,1.9,7.8,8.6,10.2,9.4,1,.3,1,.8,2.1,1.9s7.6,6.6,8,7.5c.3.6.2,1.8.5,2.4.3.6,4,3.4,4.4,4.2.2.5.1,1.4.4,1.9s1.6.9,1.7,1.2c.7,1.5.8,3.4,1.4,4.8.2.3,1.6.8,1.7,1.2,1.8,3.4,4.5,6.1,6,9.7l1-.2c-.1.9.6.9.7,1.1,1,2,.8.5,1.8,1.7,1.2,1.3,2.8,3.4,4,4.8,2.2,2.5,4.1,5.4,5.7,8.5.2.4,2.1,1.2,2.3,1.6,1.1,2.2,5.4,4.2,6.3,6.3.2.5.2,1.2.3,1.7l1.5-.3c.2,1.6.4,2.5,1.9,3.2,1.6.7,4.5,2.9,5.7,4.7.3.5-.3,1,1.1.5.3,1.3-.4,2.4.2,3.7,0,.2.4.2.6.4,1,1.4,2.8,2.2,3.7,3.3.2.2,0,.7.1.7.1,0,.8-.3,1.2-.2,1.4.1,3.7,4.2,5,3.6l.2,1c2.3,0,6.9,7.4,8.4,7.9,2.1.7,4.5,3,5.9,5.6,1.1,2.2,3.3,3,4.6,5.6.2.3,4.7,4,4.9,4.6,1.2,2.4,2.7,4.8,4,7.3.2.3,1.6.9,1.7,1.2.5.9.3,2.9.8,3.9,0,.2,1.2,1.1,1.3,1.3.5,1.1.3,2.4-1,2.5v.5c.1,0,1.1-.2,1.1-.2,0,.7.4,1.5.4,2.2,0,.2-.7,1.4-.7,1.6,0,.9.2,2.6.2,3.5,0,.1-1.3,2-1.4,2-.6.3-1.7.2-2.4.5-.2,0-1.3.6-1.9.9-.2,0-.2.5-.4.6-1.6.7-1.8-.2-2.6-.5-.1,0-.4.1-.5.1-.7-.2-1.2-.2-1.3-.2,0,0-.8-1.8-.9-1.9,0,0-.9.3-1.6-.4-1.5-1.5-2-2.2-4.3-2.4-.5,0-3.9-4-5.9-4.4-1.6-.3-.8-1.2-2.3-1.6-2.1-.4-4.5-3-6.8-3.7-1.6-.5-1.2-1.6-2.4-2-3.4-1.3-2.7-.4-5.4-3.2-.7-.7-1.7-.7-1.9-.9-7.7-4.4-14-9.4-20.4-14.9-2.7-2.3-6.2-3.4-7.9-6.5-.7-1.4-3.8-2.2-4.8-3.6-2.4-3.5-3.5-4-6.4-6.8-2.1-2-3.9-4.5-5.8-6.4-1.1-1.1-3.5-2-4.6-3.1s-.9-2.4-2.3-2.8c-.4-.1-4.4-3.6-4.5-3.9-1-2-.8-.5-1.8-1.7-.6-.6-1.5-2.1-1.6-3l-1,.2c-.5-1-1.1-2-1.6-3-.3-.7-3.4-.8-3.9-1.8-1.3-2.5-1-1.4-2.6-3s-3.5-4.7-4.8-6.6c-1-1.4-1.9-2.5-2.8-4-1-1.6-1.4-1.7-2.8-2.7-.4-.3-.5-1.1-1.3-1.3-1-.3-.6.9-.5,1.4.5,2.8,2,5.4,2.1,8.2.1,3.1.7,5.1,2.1,8.2,1.1,2.3.9,4.4,1.6,5.7,2.1,3.8,2.6,7,4.1,10.8s.9,9.3,2.6,13.1c.6,1.4.5,2.6.4,4.5,0,.3-.8.9-.8,1.2-.1,1.3,1,3.6,1,4.9,0,.5-1.5,1.5-1.1,2.2-.5.5-2.4,3.2-2.6,3.3-.9.5-2.8.4-3.9.8-.2,0-.2.5-.4.6-1.5.7-4,1.2-5.3,1s-1.4,1.2-1.8,1.4c-.6.3-5.1,1.1-5.8,1.1-.2,0-.4-.4-.6-.4-.9,0-2.2,0-3.1-.4-1.8-.7-1.5-1.5-3.9-1.8-.3,0-2.5-2.3-2.8-2.7-1.4-2-3-3.6-4.2-5.7-.3-.6-2.8-2.6-3.2-3.4-.2-.4,0-1.1-.3-1.5-.1-.2-1.2-1.1-1.3-1.3-.7-1.7.4-3.6.2-4.1-.4-.7-1.1-1.5-1.1-2.8l-2.1-1.9-1.6.8.2,1c-2-.3-2.5,4.1-3.9,4.8-4.1,2.1-2.9,3.6-4.4,7.2-.4.9-1.8,3.3-2.4,3.2l.2,1-1.5.3c.9,1.3-.9,2.3-.9,3,0,.4.3,1,.3,1.5,0,1.1-3.5,3.8-4,5.3-.5,1.6-2.6,2.6-3.6,4.8-.6,1.3-1.5,2.6-2.2,4-1.2,2.3-3.1,2.7-5,4.3-1.4,1.1-1.9,1.8-3.5,2.7-.8.4-1.8.8-2.2,1.5h-.5c-.9-.4-1.9-.7-2.9-.4l.3,1.5c-1.2.4-2.5-.4-3.7.2-.1,0-1.7,2.4-1.8,2.6-.4,1.4-.5.6-1.5,1.5-1.7,1.6-.5,1.8-3.4,3.2-.8.4-1.8,2.3-2.1,2.4-.7.4-2.2.2-2.9.6-.5.3-.4,1.6-1.1,2.2-1,1-2.2.7-3.3,1.2-.7.3-3.1,3.1-3.8,3.8-.2,0-.4-.4-.6-.4-1.7,0-3.4,1.2-5.1,0-.4.6-.7.9-.4,1.6-.1.3-.6-.3-.8-.3-.7,0-.7.6-.9.7-.7.4-4.8-.3-5.5-1.2-.2-.2,0-.7-.1-.7,0,0-1.8.3-2.2.4-.2,0-.2.5-.4.6-.4.1-2.1.5-2.2.4-.1,0-.6-1.6-1.6-1.7-2.1-.2-3.9,0-6.2-.8s-4.8-.7-7.4-1.6c-.4-.1-.9-.8-1.2-.8-3.2-.3-9-3.4-12-4.7-4.8-2.1-9.3-4.6-14-6.8-2-1-3.6-3.2-5.8-3.9-.3,0-.6.2-.7.1s0-.5-.1-.7c-.3-.4-1.6-1.1-1.8-1.7s-.1-1.4-.4-1.9c0-.2-1.2-1.1-1.3-1.3-.2-.5-.5-1.9-.5-2.4,0-.2.4-.4.4-.6,0-1.3.1-1.9.4-3.1.4-1.5.8-2.9,1.2-4.3.3-1,.3-2.8,1.1-3.5,1.1-1.1,3.3-2,4.4-3.4,1.6-.3,2.5-1.3,4.3-1.4.5,0,2.6.4,3.1.4,1.4,0,2.4-.7,3.6-1.2-.8-1.1.5-1.9.5-2.4.2-1.8.3-2.5.7-4.2.6-2.4.5-5.6,1.5-7.9.4-1,1.6-1.9,1.4-3.3-.1-.2-1.6-.8-1.9-.9-.3,0-.6.2-1,.2-.6,0-2-1.9-2.8-1.5-.9,1.9-4.8.3-5.4.6-2.3,1.1-6.7,1.1-9.4.9-3.5-.3-8.2-.5-11.4-1.8-.6-.2-2.5-1.4-2.8-1.5-4.2-.4-6.5-2.2-10.6-2.5-4.2-.3-8-2.6-11.9-4.2-1.4-.6-4-.5-5.1-1.8-.5-.6-.9-1-2-1.4-4-1.4-7.7-3.2-11.5-4.8-1.1-.5-2.3-1.8-3.5-2.3-.7-.4-.9-.5-1.8-.1.3,1,.3,2.3.6,3.2,1.2,3.1,2.5,7.3,4.2,10.8,1.1,2.4,1.3,4.7,2.4,7.1.6,1.3,1.2,2.8,1.8,4.2,1,2.1,3.3,9.5,3.4,12,.3,9.5,1.7,18.3.2,27.9-.4,2.7-1,5.5-2.9,7.4s-5.4,2.4-7.1.3c-1.8-2.2-.5-5.4.4-8.1,3.9-10.5,1.9-26.5-1.6-37-.7-2.1,0-4.3-.7-5.9,0-.2-.5-.2-.6-.4-.4-.6.3-1.6-1.2-1,.6,1.1-.3,2.1-.4,2.9-.3,2.1.4,6.3,0,7.6-.2.5-1,1.2-1.2,1.7-.3.9,0,2.3-.4,3.1-.1.3-.7,1.1-1,1.5-.7.8-.4.6-1.3,0,.8-1,.4-2,.4-3.1,0-.3.9-.5-.2-1,1.9-4.3.6-9.3,1.8-14l-1.3-1.8-.2-1c.8-5.8-1.5-12.6-3.5-18-.7-1.8-1.4-4-2.1-5.6-.2-.4-1.5-1.2-1.4-2-.2-.1-.8.7-.8.9,0,1.4,1.1,3.8,1.1,5.4,0,2.1.7,4.9.5,7.5,0,.2-.7,1.5-.7,1.6,0,.9.6,2.1.6,2.9,0,.3-.8.9-.8,1.2,0,.7.5,1.8.5,2.4,0,.4-1.1,1.4-1.2,1.7,0,.4.3,1,.3,1.5,0,.2-.7,1.8-.9,1.9-.5.3-1.6.1-1.8-.4-.4-.7.7-1.3.7-1.6,0-.8-.6-2-.6-2.9,0-.2.6-1.8.6-2.1.4-3.4-.5-6.4-.4-9.5.2-3-.7-6.9-.9-9.9-.2-2.9-1.2-3.1-1.9-4.7-.9-2-.8-4.8-1.9-7.2-.9-2-2.2-4-3.2-5.9-1.1-2.3-.9-2.6-1-4.9,0-.8-.4-2.5-1.3-2.5-.3,0-.7.2-1,.2-1.2-.1-1.5,0-2.5,0-1.4,0-.7-.4-2.5,0-.2,0-.4-.4-.6-.4-1.1,0-2.4.4-3.4-.6,0-.1,0-.4,0-.5-.6-.5-1.3-1-1.8-1.7l-.5-2.7c.8,0,.8-.5,1.1-.7,1-.7,2.8-2.4,3.5-2.7,1.4-.6,3-.2,4.3-1.4.8-.7,2.2-3.8,2.7-4.1,1.1-.5,1.7-.5,2.7-1.5,1.6-1.7,1.2-3,1.9-4.7.3-.6,1.5-1.9,1.6-2.3.4-4.1,1.3-2.7,2.1-5,.5-1.4.8-4.5.8-6.2,0-1.8.3-3.9.4-5.6,0-1.5-.5-3.4-.4-4.5,0-.2.8-2.4.9-3.2.2-2.2.4-3.3.4-5.6,0-.2.7-1.5.7-1.6,0-2.7-1.6-5.7-1.2-8.8.2-1.3-.6-3.4-.6-5.4s-1.3-2.4-1.4-4.8-.8-4.8-.8-6.4c0-2.2-1.4-4.8-1.3-6.8,0-.6-.4-1.5-.4-2.2-.5.2-1.2.1-1.7.3-.2,0-.2.5-.4.6-2.2,1-6.8,3.2-8.9,3.3-.2,0-.4-.4-.6-.4-1.6.1-4.1,1.1-5.3,1-.2,0-2.3-1.2-2.8-1.5-.1,0-.4.1-.5.1-1.6-.8-4.3-2.7-1.2-3.3,1.1-.2,1.5.2,1.5.2,2.8-.2,4.4-1.5,6.6-2.3,2.9-1.1,6.3-1.6,9-2.8.5-.2,1.5-1.8,1.7-1.8,1.9-1,2-2,3.4-3.2,1.1-.9.7-1.3,1.3-2.5.8-1.6,2.5-2.7,2.9-3.3,0-.1-.2-.5-.1-.7.3-1,.5-.6.6-2.1,0-.4,1.8-2.8.8-3.4-.6-.4-1.5.8-1.6.8-1.6.6-3.8.5-5.3,1.1-.9.3-2,1.2-2.7,1.6-1,.4-6.1,1.4-7.3,1.4-.2,0-.4-.4-.6-.4-1.3,0-4,.3-4.9-.8-.2-.2,0-.7-.1-.7-.8-.5-3.3.4-4.2.3-.4,0-1-1.2-1.9-.6l-.9-1.9c.8,0,1-.9,1.6-.8.2,0,.4.4.6.4,2.7,0,5.3-.8,7.9-1.1,3.9-.3,3.4-1.8,5.1-2.5.7-.3,2.6-.6,3.4-.7,4.9-.4,7.1-1.2,9.6-4.9s4.3-7.2,3.1-11.3c-1.2-4.1-4.7-7.1-8.5-8.9s-8-2.6-12.2-3.6c-2.4-.6-4.9-1.3-6.9-2.9s-3.3-4.2-2.6-6.6c.6-2.3,2.8-3.8,5.1-4.3s4.7-.1,7,.3c6,1.2,12,2.9,17.3,6s9.8,7.7,12,13.5c2.3,6,1.8,12.7,0,18.8s-4.8,9.4-6.6,14.3-.7,7.7-.6,11.8c0,.8.4,2.5,1.3,2.5.5,0,1.3-.4,1.9-.4,3,0,5.9-.7,9-.3.3,0,1.5.7,1.7.7,1.7,0,4.6-.8,5.9-.7.3,0,.9.8,1.2.8,2.2.2,4.3-.5,6.5-.3,2.6.2,6.6-.9,9.9-.9,5.1-.1,10.6-2,15.7-2.1,3.6,0,7.2-3.4,11.8-1.8,1.8-2,3-.8,4.9-.5,1.6.3,3.4,0,5.1,0,.2,0,.4.3.6.4.2,0,.4-.1.5-.1,1.9.7.7,3.1,1.1,4.6-.3.6-1,2.8-1.7,3.1-.3.2-.8,0-1,.2-.9.7-1.3,1.6-2.7,1.5-.2,0-.5-.6-1.1-.3-.2,0-.2.5-.4.6-1.1.5-3.1.4-4.4.9l-1.1,2.2c-.9.1-2.1,2.3-2.5,2.5-.3.2-1.1.1-1.2.2-.3.5,0,1.7-1.2,2.8s-1.1,3.7-3,4.1c0-.8-.6-.9-.8-1.6-.7-2.2-.1-2.4.2-4.1,0-.3-.3-.7-.2-1,.3-1.3.6-1.4,1.4-2,1.3-1.1.7-.7,1-1.5.2-.7,1.2-1.6,1.6-2.3v-.5c-1.1-.7-1.6-1.8-1.7-3-.7,1-1.7.6-2.6,1-1.3.6-2.4,1.8-4.2,1.8-1.4,0-3.1.9-4.9,1-.9,0-2.3-.9-3.6-.3-1.2.5-7.6,1.9-9.2,1.8-.2,0-1.5-.7-1.7-.7-1,0-2.4.7-3.4.7-.4,0-2.3-1-2.7-1-1.2,0-4.2.7-4.9,1-1.9.7-6.4,0-8.6.2-2.9.3-6.3,2.1-8.9.8l-1,.2c-.4.5-2.2,2-2.2,2.7,0,.6.4,2.7.7,3.4.8,2.6.7,2.8,1.1,5.4.6,4.6,1.7,6.7,1.2,11.4-.4,3.8-.7,7.5-.3,11.2.2,2,1.2,6.2,1.1,7.9-.1,1.5-1,0,0,3,.7,2.1.6,5.4,1.4,7.3,0,.2,1.1,1,1.3,1.3.2.2,0,.7.2,1s2.4,1.7,2.8,1.2c0-1.1-1.1-1.6-1-2.6,0-.3.7-.7.2-1.5-1.6-3-1-5-1.6-8.3,1.2-1.1.2-3.1,1.7-4.1.2,1.5.8,3.1.9,4.6.2,1.9-.3,1.6.8,3.9.5,1.2-.1,1.9,0,2,0,.2.5.2.6.4.2.4,0,1.1.3,1.5s.5.2.6.4c.6,1.1.8,1.7,1.6,2.7,2.1,2.9,4.9,4.3,6.5,7.3.2.5,2.7,1.4,2.8,1.2l-1-2.6c-2.3-1.1-1.1-4.4-1.5-5.2-.2-.3-1.6-.9-1.7-1.2-.2-.5-.1-1.4-.4-1.9,0-.2-.7-.2-.7-.9.3-3.4-1.7-5.2-1.6-8.3,0-.2.7-1.4.7-1.6,0-.6-.9-.8-.8-1.6l1.5-.3c.2.5.1,1.2.3,1.7,0,.2,1.3,1.6,1.3,1.8.8,2,0,4,.7,5.9.2.7.6,1.5,1,2.3.5,1.3.9,3.7,1.4,4.8.3.6,2.5,2,2.2,3.6,2.4,2,4.1,3.6,6.8,5,1.4.8,2.1,2.1,4,1.2.2-.9-.8-1.5-.8-1.6-.3-.9-.2-2.1-.6-2.9,0-.2-1.2-1.1-1.3-1.3-1.2-2.9-2.5-6.4-3.4-9.4-.3-1-.9-3.5-.9-4.4,0-.5,1-1.7.5-2.4l1.9-.4c.4.7-.4,1.2-.2,1.8.3.6.5,1.1.9,1.9,1,2.2,1.8,5.9,2.6,8.1.8,2.1,1.6,4.5,2.8,6.5,1.3,2.1,3.3,3.6,4.6,5.6,2.9,4.5,6.4,6.7,11.1,9.2.8,0,1.6.2,2.3.3.6,0,.6-.2.9-.7-.4-.6-.6-1.3-.9-1.9-.7-1.3-.7-2.4-1.2-3.3,0-.1-.9-1-1.4-1.8-1.1-1.8-3.8-5.4-4.4-7.2-.4-1.2-1.1-4.6-1.1-5.8,0-.8.2-1.4,1-1.5,1.2.9,2.4,2.3,2.5,3.8,1.6.8,1.4,2.5,2.3,4.1.5.9,2.4,2.9,2.7,3.5.5,1.2.6,2.8,1.4,4.3.2.4,2.1,1.2,2.3,1.6.9,1.8,3.7,4.7,5.2,6,.8.7,7.4,5.2,7.9,5.3s1.2-.3,1.7-.3c-.2-.5-.1-1.2-.3-1.7,0-.2-1.2-1.1-1.3-1.3-.4-.9-.2-1.9-1.1-2.8-.4-.4-2.3-1.8-2.4-2-.4-.8-.8-2.6-1.2-3.8-1.8-4.5-4.2-8.2-4-12.8-.8-.4-2.3-3.8-2.3-4.1,0-.2.4-.4.4-.6,0-.8-.5-1.8-.5-2.7,1.6-.6.9.7,1.3,1.5.8,1.4,1.8,4.2,1.7,6.2,3.1,2.8,3.6,7.4,5.7,11,.8,1.3,1.6,2.8,3.4,2.1-1.5-2.2,2-3.6,2.1-4.7,0-.4-.3-1.9-.5-2.4-.6-1.7-2.5-3.3-1.1-5.4l-.7-.9c.5-.5.4-1.4.1-2-.5-1.3-1.3-3.3-2-5.1,0-.2-.5-.2-.6-.4-.8-1.9,0-2.6.7-4.2.2-.4-.1-1.5,1.2-1.5-.2,1.2,1.3,2,1.5,2.5.3.8.9,3.9,1,4.9,0,.2-.4.4-.4.6,0,2,2.1,4.4,3.2,5.9-1.4,1.7,1.4,3.1,1.8,4.2.9,2,1.2,4.7,2.3,6.6.7,1.2,3.6,4,4,4.8.5,1.1,0,2.3,1.8,2.9,2.1.7,2.8,3.4,4.8,4.1,1,.3,1.6,1.3,2.1,1.9.6.7,1.8.5,2.5,1.3.7-.8.6-.7.2-1.5-.3-.7-.9-1.3-1.1-1.6-1.9-3.7-3.5-8.3-5.8-11.5-1.2-1.7-2.8-2.6-4-4.8-.4-.7-2.2-3.6-2.3-4.1,0-.1.6-.9.1-2-1.6-3.5-1.7-6.7-3-10-.6-1.7-1.2-4-2.2-6.1-.4-.7-.7-1.5-1-2.3.7-.5.1-1.1.2-1.5,0-.2.4-.4.4-.6,0-.3-.2-.6-.1-.7,0,0,1.3-.5,1.6-.8,1.4.1,2.2,4.1,2.3,5.4.2,4.2,2.1,9.9,3.8,13.9.7,1.7,1.3,3.5,2,5.1,1,2.4,2.7,5.2,4.1,7.8.2.3,1.6.8,1.7,1.2,1,2,2.1,3.6,3.6,5.4,1,1.2,2.4,1.4,2.9,2,1.7,1.8,5.3,4,7.3,4.9,1,.4,1.8,1.8,3.1,1.4.6-.8-2.8-2.2-3.1-2.7-.8-1.6-.8-1.8-2.1-3.1s-2.6-2.5-3.8-3.8c-2.4-2.7-2.8-5.3-4.1-8.3-.8-1.7-.4-1-.5-2.4,0-1.8-1.2-4.2-1.1-5.8,0-.2.6-.5.3-1.1-.1-.2-1.9-1.3-2.4-2-.9-1.4-1.3-3.9-2.1-5.6-.5-1-1.6-3.2-1.8-4.2-.3-1.1-1-3.9-1-4.9,0-.6.9-1.8,1.1-2.2.1-.4-.6-.9.8-.9-.3-1.4-1.3-2.4-1.3-4,0-.2.4-.4.4-.6,0-.3-.2-.6-.2-1,0-.2.8-1.4,1.2-1.5.2,1.8.9,3.8,1.1,5.6.2,2.2,1.7,11.5,2.7,13.6,1.5,3.5,1.8,8.6,4.8,11.7-.7,2.8,2.6,5.7,4.1,7.8,1.2,1.7,4.8,8,6.5,8.6.7.2.5-.4,1.4,1,1.5,2.1,5.5,5.2,7.6,6.3,1.3.8,2.5,2.4,3.6,2.8.2,0,1.3.1,1.6.2.6.3,2.7,1.6,3.3,1.4.6-.3.6-.7,0-1.3-2-1.7-4.9-3-7-4.7-2.7-2.1-5.4-5.3-7.6-8.1-1.3-1.6-.9-1.6-1.6-3.2-.2-.4-1.6-1.6-1.9-2.1-1.5-2.3-1.9-4.8-2.9-7-.3-.7-1.6-1.1-1.6-2.7,0-2.6-1.4-8-2.6-10.6-.5-1.1.1-1.8.1-2-.1-3.2-1.2-6.9-.9-9.9,0-.4,1.2-1,.6-1.9l1.6.2c.1,2.9,2,7.2,2,10,0,2.2,1.8,3.6,1.7,6.2,0,.2-.6.5-.3,1.1,1.2,2.5,1.3,5.1,2.5,7.6,1.2,2.5,4,5.8,3.7,8.4,2,1.2,2,2.3,2.8,4,.1.3,3.1,2.3,3.6,2.8,1.6,1.6,1.9,3.3,4.1,4,.9.3,1.2,1.5,1.6,2,1.2,1.2,3.6,2.1,4.9,3.3.7-.1,2.9,1,3.4.4.6-.9-3.1-3.9-3.9-4.5-1.4-2.8-5-5.2-6.1-7.9-.2-.5-.1-1.5-.4-1.9-.1-.2-1-.5-1.2-.8-1.1-2.1-1.8-4.5-2.8-6.5-.1-.2-1.2-1.1-1.3-1.3-1-2.3-1.2-4.7-1.9-7.2,0-.2-.5-.2-.6-.4-.7-2.6-1.2-5.4-1.1-7.9.2-4.5-2.6-9.4-2.4-14.7,0-.2.7-.6.2-1.5-.3-.6-.5-.8-.4-1.9,0-1.1.3-2.9.7-4.2.5-1.8,1.3-3.3,1.5-5.3,0-.2,1.1-2,1.3-2.5l1.1,4.1c-.6,1.7-.4,3.9-.4,5.6.1,6.6.7,12.7,2.4,19.7.7,2.9,2.8,7.3,2.5,10.1,0,.7,1.9,2.6,2.2,3.6s.3,2.6.7,3.4c.1.2,1,.5,1.2.8.7,1.4.7,2.1.7,3.4,0,2.3,2.7,2.5,3.2,3.4,1.9,3.6,3.2,4.1,5.9,6.9.7.8,2,3.2,2.2,3.4.1,0,.5-.2.7-.1,1.8.6,2.7,3.5,5.3,2.5-.3-.8-.2-2-.5-2.7-.5-1.2-3.6-3.5-3.8-3.8-.6-1.1-.9-1.4-1.4-2.2s-3.2-5.6-3.2-5.9c.2-3.3-2.1-6.6-2-10.2,0-2.9-.5-7-.6-10.5,0-1.8-.7-4.3-.7-5.9,0-.2.7-1.5.7-1.6,0-1.4-.6-2.9-.4-4.5.4-2.4,2.5-4.1,2.7-6.6.4-.6,2-3.5,3-2.9.5.4-.3,2.1,0,2.8-.8,3.9-.8,8-1.7,11.9-.2.7-.9,2-1,2.7-.4,2.5.8,5.6,1.1,8.4.4,3,.5,7.5,1,10.4,0,.3,1.7,1.3,1.6,3.2,0,2,.3,1,1,2.3,1.5,3,3,5.8,4.7,8.7,1.8.8,3.2,4.2,4.9,1.6-.8-.3-.6-.8-.8-1.4-1-2.7-1.9-6-3.2-8.5-.1-.2-1.2-1.1-1.3-1.3-.6-1.4-.4-4-1.1-5.4,0-.2-.7-.2-.7-.9.2-2.3-.6-3.7-.6-5.4.1-4.3.9-9.8,1.7-14.5,1.3-1.7.4-4,3.3-3.9-.7,1.4.3,2.8.3,4.2,0,.2-.6,1.9-.6,2.1-.3,4.7,0,9.3-.2,14.2,0,1.2.4,1.3,0,3-.4,2.4.6,1.6,1,2.3,1.1,2.1,1.5,4.6,2.3,6.6,0,.2,1.8,2.6,2.1,3.1.2.3,1.1,1,1.3,1.3.2.2,0,.7.1.7.1,0,.5-.2.7-.1.7.2,1.1,1.2,2.4.5-.4-3.8-2.1-8.1-2.4-11.9h0ZM319.1,242.1c0-.3-.5-.2-.5.1s.5.2.5-.1ZM322.4,346.1c.2.1,1.8-.7,2.3,0h2.5l1-1.5c0-.3-.2-.7-.2-1,0-.5.5-2.3.5-2.6,0-1.1-.5-3.3-.9-4.4,0-.2-.5-.2-.6-.4-.3-.9-.2-2.1-.6-2.9-.2-.5-1.7-2-2-2.6-.2-.4-.2-1.6-.3-1.7-.1,0-.5.2-.7.1-.7-.2-1.6-1.3-2.3-1.6-.9-.4-2.2-.3-3.1-.4-.2,0-.4-.4-.6-.4,0,0-.4.9-1.1.7,0,1,.6,2.2.6,3.2,0,1.6.6,4.8,1.2,6.3.4,1,0,1.4.5,2.4.6,1.2,1.1,3.3,1.8,4.2.4.4,1.6.9,1.7,1.2.2.3.1,1.1.2,1.2h0ZM289,330c-.2-.7-.2-1.5-.4-2.2-.8-2.1-3.9-7.9-5.4-9.5-1.8-1.9-3.1-3.6-4.6-5.6-.7-1-1.1-1-1.8-1.7s-1.4-2-2.5-2.5c-.4-.2-1.9-.6-2.1-.4,0,1.2,1,1.8,1.5,2.5.2.2,0,.7.2,1,0,.2,1.3.9,1.8,1.7,1.2,1.7,2.1,3.2,3.5,4.9,2.1,2.6,3.8,6.2,5.8,9,.5.6.5.7.8,1.4.1.3,3,2.2,3.4,1.6h0ZM290.8,342c0-.3-.5-.2-.5.1s.5.2.5-.1ZM284.3,334.5c.3-1.8-1.8-2.2-1.7-3.5.2-1.9-1.6-2.4-2.2-3.6-1.1-2.2-2.3-4-3.7-5.8-3-4-5.6-7.1-8.7-10.9-1.4-1.6-2.4-4.1-3.6-5.4-.3-.4-1.9-1.3-2.2-.8l1.3,4c1.6,1.6,1.8,3.2,3.6,5.4s2.4,3.4,3.7,5.8c.7,1.4,4.1,3.4,4.1,5.5l1-.2c1.4,3,4,5.2,6,7.6.6.7.9,2.3,2.4,1.8h0ZM207.7,327.4c1,.2,1.1-1.1,1.5-1.3.7-.3,4.9-1.1,5.8-1.1,1.1,0,3.6,0,5.1,0,.2,0,1.5.7,1.6.7.9,0,2-.6,2.9-.6.2,0,1.3.6,1.6.7.3,0,.6-.2,1-.2,0,0,1.4.9,1.4,1,1,2,1.3,1.3,2.5,2.5.2.2.6,1.1.8,1.4.1.2.5.2.6.4.7,1.7-.5,4.2,0,5,1.5,1.8,2.3,3.9,2.2,6.1,0,1.4,1.1,2.3,2.3,2.8,1.6.8,3.9,1.5,5.5,2.4,2.1,1.1,4.2,3.1,6.2,3.3.4,0,1.9,1.5,2.3,1.6,1.2.1,2.4-.2,3.5-.2.2,0,1.5.7,1.7.7,1.6,0,1.9-1.1,2.7-1.5,2.4-1.2,2.8-1.3,5-3,4.7-3.7,9.7-6.1,15.1-8,.3-.8,1.9-.7,2-1.6,0-.4-.4-2.6-.6-2.9-.1-.2-.9-.5-1.2-.8-.8-1-1.7-2.3-2.2-3.4l-1,.2c-2.3-4.1-6.2-7.4-8.4-11.7-.1-.3-2.3-1.8-2.4-2-.3-.6-.2-1.8-.5-2.4-.1-.3-1-1.4-1.5-2.2-.3-.5-2-.8-1.9-1.9-.5-.3-1.7,1.2-1.7,1.6,0,.5.6,3.8.9,4.4,0,.2,1.3,1.6,1.4,1.8.2.5.2,1.2.3,1.7-3.3.3-1.8,1.6-1.8,3.6,0,.2-.4.4-.4.6-.1,2.5.5,5,.5,7.5s.1,4.9.5,7.5c.1.9.5,1.5-.3,2.3l-1.1-1.6c0-2.5-.6-4.8-1.4-7.3,0-.2-.5-.2-.6-.4-.5-1.7-.5-4.4-1.1-5.8,0-.2-.4-.2-.6-.4-.1-.1,0-.4-.1-.5-.2-.2-1.9-1.4-2-1.4-4.3-.4-8-2.5-11.9-4.2-2.5-1.1-5.4-1.4-8.1-2.5-1-.4-2.3-1.8-3.4-1.9s-2.6,1-3.5.2c-1.1,1.1-1.7,0-2.5,0-3.5,0-5.9,1.3-8.8,1.2-.3,0-4.4,1.3-4.8,1.4-.2.1-.5,1-.8,1.2-2,1-4,2-5.9,3.2-.3.2-.3.8-1.1.7.4.8-.4,1.7-.5,2.4-.2,1.1.2,2.4.2,3.5,0,.2-.4.4-.4.6,0,1,.4,3.7,1.5,4l2.1-3.2c-.4-1.2.7-2.9,1.9-3.1l-.2-1h0ZM272.2,360.1c-.5-.9.4-1.2.6-1.9.3-1,.6-2.3.9-3.2.1-.4.8-1.8.6-1.9-.8,0-2.6,1.2-2.7,1.8,0,.3.2.7.2,1,0,.2-1.2,2.2-1.4,3.3,0,.4-.4,1.7-.1,1.8l1.9-.9h0ZM266.3,355.7c.5,1-.7,1.6-1,2.5,0,.2-.1,1.3-.2,1.5-.2.5-1.1,1.4-1.2,1.7,0,.9.5,1.8,0,3-.5,1.2-.8.8-1,2.7,0,.8-2.3,2.8,0,3.8.3-.7,1.1-1.4,1.4-2,.3-.9,0-1.8,0-2.5,0-.7,3.1-4,3.1-4.6.1-1.3-.8-2.8.7-4.2v-2.8s-1.9.9-1.9.9h0ZM252.9,303.3c-.3-1.1-.3-2.5-.7-3.6-.7-2-2.7-.8-1.8,1.4l2.5,2.3ZM250.9,308.7c-.6-1.8-.5-4.4-1.2-6.1-.3-.7-1.9-2-1.9-2.1-.5-1.1,0-2.2-1.8-2.9-.1,0-.3.1-.5.1-.2,0-.4-.4-.6-.4-.7,0-1.6.4-2.4.5-.2,0-1-.7-1.8-.1,0,.7.2,1.2.6,1.9.9,1.5,3.4,3.5,4.7,4.9,1.1,1,2.1,2.3,3.2,3.4.3.3,1.2.9,1.7.9h0ZM260.3,358.6c-.1-.2-1-.7-1.4-.5l-.4.6-1.1-.3-1.5,1.5c0,.6,0,2,0,2.5-.7,4-2,7.4-3.3,11.3-.1.3-.1,1.2-.2,1.5,0,.2-.4.4-.4.6,0,.7,1,1.9,1.6,2,1,0,3.1-.5,3.5-1.5.4-.9.5-2.6.8-3.7s.6-2.1.9-3.2c.7-2.8,1.1-5.6,1.4-8.4,0-.8.4-1.7,0-2.5h0ZM232.6,300.2c.2,1,2.3,1.9,2.5,2.3,1.7,3.3,5.1,4.2,6.4,6.8.2.3,1.6.8,1.7,1.2.4.9-.5,1.7,0,2.5,0,0,1.4,1,1.4,1,.6,0,1.4-.6,2,.1,1.3-1.4,0-2.1-.9-3.1-.5-.6-1.6-2.1-2.2-2.3-1.1-.4-1.3-.7-2.1-1.9-1.3-1.8-2.5-3.9-3.7-5.8-.2-.3-.8-.3-.7-1.1-.7.4-1.1-.2-1.3-.2-1,0-2.1.5-3.2.6h0ZM249.8,377.1c0-.1-.2-.5-.1-.7,0-.2.4-.4.4-.6,0-.7-.2-.9.1-2,.5-2,2.4-6,2.4-8,0-.7-.5-1.8-.5-2.4,0-.6,1.6-1.5,1-2.5-1.4.2-1.8-1.1-3.4-.4-.8.4-1.3,2.9-1.9,3.4-.3.3-1.4.8-1.5,1.5,0,.6.4,1.2-.4,1.8-1.2,1-.9-2.3-.3-2.7v-3.2c-.1,0-2.5,2-2.5,2-1.2,0-2.9,1.2-3.3,2.4,0,.3.2.6.1.7s-1.6.6-1.7,1.6c-.2,2.2-.9,2.9-1.1,4.8,0,.5-1.4,1.5-.4,2.9.9-.5,1.5.6,1.9.6,3.1.3,5.1.9,7.9,1.5.4,0,1-.5,1.6.2.3-.3,1.6-.7,1.6-.8h0ZM223.3,301.6c0,.6.1,1,.5,1.4.9,1,3.2,4,3.8,5.1.4.7,0,1.6,1.2,2,1.4-.8,4,1.1,5.1.5,1.6-.8-.3-2.4-.9-3.1-.8-1-3.6-3.9-4-4.8-.3-.6-.2-1.5-.4-2.2-.9.2-1.7-.5-2.8,0-.2,0-.2.5-.4.6-.6.2-1.5.2-2.2.4h0ZM236.4,368.1c-.2-2.7,2.2-3.5,3-5.4.3-.8,1.3-1.6,1.6-2.3,0-.1-.1-.3-.1-.5,0-.2.4-.4.4-.6,0-2-.9-1.9-1.6-2.7-.5-.6-1.6-2.8-2.3-2.8-3.1-.3-3.9-.3-5.4-3.2-.3-.6-7.2-4.2-8.2-4.7-.6-.2-1.9-.3-2.6-.5-.4-.1-.9-.8-1.2-.8-3.2-.3-6.1,0-9.1-.2s-5.9.2-9,.3c-.2,0-.4-.4-.6-.4-.7,0-1.4.6-2-.1l-1,.2c-.5.3-1.5,1.8-1.7,1.8-1.3.7-2.4,1.5-3.6,2.2-.5.3-1.4.4-1.9.9-1.2,1.1-1.6,3.1-1.9,4.7-.4,1.9,0,4.2-.8,6.2l.9,4.6c.4-.2,1.3,0,1.4-.5,0-.5.1-1.1.2-1.5.2-1,0-1.3.1-2,0-.2.6-1.3.7-1.6,0-.1-.1-.4-.1-.5.4-1.1,1-.8,1.6-1.1.2,0,1.1-1.6,1.7-1.8,1.1-.5,3.1-.5,4.4-.9.2,0,.2-.5.4-.6.8-.2,2.7-.7,3.4-.7,0,0,1,.3,1.1.3.9.3,2,1.6,2.9,2,1.7.7,4.3,1.2,5.9,1.9.3.1,2,1.3,2,1.4.9,1.9.7,6.2,1.6,8.3,0,.2.4.2.6.4.1.1,0,.4.1.5.2.3,1.7,1.2,2,1.4.2,0,1.3.1,1.6.2,1.1.5,2.7,1.2,3.1,1.7,1,1.1,7.9,3.3,9.5,3.4.6,0,1.1-.3,1.8.1-.4-.8.2-1,.2-1.3.2-1.7-.3-3.6,0-5.3l1-.2h0ZM230.1,341.1c-.4-.7.2-1.1.2-1.3,0-1.3,0-3.9-.5-5,0-.2-.5-.2-.6-.4-.3-.7-.2-1.8-.5-2.4,0-.2-1.2-1.3-1.6-1.5-.6-.2-1.5,0-2-.1-.5,0-2.4-1.9-2.9-2-1.5-.1-3.2,0-4.6-.1-.2,0-1.4-.7-1.6-.7-.4,0-1,.3-1.5.3s-.4-.4-.6-.4c-.7,0-.7.6-.9.7-.4.2-1.2.7-1.4.8-.4.2-1.6.2-1.7.3,0,.1.2.5.1.7-.2.5-1,1.2-1.2,1.7,0,.1-.3,1-.3,1.1,0,.5.5,3,.7,3.4.3.5,1.1.4,1.4.5.2,0,.4.4.6.4,1.9.1,3.8.2,5.6.4.4,0,1.4,1.1,1.7,1.2,1.3.1,2.3,0,3.6.3,1.5.4,3.3,1.1,4.9,1.6.9.3,1.3,1.2,2.9.5h0ZM223.1,310.7c0-.7-.2-1.2-.6-1.9-.5-.8-1.6-2.2-1.8-2.9-.5-1.4,0-3.4-1.5-4-.1,0-.3.1-.5.1-.2,0-.4-.4-.6-.4s-1.5-.2-1.6-.2c-.8,0-1.8.5-2.7.5v1.8c.5.1.4.8.5.9.4.4,1.3.7,1.7,1.2,1.3,1.2,3.2,1.9,4.3,3.7.2.3.1.8.2,1.2h2.5ZM236.4,388.3c2.3-.1,1.8-4.5.4-4.6-.3,0-1.2,0-1.2.5l.8,4.1h0ZM230.6,384.7c-.2-.5-1.3-.7-1.8-.4-.6.3-.4,1.2-.5,1.4-.2.5-1.1,1.5-1.2,1.7,0,.5.4,1.4.4,1.9,0,.2-.7,1.5-.7,1.6,0,.9.6,2,.6,2.9,0,.2-.4.4-.4.6-.2,1.7,3.8,1,3.9-.8,0-.8-.5-2-.6-2.9,0-.8.2-2.7.3-3.6.1-.8.4-1.7,0-2.5h0ZM203.9,302.9l.9,2.1c.6.8,2.9.7,3.3,1.4s.2,2.2.6,2.9c.1.2,1,.5,1.2.8.3.5.4,1.4.9,1.9.3.3,1.5,1.1,1.9.9,1.7-2.3,1.7-2.3,0-4.3-.9-1-1.3-1.6-2-2.6-.5-.7-1.5-1.2-1.8-1.7-.2-.2,0-.7-.1-.7,0,0-1.4.2-1.9-.6h-2.8s0,0,0,0ZM223.4,396.9c-.1-.9-.5-1.8-.5-2.7,0-1.1,0-4.7.4-5.6.1-.4.8-.9.8-1.2,0-.4-.3-2-.5-2.4,0-.2-.5-.2-.6-.4-.1-.3,0-.7-.2-1-.2-.3-1.2-1.4-1.6-1.5-1.1-.3-.4,1.2-1,1.5.9,1.8-.6,3.2-.6,4.7,0,1,.7,2.4.7,3.4,0,.4-.9,2.2-1,2.7,0,.7.2.9-.1,2-.3,1.3,1.7.3,2.3.3.2,0,1,.7,1.8.1h0ZM206.1,314c.4-.6-.8-1.5-.8-1.6-1.7-3.6-3.9-6.4-6.4-9.3l.3-1.1-.7-1.1c-.7,0-1.5.4-2.2.4-1,0-2.3.1-3.5.2-.2,0-.6-.7-1.3-.2.2.5.1,1.2.3,1.7.4.9,2.1,3,2.8,4,1.8,2.4,4.2,4.5,6.4,6.8.6.6,1.5,1.2,1.8,1.7.2.3,0,1.2,1.4.5.3-.2.8-1.4,1.2-1.7.2-.2.7,0,.7-.1h0ZM217.9,397c.2-.3-.9-3.7-.9-4.6,0-.3.4-1.8.5-2.6.3-2.4.7-5.3.5-7.7-.1-1.7-.4-3.2-2-3.9-1.2-.5-3.6-1-4.8-1.1-.4,0-2.3-1.9-2.1.7.1,2.1.4,4.5.3,6.5,0,.3-1.4,2.5-1.5,2.8,0,1.1,1.1,2.6-.9,3-.2-.2-.4-2.9-.7-3.6,0-.2-.5-.2-.6-.4-.5-1,.6-3.3.7-4.2,0-1.1-.4-3-.3-4,0-.3.8-.9.8-1.2.2-1.7-2.7-.6-3.4-.6-.2,0-1.5-.7-1.6-.7-.6,0-1.4.4-1.9.4-.5,0-4.1-2-4.9-2-.6,0-1.4.4-1.9.4-.4,0-1.4-1.1-1.7-1.2-2.4-.2-3-1-4.9-2-.6-.3-2-1.5-2.3-1.6-.9,0-2.4.7-3.4.7-1.5,0-1.8.5-2.4.5-.7,0-2.5-.9-3.2-.9s-4.4.7-4.9,1c-.7.4-2.4,2.9,0,3,3.2,0,6,1.3,8.8,1.3,1.4,0,2.5-.4,4.1.2,1.1.4,2.5,2,3.5,2.3.3,0,.6-.2.7-.1.1,0,0,.5.1.7.1.2.5.2.6.4.5,1.2-.1,1.8-.1,2,0,1.3.2,1.6,0,3,0,.3.2.6.2,1,0,.3-.8,1-1,1.5-.7-.2-.8-.9-1.3-1.3-1.3-1.1-1.3-.6-2.2-2.3-.2-.4-4.5-2.8-4.9-2.8-1,0-2.7-.1-3.6-.3-1.3-.3-2.2-1.5-3.7-.8-.3.1-.6,1.1-1,1.5l1.4,2.2c.8.9,2.2,4.5,3.7,4.6,2.2.2,4.6,1.8,7.1,2.6,3.3,1.1,6.8,2.2,10.2,3,3.7.9,8.1,1.3,11.6,2.8.5.2,1.4,1.1,1.7,1.2.6,0,1.4-.4,1.9-.4.1,0,1.6,1,2.2,1.1,1,.2,4.4.5,5.1.5.7,0,1.5-.4,2.2-.4h0ZM213.6,367.6l-1-2.6c-1.5-1.3-3-4.2-4.7-4.9-.2,0-1.3-.1-1.6-.2-1.1-.4-2.4-1.4-3.8-1.3-2-1-3.7.8-5.1,2-.1.1-.4,0-.5.1-.7.6-.5,1.8-1.3,2.5v2.5c-.8.8.3.7.3,1.7.8-.4,1.8.5,2.4.5.9.1,3.1.2,4.1.2,2,0,5.4-1,6.9-.9.3,0,.9.8,1.2.8.8,0,2.2-.6,3.2-.6h0ZM187.3,308.7c.2.2.3,2.5.6,3.2.2.5,2.9,2.2,3,2.4.2.4,0,1.1.3,1.5.1.2.9.5,1.2.8.4.5,1,1.8,1.4,2.2.6.6,1.3.4,1.9.9.8-.8.5-2.3.1-3.3-.8-2.3-2.2-4.6-3.4-6.9-.1-.3-1-.5-1.2-.8-.2-.4,0-1.1-.3-1.5-.2-.3-3.4-2.5-3.6-2.8-.6-1.3-.6-1.4-1.6-2.7-.2-.2,0-.7-.2-1-.1-.3-1.1-.6-1.4-1l-3.1-.4c-1.3,1.3.1,1.7.8,2.6.2.3,0,.7.2,1,.4.6,1.4,1.1,1.4,2l1.9-.9.5,2.4-1.6-.7.9,2.1c.5.9,2.1.8,2.2.8h0ZM191.7,328.5c-.4-.7.5-1.9.5-2.4s-.3-2-.5-2.4c0-.2-.5-.2-.6-.4-.1-.3,0-.7-.2-1-.1-.2-.4-.2-.6-.4-.6-.9-1.8-2.1-2.6-3-.3-.3-.9-.5-1.2-.8-.2-.2,0-.7-.1-.7-.1,0-.4.2-.7.1-.2,0-.4-.4-.6-.4-.3,0-.6.2-1,.2-.2,0-.4-.4-.6-.4-1.3,0-3.2.7-2.3,2.2.1.2,1,1,1.3,1.3,2,2.3,3.3,5,5.5,7.5.5.5.9,1.1,1.6,1.5l2.1-.9h0ZM174.4,289c.1,0,.5-.2.7-.1.7.2,1.6,1.2,2.3,1.6.6,0,1.6.5,1.6-.6,0-.6-.2-1.5-.9-1.9-.9-.3-1.9-2.2-2.7-2.2-.7,0-2.4.4-2.5,1.3,0,.7.9.9,1.3,1.3.2.2,0,.7.1.7h0ZM182,312.2c-.2-.7-.2-1.6-.4-2.2-.2-.4-1.7-1.7-1.9-2.1-.9-1.9-1.6-3.7-2.6-5.5-1.3-1.2-2.3-2.6-4-3.5l-2.9-.5,1.1,3.1c1.4,3.3,3.3,6.4,4.9,9.6.1.2,1,1,1.3,1.3.1.1,0,.4.1.5,1.3,1.4,2.9-.3,4.4-.6h0ZM182.7,331.3l1.9-.6c-.8-.3-.6-1-.8-1.4-1.3-2.4-3.9-5.4-5.5-7.5-.2-.3-.6-.8-.7-.9-1-1-3.7-.9-4.9-.3-.1,0-.8.9-.3,1.1.5.2.3.8.5,1.2.2.4,1.3,1.2,2,2.6.2.3,1.9,1.1,2.3,1.6,1.6,1.6,2.5,3.3,5.2,3.3l.2,1h0ZM166.2,281l1-.2-.9-.8h-.2s.2,1,.2,1ZM172.9,314.5c-.5-1.3-.4-3.5-.9-4.6-.1-.2-1-.5-1.2-.8-1.1-2.2-2.3-4.3-3.3-6.4-.7-1.5-1.2-3.2-1.9-4.7-.1-.3-1-.5-1.2-.8-.3-.6,0-1.1-1.1-1.6-.1,0-.4.1-.5.1-1.1-.5-1.3-1.1-2.9-.5.6,1.8.5,4.4,1.2,6.1.4,1,1.8,3.4,2.4,4.6,1.2,2.4,2.9,4.5,3.9,6.8.3.8.1,2.4,1.3,2.5.9,0,1.5-1.1,2.8-1.1.2,0,.6.7,1.3.2h0ZM173.5,333.1c-.2-.7-.2-1.5-.4-2.2,0-.2-.5-.2-.6-.4-.5-1.5-.6-2.8-1.4-4.3-.2-.5-2.4-2-3-2.4-.2-.2-.8-1.4-1.6-1.5-.3,0-.7.3-1,.2-.6-.1-2.3-1-2.7-1-.6,0-1.5.4-2.2.4.9,1.2,1.8,2.3,2.7,3.3.9,1,1.4,1.3,2,2.6.3.6,3.6,1.9,4.2,3.2.3.6.3,2.5.5,2.7.1,0,.8-.3,1.2-.2.2,0,.4.4.6.4.6,0,.7-.9,1.6-.8h0ZM162.8,315c-.2-.6-.2-1.6-.4-2.2-.1-.2-1-.5-1.2-.8-.2-.4,0-1.1-.3-1.5-.1-.2-.8-.3-.7-1.1-.8.4-1-.2-1.3-.2s-.7.2-1,.2-1.5-.7-1.6-.7c-.8,0-2.4.4-2.5,1.3,0,1,.7,1.2.8,1.4.3.7.2,1.8.5,2.4,0,.1,1.3,1.4,1.6,1.5,1,0,2.3-.2,3.1.4l3.2-.6h0ZM163.5,333.5c0-1-.3-1.1-.8-1.6-1.9-2.1-4-5.8-6.1-7.9-1-1-1.1-.5-1.9-2.1-.5-1-2.4-.1-3.3-.1-.2,0-1-.7-1.8-.1.2.7.2,1.6.4,2.2,1,2.5,5,4.8,5.9,6.9.3.7.2,1.8.5,2.4.6,1.3,3.4.4,4.4.4.2,0,.4.4.6.4.7,0,1.5-.4,2.2-.4h0ZM156.8,304.6c.1-.9-.6-.9-.7-1.1-.2-.3-.7-1.3-.8-1.4-.7-1.8-.6-5.3-1.3-6.8-.1-.3-1.8-1.1-2.3-1.6-.8-.8-1.5-2.2-2.8-2.7-1,.2-1.5-1.1-2.6-.5-.8.4-.4,2.6-.1,3.3,0,.2.5.2.6.4,1,2.2,2.7,5,3.4,6.9.4,1.3.3,4.9,2.5,3.8,1.3-.7,1.3,0,2,.1.6,0,1.5-.4,2.2-.4h0ZM145.8,315.3c.1,0,.8-.3,1.2-.2.2,0,.6.7,1.6.2,1-.5.2-2.1.2-2.8,0-.2.4-.4.4-.6.1-1-.7-1.2-.8-1.4-.3-.8-.1-2.4-1.3-2.5-.3,0-.7.2-1,.2-.2,0-.4-.4-.6-.4-.8,0-2.5.4-2.5,1.3,0,1.2.8,1.6.9,1.9.4,1,.6,2.3,1.2,3.3.1.2.5.2.6.4.2.2,0,.7.1.7h0ZM147,304l-1-2.6c-1.4-2.6-3.8-6.8-3.9-9.3,0-.5-.2-1.5-.4-1.9,0-.2-.5-.2-.6-.4-.1-.3,0-.7-.2-1,0-.2-2.8-2-3.2-2.1-.1,0-1.6-.7-1.6-.7-.6,0-1.5.4-2.2.4.2.9.2,1.9.5,2.7.8,2.2,1.7,6,2.6,8.1,0,.2,1.2,1.1,1.3,1.3.5,1.1.7,2.5,1.2,3.8.2.4.2,1.6.3,1.7.1,0,.9-.3,1.2-.2,1.3.2,2.8.7,4.2.7.5,0,1.1-.3,1.7-.3h0ZM150.6,332.1c-.4-.9-.8-1.9-1.5-2.5-2.2-2.2-4.4-5.1-6.5-7.3-.6-.6-1.3-.4-1.9-.9-1.2,1.2,0,1.4,0,1.8.2.4.1,1.1.3,1.5.3.6,1.5,1.2,1.8,1.7.7.8,1.4,2.6,2.2,3.6.4.5,1.4.5,1.3,1.5,1.4-.4,2.6,1.3,4.2.7h0ZM139,314.1c-.2-2.1-2-3.3-2.1-5.4-1.5-1.1-2.6-2.9-4.8-2.3-.9.4-.4,2.5-.1,3.3,0,.2.5.2.6.4.3.9.2,2.2.6,2.9,0,.1,1.9,1.4,2,1.4.3,0,.7-.2,1-.2.2,0,.4.4.6.4.7,0,1.5-.4,2.2-.4h0ZM132.9,301.2c-.6-2.8-1-5.7-1.7-8.5,0-.2-.5-.2-.6-.4-.6-2.6-.9-5.2-1.5-7.8-2.3-1.2-4.8-3-7.5-2.3.5,1.7.5,3.9,1.1,5.6.2.6,1.3,2.8,1.7,3.7,0,.2,1.2,1.1,1.3,1.3.5,1.2.8,2.9,1.3,4.3.2.6.2,1.4.4,1.9,0,.2,1,.5.8,1.4,1.4,1.2,2.9,1.4,4.7.8h0ZM137.8,329c.3-.5-1.7-1.9-2-2.4-.5-.8-.8-1.7-1.6-2.7-.6-.9-2-2.7-2.7-3.5-.3-.4-1.5-1.1-1.9-.9-.7.7-.7,1.5-.3,2.3.1.3,1.9,2,1.9,2.1,0,.2-.4.4-.4.6,0,1.1.6,2.5.7,3.6,1.1-.1,2.4.4,3.4.8h2.8s0,0,0,0ZM127.5,312.4c-.3-.9-.2-2.4-.6-3.2-.3-.6-3-1.7-1.6-3.2-.9-1-1.8-.2-2.8-.2-.1,0-.6-.7-1.6-.2-.5.2-.7,1.3-.4,1.8,0,.2.5.2.6.4.2.4,0,1.1.3,1.5,0,.2,1,1,1.3,1.3,0,.1,0,.4,0,.5.9,1,2.7-.1,2.9,1.7l1.9-.4h0ZM121.6,297.9c-.4-1.5-.5-3.1-.9-4.6-.6-2.1-2.3-4.7-2.4-7.1,0-1.5-.6-1.4-1-2.3s-.3-2.6-.7-3.4c-.1-.2-3.2-2.9-3.7-3.3-.6-.5-1.5-1.1-2.3-1.3.4,1.2-.4,2.1.1,3.2,1.8,3.9,2.9,9,4.1,13.3,0,.2.5.2.6.4.6,1.9.2,4.6,2.3,5.4.1,0,.3-.1.5-.1.2,0,.4.4.6.4.8,0,1.8-.5,2.7-.5h0ZM123.9,324.7c-1.1-2.6-3.3-4.3-3.4-7.1-1.3-1.1-2.9-1.7-4.7-1.9-1.5,1.6.5,1.7,1.3,2.5.9,1,1.8,3.3,2.4,4.6.9.7,1.8,1,2.8,1.5.6.2.8.8,1.6.4h0ZM115.4,309.7c-.3-.8-.2-2-.5-2.7-.2-.4-1.7-2-2-2.6-.2-.3-.1-1.1-.2-1.2-.1-.1-1.8-.2-2.8-1.2-.4-.4.3-1.1-1.6-.4.3,1.7.4,3.4,1.9,4.4l1,2.3c.7.8,1.2.3,1.8.4.3,0,1.7,1.2,2.5,1h0ZM109.7,293.7c-.2-1.5-.7-3.1-.9-4.6,0-.2.4-.4.4-.6-.5-4-2.7-8.1-2.8-11.6,0-.5-.5-3.1-.6-3.2-.1,0-.5.2-.7.1-1.1-.4-2.8-2.1-4.1-2.7-.7-.4-.9-.5-1.8-.1.3.7-.2,1-.2,1.8.2,1.9.8,5,1.3,6.8.7,2.5,2,6.1,3.2,8.5s-.5,1.4,0,2.5c0,.2.4.2.6.4,0,.1,0,.4,0,.5.2.2,1.1.8,1.4,1,.1,0,.4-.1.5-.1,1.2.6,2,2,3.5,1.3h0ZM108.8,315c0-.9-.9-1-.9-1.9l-.8.9s1.7.9,1.7.9ZM104,305.9c0-1.9-1.5-3.1-1.5-5,0-.3,1-.9-.3-1.5.1-1.7-1.3-2.2-2.1-3.1-.2-.2,0-.7-.1-.7s-.5.2-.7.1c-.8-.2-1.4-1.5-2.5-1,.3.8-.5,1.4,0,2.3.7,1.2.6,1.8,1.1,2.8.2.5,1.7,2.3,2.1,3.1.3.5.6,1.1.8,1.4.2.3.1,1.1.2,1.2,0,0,.4-.2.7-.1.4,0,2.1,1,2.4.5h0ZM97.2,284.3c-.3-.2-1.2-1.1-1.3-1.3-.5-1.1,0-2.9-1.4-3.5-1,.8-.2,1.6-.3,2.3,0,.2-.4.4-.4.6,0,.5.4,1-.2,1.5.8.5.9,1.7,1.7,2.4,1.8,1.7,3-.3,1.5-1.5l.4-.6h0ZM91.5,298.8c-.6-.8.2-2.4,0-2.8-.3-.6-1.5-.6-2.1-.4.1,1.2.8,2.8,2.1,3.1h0ZM86.3,275c-.9.4-1.7,2.7-2.2,3-.3.1-.7,0-1,.2-.4.3-1.3,1.1-1.5,1.5,0,.2-.2,1.3-.2,1.5.3,1.7,3.5,1,4-.3,0-.1-.2-.4,0-.5.2-.4.8-.9.8-1.2,0-.4-.3-1-.3-1.5s1.4-1.5.4-2.9Z"/>
        <path d="M34.2,143c2.2.5,3.4,3,3.3,5.2s-1.1,4.3-1.9,6.3c-2.1,5-4.4,12.1-3.4,17.6s1.4,2.9,1.7,4.5-.7,3.9,0,6c.8,2.4,1.5,5.1,1.5,7.8,1.7,1.5,1.8,4,2.7,6,1.5,3.4.5,5.3.7,8.5.1,2.6,2.1,5.9.6,8,2.5,1.2.6,2.2.6,2.9,0,.9.4,2.4.2,3.5,0,.3-.7,1.5-.7,1.6,0,2.4,1.3,4.5,1,7.4s.1,4.9,0,7.6c-.1,2.3.4,6,1.1,8.4,0,.2.5.2.6.4.4,1.1.4,1.7,1.1,2.8.3.6,1.9,2.2,2,2.6.2.5.2,1.4.4,1.9,0,.2.7.2.7.9,0,.2-.3.4-.4.6,0,.3,0,1.3-.2,1.5-.5,1.3-2.6,4.6-3.7,5.5-1,.9-.5,1.1-1.2,1.7-2,1.9-2,2.5-2.2,5.2,0,.4-1.5,1.9-1.6,2.3-.1,1.7.7,4.9-1,5,.8,1.8-.3,3.1,0,4.8.8.2.5,1,.8,1.4.2.3.8.3.7,1.1l1.9-.4c0,.7.5,1.6.4,2.2,0,.3-.8.9-.8,1.2,0,.7.5,1.7.5,2.4,0,.9-.4,5.3-.8,6.2-.4.9-1.7,3.1-1.8,3.9-.1,1.5,1.1,3.2.5,5-.2.5-1.2,1.4-1.2,1.7,0,.9.7,2.4.7,3.4,0,.2-.7,1.4-.7,1.6-.2,2.6.4,4.8.4,7s-.2,10.9.5,12.5c.9,2,0,1.2,0,2,0,.6.6,3.7.9,4.4.5,1.4,1.9,2.5,1.9,4.7,0,2.5,1.3,8.3,2.7,11.1.2.5,1.8,1.7,1.9,2.1,1.3,2.9,1.7,6,3.3,8.9,2.2,4.2,3.8,6.5,4.9,11s3.9,9,7.5,12.1c8.6,7.3,22,8.3,28.6,17.4-8.1,3.1-17.4.5-24.5-4.5-8.4-6-14.9-14.6-19.1-23.9-1.3-2.9-3-5.5-4.2-8.3-.7-1.7-1.8-4.4-1.6-5.7,0-.2-1.1-3.6-1.3-4.3-1.5-3.9-2.7-10-2.5-15.2,0-1.1-2.2-7-2.4-9.6-.3-3.7-1.2-7.3-1.2-11.4,0-2.3-.6-3.8-.7-5.9-.4-7.4-2-13.9-.8-21.2s.5-8.6-.7-14.1-1.2-11.7,2.7-16.7,9.1-5.4,7.8-9.2c0,0,0,0,0,0-.5-1.3-.4-3-1-4.9-1.5-5-3.2-11.1-2.8-16.6.1-1.5,0-1.5-.5-2.4-1.6-3.6,1.6-8,1.1-11.6s-5.3-9.1-6.8-13.7-2.1-10.5-.6-15.6c.6-1.8,1.4-3.6,1.7-5.5s0-3.7-1-5.2-2.4-1.1-2.4-1.9c0-.4,1.2-1,.6-2.1-.1-.2-.7-.2-.7-.9.6-8.3-3-15.7,0-24,.5-1.4,1.2-2.8,2.3-3.9s2.6-1.7,4.1-1.3Z"/>
        <path d="M57.1,172.8l-2.8,1.1-.5-2.4c-1.8.5-1.4-1-1.9-1.9-.2-.3-1.8-1.1-2.3-1.6-1-.9-4.2-5.3-4.8-6.6-1-1.9-1-4.5-1.7-6.2-.7-1.6-.9-3-1-4.9,0-2-.8-4.7-.8-6.4,0-.2.7-1.4.7-1.6,0-.4-.3-1-.3-1.5,0-.6,1.1-2.1,1.1-2.2,0-.3-.2-.7-.2-1,0-.8,2.3-2.2,2.6-3.3,1.7-.4.6,1.5.6,1.6,0,1.5.9,3.4,1,4.9,0,1.8-1.3,3.5,1,5.4v.5c-1.4,3.4.3,7.3,1.2,10.9.5,1.8.5,4.3,1.2,5.8.2.6,2.3,3.8,2.9,4.5.8.9,3.3,2.5,3.7,3.3.2.5.2,1.2.3,1.7h0Z"/>
        <path d="M220,261.8c-1.2.4-1.3-.4-1.7-.9-.1-.2-.5-.2-.6-.4-.2-.5-.1-1.4-.4-1.9,0-.2-.7-.2-.7-.9.2-2.7-.5-1.4-1-2.3-1.5-2.9-2.1-14.2-1.9-17.3.4-4.3.9-8.1,2.2-12,.2-.6,1.7-3.1,1.8-3.9,0-.4-.3-1.1-.2-1.2,0,0,1.4-.4,1.5-1.3.8-.2,1.4,2.4,1.4,3,0,.2-.6,1.4-.7,1.6s.2.7.2,1c-.7,3.3-2.5,8.9-1.3,11.4.3.6-1.3,2.8-1.4,3.3-.1,1.7,1.4,3,1.4,4.3,0,.2-.7,1.5-.7,1.6,0,1.9.7,4,.7,5.9s.8,4.5.8,6.4c0,.8.9,3.4.7,3.6h0Z"/>
        <path d="M301.6,258.4c0-1-.6-2.2-.6-3.2,0-.6,1.1-2.9,1.3-3.8,0-.3-.2-.6-.2-1,0-1,3.7-5.4,5.3-5.3,1.4.5.3,1.5.2,2.2-.5,2.9-1,6.1-1.3,8.8,0,.9.1,2.2,0,3,0,.2-.4.9-.9.7-1.3-.5-2.6-1.7-3.8-1.5h0Z"/>
        <path d="M294.7,251.7c-.1,0,0-.5-.1-.7-.2-.3-.9-.4-.8-1.4.2-2-.5-1.2-1-2.3-1-2.2.2-2.8.3-3.6,0-1.1-.7-2.1-.2-3.5.6-1.6,1.9-2.4,3.5-2.5l.9,2.1c-.7,1-.2,2.6-.3,3.6,0,.3-.6,1.9-.6,2.1,0,.9.6,2.1.6,2.9,0,.2-.6.5-.3,1.1s2,1.5,1.9,2.1c0,.6-1,1.1-1.6,1.1-.4,0-1.2-1-1.7-1.2-.3,0-.6.2-.7.1h0Z"/>
        <path d="M71.6,318.3c-1.9-.3-.8-1.2-.8-1.6-.1-1.6-.8-2.7-.8-3.9.2-2.2-1.2-7.5-1.5-10.3-.2-1.6-1.2-4.5-1.2-5.8,0-.4.8-1.1,1.3-1-.3,1.3,1.2,1.6,1.4,2,.7,1.4.5,4.3,1.2,5.8,0,.2.7.2.7.9-.2,3,.7,6.1-.2,9.1-.3.9-1.5,1.6-.2,2.8v2q.1,0,.1,0Z"/>
        <path d="M362.2,320.1l-1.9.4c0-1-.8-1-1.3-1.5-.4-.5-.6-1.5-.9-1.9-.3-.5-1.4-1.2-1.4-1.8,0-.2.4-.4.4-.6,0-.6-.4-1.3-.4-1.9,0-1.5.3-4,.9-5.7.1-.4.7-.8.8-1.2.2-.5-.7-.9,1.3-1,0,.9.5,1.8.5,2.7.1,2.3-.4,5,.5,7.5.1.3,1.3,1.9,1.5,2.2.5,1-.1,1.8,0,2.8h0Z"/>
        <path d="M332.3,278.6c0,.1-.5,0-.7.1-.5.4-.9,1.5-1.4,2v.5c.4.3,1.1.6,1.3.8.5,1-.3,2.5.3,4,0,.2.5.2.6.4.4.9.7,2.4-.5,2.9l-.5-1.4h-.7c.4-1.8-1.8-2.1-2.1-2.7-.3-.5-.9-4.2-1-4.9,0-.2.4-.4.4-.6,0-.7,0-1.8,0-2.5,0-.4.8-1,1-2.7,0-.8,2.3-2,3.2-1.9.5.8-.1,1.6-.1,1.8,0,.9,0,1.8,0,2.5s.4,1.6.3,1.7h0Z"/>
        <path d="M70.6,333.7c0,.1-.5,0-.7.1-.5.4-1,1.4-1.7,1.8-1.2.6-1.7-.5-2.1-.6-.5,0-1.3.7-1.3-.2.7-.2,1.3-.1,1.9-.6.7-.7,0-1.4,0-2,0-1,1-2.9,1.3-3.8,0-.3-.2-.6-.1-.7s.5,0,.7-.1c.9-.8-.1-2,1.7-1.8l.8,2.6c0,.9-.8,3-.8,3.7,0,.5.4,1.6.3,1.7h0Z"/>
        <path d="M373.1,331.6c-.8.3-1.1.2-1.8-.1-2-1-1.7-3.4-2.3-5.4,0-.2-.5-.2-.6-.4-.2-.6-.6-2.3-.6-2.9,0-.8,1-1.9,1.3-2.5.3-.7,0-1.3-.1-2,.9-.2.7,1.4.9,2.1,0,.2.9.6.9,1.9,0,1-.6.7-.1,2,.7,1.8,1,3.9,1.6,5.7.2.7.8.8.8,1.6h0Z"/>
        <path d="M340.7,285c.1,1,.5,2.1.6,3.2,0,.5.2,3,.2,3.5,0,.4-1.2,1-.6,2.1.1.3,1,.5,1.2.8,0,.2.2,2.4.7,3.4.2.5,2.1.6.7,2.1l-3.9-3-.2-1c.3-1,1.4-2.3.9-3.2-.2-.4-1.3-.5-1.3-1.3,0-.3.8-.9.8-1.2,0-.5.2-1.4.2-1.5,0-1.2-.8-2.9.7-3.9h0Z"/>
        <path d="M82.6,363.9c0,.2-.4.4-.4.6,0,.6.4,1.3.4,1.9,0,.2-.4.4-.4.6,0,1.5.9,3-.4,4.4-.9.2-1.5-3.3-1.5-4,0-.2.4-.4.4-.6,0-1.3-.8-1.7-.9-1.9-.3-1-1-4,.5-3.9,1.3.1,1.4,1.6,1.7,2.4,0,.2.6.2.6.4h0Z"/>
        <path d="M58.1,341.7c.8-2.1,2.2-3.5,3.8-4.8l2.6-1c.4,1.2.8,3.5-.4,4.1-.3.1-.7,0-1,.2-.2.1-.2.5-.4.6-1.2.5-1.9-.1-2-.1-.2,0-.2.5-.4.6-.6.2-1.5.2-2.2.4h0Z"/>
        <path d="M351.8,308.1c-.3.5-3.2-1.3-3.4-1.6-.5-.9.2-1.4.2-1.5,0-.6-.4-1.4-.4-1.9,0-.3.5-1.7.6-2.1.2-1,.5-1.9.5-2.9l1.3,1.5.2,1c-.8,1.9.1,3.3,0,5,0,.4,1.3,1.6,1,2.6h0Z"/>
        <path d="M197.1,240.6c-1.5.5-2-1.1-2-2.4,0-.6.6-1.9,0-3,1.3-1.3-.1-3.4,1.6-4.6,0,1.1.8,2.7.7,3.6,0,.3-.8.9-.8,1.2,0,.2.3.6.3,1.5,0,.6.4,1.3.4,1.9,0,.8-.4,1.1-.1,1.8h0Z"/>
        <path d="M78.5,358.4c-1.9.8-2.3-1.2-3.4-2.1.3-.8-1.2-2.2-1-2.6.3-.5,1.5.4,1.9.6,1.4,1.1,2.5,2.1,2.6,4h0Z"/>
        <path d="M53.2,245.2c1.1,2.9-.6,4.4-3.1,2.4-.6-1.1,2.2-2.5,3.1-2.4Z"/>
        <path d="M325.9,281.9c-.4,0-1.6-.7-1.7-.9-.1-.3,0-.7-.2-1-.1-.2-.5-.2-.6-.4-.2-.5-.2-1.2-.3-1.7l1.5-.3,1.4,4.3h0Z"/>
        <path d="M88.3,343.8l-1.5.3c-.5-1.5,0-2.2,1.6-2.3v2q0,0,0,0Z"/>
        <path d="M47.7,250.4l-.7-1.1c1.7-2.6,3.2.3.7,1.1Z"/>
        <polygon points="419.8 230.6 419.5 229.1 419.7 229 420.6 229.6 419.8 230.6"/>
        <rect x="114.5" y="470.9" width=".5" height="1" transform="translate(-89 31.1) rotate(-11.1)"/>
        <path d="M174.5,238.2c0,.3-.4.4-.5.1s.4-.4.5-.1Z"/>
        <path d="M411.8,359.1c0,.3-.4.4-.5.1s.4-.4.5-.1Z"/>
        <path d="M274.4,337.9c0-1.5-2.5-1.2-3-2.2-.2-.4,0-1.1-.3-1.5-.3-.6-2.3-.9-2-2.4l-1,.2c-.7-2.6-3.1-4.5-3.6-6.9l-.5-1.4c2.2-.8,2.7,1.6,3.6,3.1,2.2,2.4,5.2,5.4,6.7,8.3.2.4,1.5.4,1.4,1.8l-1.3,1Z"/>
        <path d="M256.9,349c0,0-1.3.5-1.5,0-.3-.5-.6-.7-.7-.9-1-1.6-1.4-3.9-2.1-5.6-1.4-3.7-1.8-4.1-1.6-8.3,0-.6-.6-1.8.3-2.3,1.4-.8,1.9,3,2,3.9.2,2.4-.2,3.8,1.2,6.3.8,1.5.8,3.4,1.5,5.2,0,0,1.2,1,.8,1.6h0Z"/>
        <path d="M264.3,322.8c-.9.3-1.7-.2-1.7-1.2.9-.3,1.7.2,1.7,1.2Z"/>
        <path d="M232.6,366.9l-1.6-.2-.5-2.4,1-.2c-.1-.7.3-1.7.5-2.4.3-.8,1.1-1.1,1.7-1.6v3.2c-.6,1-1.4,2.2-1.2,3.5h0Z"/>
      </g>
    </g>
  </g>
</svg>