<?xml version="1.0" encoding="UTF-8"?>
<svg id="Layer_2" xmlns="http://www.w3.org/2000/svg" version="1.1" viewBox="0 0 447.6 557.7">
  <!-- Generator: Adobe Illustrator 29.2.1, SVG Export Plug-In . SVG Version: 2.1.0 Build 116)  -->
  <g id="Layer_2-2">
    <g id="zYxrlZ.tif">
      <g>
        <path d="M254.6,287.3c.1-.2.6,0,.7-.2,1.3-1.5,2.2-2.9,3.5-4.2.3-.4,3.4-1.3,3.6-1.4.3-.3.4-1,.7-1.3s3.9-2.5,4.4-2.7c1.4-.7,3.3-1.1,4.6,0-.6.7-.8,1.8-1.4,2.4-.1.2-1.4.7-1.6.8-1.5,1.3-2.4,3.6-4,5.2-.3.3-1.6,0-1.8,1.2-.4,2.2-1.5,1.3-2.6,2.6s-5.2,9-5.5,10c-.1.2.2,1.6.2,1.8-.3,1.1-1.1,1.5-.2,2.9.8.8,2.7-1,3.1-2,.7-2,3.4-4.3,5.6-6,1-.7,3.5-2.6,4.6-3.1.5-.3,3.3-.6,3.5,0-.5.5-.6,1.5-1.1,1.9-.1.2-1.9.6-2.3,1s-.7,1.6-1.2,2.2-3,1.4-3.2,1.6c-.8.9-1.9,3.1-2.8,4.1s-1.5,2.3-2.3,3.3-2.4,3.9-2.7,4.8c-.1.2.3.5.2.7-.3,1.1-1.1,1.4-.2,2.9.5-.3,2.1-.5,2.4-.6,1-1.1,1-.7,1.8-1.2,1.6-1.1,3.3-3.1,5.1-4,1.4-.7,3.3-1.1,4.6,0-1.3.5-1.3,1.8-2,2.5s-3.5,1.6-4.1,2.3c-1,1.2-.6,2.7-1.5,3.7-.1.2-.6,0-.7.2-.8.9-3.5,5.9-3.9,6.9-.1.2.2.4.2.7,0,.7-.5,1.4.7,1.8.4-.7,1.3-1.2,1.9-1.5,2.9-1.9,6.1-4.9,9.8-5.4.4,0,2,0,2.1.3-.3.8-1.4,1-1.9,1.5-1.3,1-2,2.4-3,3.5s-2.7.9-3.5,3.2c-.1.2.3.5.2.7,0,0-1,.3-1.4,1.5-.1.2.3.5.2.7-.5,1.4-2.1,3.2-2.4,4.4,0,0,.4,2.3.4,2.8.4.3,1.7,0,2.1-.2,1-.5,2.5-1.6,3-2.3l3.3-.8c-.4.8-.7,1.5-1.5,2-1.6,1.4-3.9,3.9-5,5.5s-1.8,3.5-2.8,5c.1.6,1.9.1,2.3-.1,1.6-.9,3.5-2.6,5.5-1.7.8-.9,2.4-1.5,3.6-1.9,1.2.3.3,2.2-.2,2.9s-2.6,2.3-3.5,3.2c-2,1.9-2.9,4.2-4.2,5.6-.2.2-1.2.2-1.4.4-3.1,3.2-5.2,9.5-7.9,13.2-2.2,3-3.5,6.8-4.6,10.5-.6,2-1.8,3.5-2.2,4.9-.1.2.2,1.5.2,1.8-.2,1.4-1.1,3-1.3,4.4-.2,1.7.4,3.7.5,5.4,0,.9,1.4,2.5,1.7,3.5.5.4,1.3.6,1.7.9s0,.8.6.9c2.7.7,2.6,1.8,4.7,2.7.2.1.5-.3.7-.2.4.1.8.7,1.3.7.2,0,.7-.4,1.3.2l1-.9c-.2-2-.7-4.3-1.4-6.1s-1.2-1.5-1.5-3.9c-.1-.6-.4-1.8-.3-2.5.1-.4.7-.8.7-1.3,0-.2-.2-1.6-.2-1.8.5-1.8,2.6-4.1,3.4-6,.6-1.7.5-3.9,2-5.6s1,0,1.1-1c.3-1.1.2-2.1,1.2-3.3s.6,0,.7-.2c.9-.8,1.9-1.7,3.1-2,.6.7,1.3.2,1.6.3.4.1.8.6,1.3.7.2.1.5-.3.7-.2,1.3.5,2.6,1.7,3.9,2.1.2.1.5-.3.7-.2.3,0,.5.5.6.4s.2-.5.4-.6c1-.6,2.8-.2,3.2-1.6,0-.2-.2-1.6-.2-1.8.3-1.2,1.6-2.7,2.1-3.9,2.3-5,4.9-10.5,5.3-15.8.2-3.2,1.7-5.4,2.3-8.4,0,0-.5-1.9-.3-2.5.3-.8,1.3-1.8,1.4-2.6.1-.3-.6-1.5-.5-2,0-2.4,3.3-5.7,2-8.3-.9-1.9-1.9-7.1-1.3-9.5.2-.7.8-1.4.7-2.4,0-1.1-2.3-3.3-2.1-4.5.1-.4.7-.8.7-1.3,0-.4-.7-1.6-.5-2,.3-1.2.5-1.8-.2-3.2-2.3-4.4-4.3-9-5.9-14-1.4-.8-2.3-4.9-3-5.7-.5-.5-2.7-1.3-2.8-1.6l1.7-1.3,2.1,2.3c1.6-1,2.6.8,3.9,1.1.3.1,1.8-.4,1.9-.9s-.4-1-.4-1.4c0-.6.3-1.9.3-2.6,0-3.3-3.5-7.7-2.3-11.2l-.9-.5c.1-2.8-.6-5.7-.8-8.7-.1-2.3-.7-3.8,0-6.2.4-1.6.8-3.3,1.1-5.1,0-.2-.2-1.6-.2-1.8.4-1.4,1.2-2.1,2.7-2.2l.4.3c.1.6,1,1.2,1.3,1.7,1.5,2.4,1.1,3.8,1.4,6.1.1.5.4,1.7.9,1.9,1,.2,1.4-1.2,1.7-1.6s1.6-1,1.8-1.2c.3-.4.7-1.4.9-1.5,0,0,1,.4,1.6.3-.7.7.1,1.6,0,2-.4,1.5-2.4,3.6-2.9,5.1-.1.2.2,1.6.2,1.8-.4,1.5-1.6,3.3-1.6,4.8,0,.3.8,2.9.8,3.1,1,1,1.8-.9,2.2-1.3s.6,0,.7-.2c1-1.2,1.8-3.2,2-4.6l3.3-1.3c.4,1-.1,2-.2,2.9-1.5.3-.6,2.2-2.6,2.6l-.5.9c.2,1.8-.7,4-1.4,5.5-.4.9-1.3,1.8-1.4,2.6-.2.5,1,2.4.7,3.8-.1.4.8.5.7,1.3.4.1.9-1.1,1.2-1.4s-.1-1.4-.2-1.8l.5-.9c1.2-.6,2.6-1.2,3.4-2.1.3-.3.4-1,.7-1.3s1.1-.2,1.4-.4c.2-.2.2-.6.4-.6s.4.3.6.4c1.1,0,2.6-1.4,3.5-.3.9.9,0,3-.7,3.8-.2.2-1.2.2-1.4.4-.7.8-3.7,4.4-4,5.2-.1.2.3.5.2.7-.4,1-1.2,1.9-1.6,2.8.4.3,1.4.4,1.6,0l1.5-1.8c0,0,.4.3.6.4.4,0,1-.4,1.4-.4,1.2,0,1.9.7,2.8,1,0,0,1.7-.4,1.4,1.2-.2.9-1.1,1.3-1.6,1.9-1.1,1.2-4.5,3.3-4.9,4.7-.2.5.4,1-.9,1.7.4,1-.7,1.9-1,2.8-.1.2.4.7-.2,1.3-1.1-1-1.9-.9-3.2-.4.1.6.5,1.4.5,2,.1,1.4.7,1.9.5,3.1-.2,2.7.8,5.8.4,7.5-.1.4,1,7,1.2,8.1.5,2.8.9,2.8.2,5.8-.2.5,1,1.9.2,2.7l.9.3c1-1.3,1.4-3.1,2.4-4.4.1-.2.6,0,.7-.2.3-.4.4-1,.7-1.3s1.5-.4,2-.5c0,0,.2-.4.2-.4.8-.3,3.4-1.1,4-1.2.8,0,1.2.4,1.8.8-.5,1.4-1.7,2.3-3,2.5l-.5.9.2,1.8c-2.6,1.7-4.2,5-5,7.9-.3.8-.6,1.8-.7,2.4s.4,1,.4,1.4c-.3,1.2-2.3,1.2-3,2.3.2,1,.5,2.2.5,3.1.2,2.8,0,5.4.1,7.9,0,2,.6,1.6.7,1.8,0,0-.2.6-.4.6-.3.3-1,0-1.1,1-.1.3.5,2.5.5,3.1,0,4.3-1.4,9.8-1.1,14.1.2,2.1.4,1-.1,3.3-.4,1.7.4,3.2.3,4.7,0,1.4.3.4.2,1.8-.2,2.1.9,5.2.9,5.6-1.4,6,.6,11.2-.4,17.1,1.9,1.3,1.1,4.2,1.2,6.1,0,1.1,1.1,1.3.9,3.4-.1,1.9-.7,6.1.4,7.9.3.5,1.1,0,0,1.6,1.2,1,1.4,4.5,1.6,6.3s-.2,3.2-.2,4.4,1,1.8,2.2,1.2c0-.4-.2-1.5-.2-1.8.1-.9.8-2.1,1-2.8,0,0-.5-1.9-.3-2.5.3-.9,4.2-7.9,4.8-8.6s1.5-.7,1.6-.8c.7-.8,1.2-2.7,1.9-3.5s1.7-.6,1.9-1.5c1.8.6,1.5,2.1.4,3.4s-1.5.7-1.6.8l-1.9,2.3c-.9,1.4-1.7,3.3-2.7,4.8l.2,3.2c1-.2,1.9-.9,2.7-.2.9-1.1,2.7-2.9,4.3-1.6-.5.5-.7,1.4-1.1,1.9-1.4,1.7-2.9,4.6-4.5,6.1-.6.5-1.9.7-2.1,1.7,0,.4.6,1.7.5,2-.3.9-1.5,1.8.2,2.7.2-1,1.4-.8,1.7-1.1.5-.6,1.3-1.7,1.9-2.3,1.4-1.6,1.9-.2,2.2,1.2l-1.8,1.2c.9,1.7-2.1,2.5-2.3,3.3,0,.6.6,2.9.5,3.1,0,.4-.5.6-.5.9,0,1,.4,2-.5,2.9l1.5,1.3c0-.7.8-.6.9-.8.4-.5.6-1.3.9-1.7s1.7-.6,1.9-1.5c1.7.6.3,2.9-.5,4-.6.8-1.6,1-1,2.8-2.3,0-1.9,2.2-2.1,2.8-.1.2-.6,0-.7.2-.9.9,0,1.7,0,2.3-.3,1.8-1.3.6-1.4.6,0,0-.2.5-.4.6-.1.2-.6,0-.7.2-.4.5-1.2,2-1.4,2.6-.1.2.3.5.2.7-.1.3-.5.5-.5.9-.1.4.9,2.6.9,3.4.3,3,1.9,5.8,2.5,8.8,1,4.7,2.9,9.4,4.6,13.6.9,2.2,1.8,4.5,1.8,6.4,0,1.6,1.2,2.5,1.7,3.5.8,1.6.5,3.1,2.2,4.9.5.4.8.9,1.4,1.2.9.2,1.4-1.3,2.2-1.3l-.2-.7,2.3-1c1.3-1.5.2-2.1.1-3.3,0-1.6,1-3,1.3-4.4,0-.2-.7-3.6-.5-4.2.7-3-.9-7.7-.8-10.6,0-.8-.2-2.3-.3-3.5s-1.3-2.5-1.4-2.7c0,0,.6-.7.6-1,.3-1.4-1-6.3-.8-6.7.8-3.6-.7-9-.7-12.9,0-.4-.2-1.6-.2-1.8.2-.6,1.4-2.1,1.4-2.4,0,0-.5-.2-.6-.4-.6-.9-.3-3.1-1.4-2.5-.3-.9-2-2.6-1.7-3.5.2-.7,1-1.5,1.2-2.2.2-.5-.4-2.3-.3-2.5.6-2.4.3-4.1.3-6.7s-.6-5.1-.4-7.5c0-1.4-.3-.4-.2-1.8.2-2.4,0-5-.4-7.5s-.7-4.9-.5-7.1c0-.8.5-1.8,0-2.6-.2-.1-.6-.2-.6-.4,0-.2,1.2-1.7,1.4-2.4.1-.3-.5-2.5-.5-3.1,0-2.8.4-6.4,1.1-9,0-.2-.9-3.3-.7-3.8.2-.5.8-1.1.9-1.7,0-.2-.4-1-.4-1.4.9-3.8,1-8.5,1.4-12.8.3-3.9.9-8.5.5-12.2-.3-2.2.6-9.4-.1-10.6-.2-.2-.6-.2-.6-.4,0,0,.6-.7.6-1,.2-.5-1.8-8.2-2.1-9.6-.5-2.5-.6-6.6-1.7-8.7-1.4-2.2.6-5.5-.7-7.8-.7-1.1-.2-.7-.2-2.1,0-4-2.7-8.3-1.4-11.8l-.9-.5c1.1-2.4-1.1-6.2-1.1-8.2,0-1.4-1.3-3.7-1.3-5.8,0-1.7-2.2-3.9-2.2-6.3,0-3.8-3.3-8.8-3.8-13.4,0-.6-2.1-8.1-2.4-8.5-1.3-1.2-2-1.5-2-3.1,0-1.4-2.2-2-1.1-3.2-1.9-1.8-3.7-4.9-6.7-4.8,0-.6-.6-.7-.6-.9-.5-1-.2-2.8-.5-3.1-.6-.5-2-.9-2.6-1.4-.9-.8-2.5-4.1-3.1-4.6-1.5-1.3-3.7-2.7-5.2-4s-1.1-2.2-1.4-2.5c-.5-.4-1.3-.6-1.7-.9s-1.1-2.1-1.4-2.5c-.3-.3-1-.4-1.3-.7s-1.3-3.4-1.4-3.6c-2.1-2-1.5-2.9-3.5-4.8-.5-.4-1.7-3.7-1.8-3.9-.6-.5-2-.9-2.6-1.4s-.2-1.2-.4-1.4c-.9-.9-2.1-1.8-3-2.8-.3-.3-.5-2.4-.7-2.7-.5-.5-1.6-.7-2.2-1.2s-2-2.6-2.8-3.2c-1.9-1.5-3.6-.9-3.3-4.1-1.5-.2-1.4-1.8-1.7-2.1s-1.3-.5-1.7-.9,0-.6-.2-.7c-1.2-.9-3.3-1.5-4.4-2.4s-2-3.9-2.3-4.1c-1.7.5-3-.7-4.6-.9-.4-1-1.5-1.3-1.5-2.9,0,0,.3-.3.2-.4,0-.2-.3-.5-.2-.7.1-.4,1.4-2.7,1.7-3.1.8-.9,3,0,3.8.7.2.1.7,1.4.8,1.6l1.9,1.6c1.8,1.7,9,9.3,10.5,9.8,2.1.6,2.7,1.3,3.9,3.3,2.1,3.4,6.1,6.7,8.9,9.5.9.9,1.5,1.1,2.3,1.9,0,0,.6.9.6.9.7,1.2.7,2.8-.2,3.9,1-.3,1.5.5,2.2.7s2.5,0,3,.6c.9,1.7,2.8,3,4.2,4.6,2.2,2.5,4,5.1,6.1,7.4s4.1,4.3,5.9,6.7c1.6,2.3,4.3,4.4,5.6,7.1,1.8,3.5,4.4,7.4,7.3,10.2.6.5-.2,1.6,0,1.6,0,.2,1.7,1.9,1.7,2.9,0,.4-.4,1.6-.4,1.7,0,.2,1.2.5,1.5.9.6.5.5,2.9.6,3.4.3,2.1,5.4,10,5,11.3,0,.6-.6,1.3-.5,2,0,1.5,2.3,3.5,2.1,4.5-.5,2,.8,8.7,2.1,9.9.5.4.3,9.7.8,10.6.9,1.4.2,2.4.3,3,0,.3,1.2.3,1.2,2,0,1.1,1.6,2.8,1.4,3.6-.1.4-.7.8-.7,1.3-.3,1.1,1,4.6.7,6-.1.4-.9,1.4-.9,1.5s1.8,2.3,1.6,3.4c-.9,3.7,0,5.7.5,9.3.3,2.7.4,11.6,1.7,13.8.6.9.2,1.3.4,2.8s1.6,9.9,1.3,10.9c-.2.7-1,1.5-1.2,2.2s.9,5.2.7,6c-.2.5-.8,1.1-.9,1.7s.6,1.7.5,2c-.4,1.6-1.6,3.1-2,4.6,0,.4.7,1.6.5,2-.8,3.8-.5,7.6-1.7,11.3l.9.5c-.7.6-.1,1.1-.2,1.3-.5,2.2.3.9.3,2.5,0,1.8,0,4.4,0,6.2,0,3.3-.3,6.8-1.1,10.2-.1.4.8,2.3.7,2.7-.6,2.4,1.4,6.7.8,8.9-.2.5-.6,1-.9,1.5l1.3.7c-.9,1.4-1.3,2.2-.6,3.7.8,1.6,1.6,5.1,1.3,7.3,0,.6-.9.6.5,1.1-.6,1.2-1.9,1.6-2.2,3-.1.2.2.4.2.7-.1,1.7.7,3.5.7,4.9,0,.3-.5.5-.4.6s.8.3,1,.6c1,1,.1,5.6,1.5,6l-.5.9c1.8,1.5.5,10.1,1.3,11.5,1.2,1.9,1.5,5.2.9,8.1-.6,2.4.6,4.4,0,7.2,0,.4,1,6.1.8,6.7-.6,2.6-1,5.4-1.6,8.2,0,.4.6,1.7.5,2-.2,1-1.6,2.4-1.9,3.5-.1.2.2,1.6.2,1.8-.3,1.2-1.3,2-2.4,1.3l-.3.4c0,0,1,.6,1,.6-.5.5-.7,1.4-1.1,1.9s-1.4.6-1.6.8c-.6.7-1.5,2.1-2.1,2.8s-2.3.7-2.4.6c-.7-.2-1.4-.9-2.2-1.2-.2-.1-1.4-.4-2-.5-.2-.1-.5.3-.7.2-1.7-.5-1.2-1.3-1.7-2.1,0,0-.4-.2-.4-.2-.4-.6-.8-.9-.9-1,0,0,.5-1.9.5-2,0,0-.9-.4-1-1.3-.2-2.1-.1-3-1.7-4.6-.4-.3-.4-5.6-1.7-7.2-1-1.3.2-1.4-.7-2.7-1.3-1.7-1.5-5.2-2.8-7.2-.9-1.4.1-2-.5-3.1-1.8-3.2-1.8-2-2.1-5.9,0-1-.8-1.6-.9-1.9-3-8.3-4.6-16.2-6-24.5-.6-3.5-2.5-6.6-1.8-10.1.4-1.5-1.5-4.1-1.3-5.8.4-4.2,0-5.3-.5-9.3-.3-2.9,0-6-.3-8.6s-1.4-3.8-1.5-5.3.9-2.4,0-3.6c-.2-.3-1-5.6-.9-5.9.5-2.2-.3-.9-.3-2.5,0-.8.2-2.6.7-3.3l-.9-.5c.3-1.1.4-2.2.7-3.3.2-.7-2.1-2.8-1.8-3.9.6-2.7.1-1.7,0-4-.2-2.3.4-5.8.6-8.1.1-1.7.2-3.1.4-4.9.3-1.9,0-2.2-.4-3.9-.1-.5.3-1.2-.2-1.8-.6-.9-1,.3-1.3.7-1.4,2.5-2,5.4-3.7,7.6-1.9,2.4-2.8,4.3-3.7,7.6-.6,2.5-2.1,3.9-2.5,5.4-.8,4.3-2.5,7-3.8,10.9-1.3,3.9-5.3,7.7-6.5,11.7-.4,1.5-1.3,2.3-2.6,3.7-.2.2-1.2.2-1.4.4-.9.9-1.6,3.4-2.4,4.4s-2.1.2-2.3,1c-.7,0-3.9.9-4.1.8-1-.2-2.4-1.5-3.5-1.9-.2-.1-.5.3-.7.2-1.6-.4-3.8-1.7-4.7-2.7s-1.8,0-2.3,0c-.7-.2-4.6-2.4-5.1-2.9s0-.6-.2-.7c-.7-.6-1.7-1.4-2.1-2.3-.9-1.7-.2-2.1-1.8-3.9-.2-.2-.4-3.4-.4-3.9.2-2.4,0-4.7.5-7.1.2-.7-.5-3.8-.3-4.7s.7-.8.7-1.3c0-.2-.2-1.6-.2-1.8.6-1.8,2.6-2.5,2.8-3,.1-.8.1-1.9,1-2.8l-.4-2.8-1.7-.4-.5.9c-1.3-1.5-4.6,1.5-6.1,1.2-4.5-1-4.5.9-8,2.7-.9.4-3.5,1.4-3.9.9l-.5.9-1.3-.7c-.2,1.6-2.2,1.2-2.6,1.7s-.4,1-.7,1.3c-.7.8-5.1.6-6.5,1.5-1.4.9-3.7.3-5.8,1.3-1.3.6-2.8,1-4.3,1.6-2.4,1-4.1,0-6.6,0-1.8,0-2.6.2-4.4-.2-.9-.2-1.9-.5-2.6-.3l-.4-.3c-.4-.9-1-1.8-2-2.2l-.7,1.3c-1.2-.5-1.7-1.9-3-2.2,0,0-2.8.7-3.1.8-1.2.8-.8.1-2.1.2-2.3.1-1.5,1.1-4.7.3-.9-.2-2.9.6-3.2.5-.8-.1-1.8-1.3-2.6-1.4-.6,0-1.3,1-2.3,1-1.4.1-2.1-.9-3.3-1.2-.7-.2-4.4.4-5.4.5-.2-.1,0-.6-.2-.7-1.3-1.1-3.4-1.3-3.9-3.3-.7.2-1.1.2-1.3,1-.3.2-.3-.6-.4-.7-.5-.5-.9,0-1.1,0-.8-.1-3.5-3.3-3.4-4.5,0-.3.5-.5.4-.6,0,0-1.6-.9-1.9-1.1-.2-.1-.5.3-.7.2-.4-.2-1.9-1-1.9-1.1,0,0,.6-1.6-.1-2.3-1.5-1.5-3-2.5-4.2-4.6s-3.2-3.6-4.6-6c-.2-.3-.2-1.2-.4-1.4-2.3-2.3-4.7-8.4-6.1-11.3-2.3-4.7-4.1-9.5-6.3-14.2-.9-2.1-.7-4.8-1.9-6.7-.2-.2-.6-.2-.6-.4s.3-.4.4-.6c0-.5-.5-1.9-.3-2.5s.8-1.1.9-1.7c.1-.2-.2-1.6-.2-1.8.2-.5.8-1.8,1.2-2.2s.6,0,.7-.2c.8-1,1.3-1.4,2.3-2.1,1.3-.9,2.5-1.7,3.7-2.5.9-.6,2-1.9,3.1-2,1.6-.1,3.8.6,5.6.2,1.4.8,2.7.6,4.2,1.7.4.3,1.7,2,2.1,2.3,1.1.9,2.3,1,3.5,1.4,0-1.4,1.6-1.1,1.9-1.5,1.3-1.2,1.8-1.7,3.2-2.8,2-1.4,4-4,6.2-5.1,1-.5,2.4-.4,3.2-1.6,0-.2-.7-1.6-.9-1.9-.2-.2-.6-.2-.9-.5-.5-.4-.3-2.7-1.2-3-1.9.9-3.9-2.9-4.5-3-2.5-.6-5.8-3.5-7.8-5.4-2.5-2.5-5.9-5.7-7.6-8.7-.3-.5-1-2.7-1.2-3-3-3-3.5-5.9-6.5-8.7-3-2.9-4.4-7.1-6.4-10.9-.7-1.4-2.7-3-2.7-4.7,0-.8,0-1.3-.6-2.4-2.2-3.6-3.8-7.4-5.7-11.1-.5-1.1-.6-2.9-1.2-4-.3-.8-.4-1-1.3-1.2-.4,1-1.3,2-1.6,2.8-1.1,3.1-2.8,7.2-3.8,11-.7,2.5-2,4.4-2.7,7-.4,1.4-.9,2.9-1.3,4.4-.6,2.2-3.6,9.4-5.1,11.4-5.9,7.5-10.5,15.1-17.8,21.5-2,1.8-4.3,3.6-7,3.8s-5.7-1.6-5.6-4.3c0-2.8,3.1-4.4,5.5-5.9,9.8-5.5,18.5-19,22.6-29.3.8-2.1,2.8-3.3,3.3-5,.1-.2-.3-.5-.2-.7,0-.7,1.3-1-.3-1.5-.3,1.2-1.6,1.4-2.2,2-1.6,1.4-3.8,5.1-4.9,5.8-.5.3-1.5.3-2,.5-.8.5-1.5,1.8-2.3,2.1-.3.2-1.2.4-1.7.5-1.1.2-.7.2-1-.8,1.3-.2,1.6-1.3,2.3-2.1s1,.2.5-.9c4.2-2.1,6.5-6.7,10.4-9.5l.2-2.2.5-.9c4.4-3.9,7-10.6,8.9-16,.6-1.8,1.5-4,2-5.6.1-.4-.4-1.9.2-2.4,0-.2-1.1,0-1.2.2-.9,1.1-1.6,3.6-2.6,4.8s-2.6,4.2-4.5,6.1c-.1.2-1.5.7-1.6.8-.6.7-.9,2-1.4,2.6s-1.2.2-1.4.4c-.5.5-.8,1.7-1.2,2.2s-1.7.4-2,.5c-.3.3-.4,1-.7,1.3s-1.7.9-1.9.9c-.6,0-1.3-1-1.1-1.5.1-.8,1.4-.5,1.6-.8.5-.6.8-1.9,1.4-2.6s1.6-1,1.8-1.2c2.5-2.3,3.7-5.2,5.8-7.5,2.1-2.2,3.9-5.7,5.7-8.1,1.7-2.3,1.1-3.1,1.6-4.8.6-2.1,2.5-4.2,3.2-6.7.6-2.1.9-4.5,1.4-6.6.6-2.5,1-2.6,2.4-4.4.5-.6,1.3-2.2.6-2.7s-.7-.3-.9-.5c-.9-.9-1.1-1-1.9-1.6s-.3-.8-1.9-1.6c-.2-.1,0-.6-.2-.7-.8-.7-2.1-1.2-2.2-2.7l.3-.4c-.1-.8-.3-1.6-.3-2.5l1.4-2.4c.6.5.9.1,1.3.2,1.2.1,3.7,0,4.4.2,1.5.4,2.4,1.8,4.2,1.7,1.1,0,4.1-1.5,4.7-1.4,1.2.3,1.6.7,3,.6,2.3-.3,2.9-1.5,4.5-2.4.6-.3,2.4-.5,2.7-.7,2.9-2.9,2.7-1.2,4.8-2.5,1.3-.7,3.5-2.9,4.6-4.2s2.7-2.8,3.9-4c1-1.1,1.8-2.9,2.6-3.7.1-.2,2.2-1.3,2.8-1.9,1.6-1.6,2.4-2.3,3.9-4s1.5-.7,1.6-.8c1.7-2.1,2.5-5.4,4.8-7.5,1-.9,1.7-3,3-4.5s.6-2.7,2-4.6,2.5-4.2,3.5-5.4,2-4.6,3.4-6c.4-.5.7-1.4,1.1-1.9-.5-.2-1-.7-1.5-.9-.2-.1-.5.3-.7.2-2.3-.7-7.3-1.9-8.9-3.2-.2-.1,0-.6-.2-.7-1.3-1-3.8-1.8-4.7-2.7-.2-.1-1-2.4-1.2-3,0,0-.4-.2-.4-.2-.7-1.6-1.5-4.8,1.2-3.3,1,.6,1,1.1,1,1.1,2.3,1.7,4.3,1.7,6.5,2.5,2.9,1,5.8,2.8,8.7,3.7.5.2,2.3-.4,2.5-.3,2.1.5,2.8-.2,4.7-.3,1.4,0,1.4-.5,2.6-1.1,1.6-.7,3.7-.5,4.3-.7,0,0,.2-.5.4-.6.9-.6.8-.1,1.8-1.2.3-.3,3.2-1,2.8-2.1-.2-.7-1.7-.4-1.7-.4-1.6-.6-3.2-2.1-4.8-2.6-.9-.4-2.3-.4-3.1-.5-1-.3-5.6-2.9-6.5-3.6s0-.6-.2-.7c-1-.8-3.3-2.3-3.2-3.8,0-.3.5-.5.4-.6-.3-.9-2.8-1.8-3.4-2.5-.3-.3,0-1.6-1.1-1.7l.5-2c.6.5,1.3,0,1.7.4.2.1,0,.6.2.7,2.1,1.7,4.6,2.8,6.7,4.3,3.2,2.3,3.8.8,5.5,1.4.7.2,2.4,1.2,3.1,1.7,4,2.9,6.2,3.7,10.5,2.4s7.9-2.7,9.7-6.6c1.7-3.9,1-8.5-.8-12.3s-4.4-7.1-7-10.6c-1.4-2-2.9-4.2-3.4-6.7s.2-5.3,2.3-6.7c1.9-1.4,4.6-1.1,6.7,0,2.1,1.1,3.7,3,5.2,4.7,3.8,4.8,7.3,10,9.4,15.7,2.1,5.8,2.5,12.2.5,18.1-2.1,6.1-6.8,10.9-12.1,14.4-5.3,3.5-9.7,4.1-14.3,6.7s-5.5,5.4-8.1,8.6c-.5.6-1.3,2.2-.6,2.7s1.3.5,1.7.9c2.3,1.9,5,3.3,7.1,5.6.2.2.7,1.5.8,1.6,1.3,1.1,4,2.4,5,3.3.2.2.2,1.2.4,1.4,1.6,1.6,3.6,2.4,5.2,4,1.9,1.8,5.6,3.6,8.1,5.7,4,3.2,9.4,5.3,13.4,8.5,2.8,2.3,7.7,2,10.2,6.2,2.7-.4,2.8,1.3,4.1,2.8,1,1.3,2.6,2.2,3.9,3.3s.1.5.2.7c.2.1.4.2.4.2,1,1.8-1.5,2.8-2.1,4.2-.6.3-2.6,1.5-3.3,1.3-.4,0-.6-.5-.9-.5-1.1,0-2,.4-3-.6-.2-.1,0-.8-.6-.9-.2-.1-.5.3-.7.2-1.2-.3-2.6-1.7-3.9-2.1l-2.3,1c-.8-.5-3.1.4-3.5.3-.4,0-.9-.6-1-.6-.6.2-1.1,1.3-2.7,1.4s-3.2,2.1-4.9,1.2c.5-.6.1-1.1.4-1.7.9-2.1,1.5-1.9,2.8-3,.2-.2.2-.7.5-.9,1.1-.8,1.4-.7,2.4-.6,1.7,0,1,0,1.7-.5.6-.4,1.9-.4,2.7-.7l.3-.4c-.4-1.2,0-2.4.6-3.4-1.2.3-1.7-.6-2.6-.9-1.4-.4-3-.2-4.4-1.3s-2.9-1.3-4.4-2.4c-.7-.6-1.2-2.2-2.6-2.6-1.2-.4-7-3.4-8.2-4.6-.2-.1-.7-1.5-.8-1.6-.8-.6-2.3-1-3.1-1.7s-1.1-2.2-1.4-2.5c-.9-.8-3.7-2.2-4.4-2.4-1.9-.7-4.9-4.1-6.7-5.4-2.4-1.6-6.2-2.5-7.3-5.1l-.9-.5c-.6.1-3,.1-3.4.6s-1.4,2.3-1.7,3.1c-1.1,2.5-1.3,2.6-2.6,4.8-2.5,3.9-3,6.2-6.4,9.5-2.8,2.6-5.4,5.3-7.5,8.4-1.1,1.7-3.1,5.5-4.3,6.7-1,1.1-.8-.6-1.9,2.3-.8,2.1-3,4.5-3.6,6.5-.1.2.2,1.5.2,1.8,0,.3-.5.5-.5.9s.7,2.8,1.4,2.7c.7-.8.2-1.9.9-2.6.2-.2,1,0,1.1-1,.7-3.3,2.5-4.5,4.1-7.4,1.6,0,2.2-2.2,3.9-2-.8,1.3-1.4,2.9-2.3,4.1-1.1,1.6-1.3,1-1.9,3.5-.4,1.2-1.3,1.4-1.3,1.5-.1.2.3.5.2.7-.1.4-.7.8-.7,1.3s.3.5.2.7c-.3,1.2-.5,1.8-.5,3.1-.3,3.6,1,6.4.3,9.8-.2.5,1.2,2.8,1.4,2.7l.9-2.6c-1-2.3,2-4.1,2.2-4.9,0-.4-.6-1.7-.5-2,.2-.5.8-1.1.9-1.7.1-.2-.4-.6,0-1.1,2.4-2.4,2.1-5.1,4.1-7.4.1-.2,1.4-.6,1.6-.8.4-.5-.2-1.2.4-1.7l1.3.7c-.2.5-.7,1-.9,1.5-.1.2,0,2.1-.2,2.2-.7,2-2.6,3.1-3.3,5-.3.7-.5,1.5-.7,2.4-.5,1.3-1.7,3.4-2,4.6-.2.7.6,3.1-.6,4.2.5,3.1.8,5.4,2,8.2.6,1.5.3,3,2.3,3.5.7-.6.4-1.7.4-1.7.4-.9,1.2-1.7,1.4-2.6.1-.2-.2-1.6-.2-1.8,1-3,2.2-6.5,3.5-9.4.4-1,1.6-3.3,2.1-3.9s1.9-.7,1.9-1.5l1.7.9c-.1.8-1.1.7-1.3,1.2-.2.7-.3,1.2-.5,2-.7,2.3-2.4,5.7-3.2,7.9-.7,2.1-1.7,4.5-2.1,6.8-.4,2.4.2,4.9,0,7.2-.7,5.3.6,9.2,2.6,14.2.6.5,1.1,1.2,1.6,1.7.5.4.6.2,1.1,0,0-.7.4-1.4.5-2,.3-1.4,1-2.3,1.2-3.3,0,0,0-1.3,0-2.3.3-2.1.6-6.6,1.3-8.3s2.1-4.2,2.9-5.1,1.1-.9,1.7-.5c.3,1.5.4,3.3-.5,4.5.7,1.6-.5,2.8-.9,4.6-.2,1,0,3.8-.2,4.4-.4,1.2-1.3,2.5-1.7,4.2-.1.4.8,2.3.7,2.7-.5,2-.2,6,.1,7.9.2,1.1,2.3,8.7,2.6,9.1s1.1.5,1.5.9c.2-.5.7-1,.9-1.5.1-.2-.2-1.6-.2-1.8.3-.9,1.1-1.6,1-2.8,0-.6-.6-2.9-.5-3.1.2-.9,1.1-2.5,1.5-3.7,1.5-4.6,2.1-9,5.2-12.4-.4-.8.7-4.4.9-4.6s.6,0,.7-.2c.5-.6.8-1.7,1.4-2.4,1.6.6.2,1.1,0,2-.3,1.6-1.3,4.4-2.7,5.8.6,4.1-2,8-2.7,12.1-.2,1.5-.6,3.2,1.2,3.8.3-2.6,3.8-1.5,4.6-2.2.3-.3,1-1.6,1.2-2.2.6-1.7.2-4.1,2.6-4.8v-1.1c.7,0,1.3-.8,1.4-1.5.5-1.3,1.1-3.4,1.8-5.2.1-.2-.3-.5-.2-.7.6-2,1.7-2,3.2-2.8.4-.2.9-1.2,1.9-.4-.9.8-.3,2.4-.5,2.9-.3.8-1.8,3.6-2.4,4.4-.1.2-.6,0-.7.2-1.3,1.5-1.2,4.7-1.4,6.6-2.2.4-.9,3.3-1.3,4.4-.6,2.1-2.1,4.4-2.5,6.5-.2,1.4.2,5.4,0,6.2-.3,1.2-1.5,1.8-.5,3.4,1.2,1.9,0,4.4,1,6.2.6.9.4,2,.4,2.8,0,.9,1.1,1.5,1.1,2.6,1.1-.2.9-.1,1.1-1,.2-.7.2-1.6.2-1.9.9-4.1,2.7-8.6,3-12.5.2-2.1-.5-3.8,0-6.2.1-.8.6-4.2.9-4.6,0,0,1-.3,1.4-1.5,1-3.7,3-6.2,4.2-9.6.6-1.7,1.7-3.8,2.3-6.1.1-.8.4-1.6.7-2.4.9,0,.8-.8,1.1-1,.1-.2.6,0,.7-.2.2-.2.2-.6.4-.6,0,0,1.3.5,1.7.4,1,1-1,4.6-1.7,5.6-2.6,3.3-4.8,8.9-6.1,13.1-.6,1.8-1.3,3.5-1.8,5.2-.8,2.5-1.3,5.7-1.9,8.6,0,.4.7,1.6.5,2-.5,2.2-.7,4.1-.7,6.4,0,1.6.9,2.6.9,3.4.1,2.5,1.5,6.5,2.4,8.5.5,1,.2,2.5,1.5,3.1,1-.2-.7-3.5-.6-4.1.4-1.7.5-1.9.4-3.7s-.4-3.6-.5-5.4c0-3.6,1.3-5.9,2.2-9,.5-1.8.3-1,1.2-2.2,1.2-1.4,1.8-4,2.9-5.1.1-.2.8,0,.9-.6s-.6-2.2-.5-3.1c.2-1.7,1.5-3.8,2-5.6.3-1.1.8-3.5,1.3-4.4.5-1,1.8-3.6,2.4-4.4s1.8-.8,2.3-1c.3-.2.1-1.1,1.2-.2.7-1.3.6-2.7,1.6-3.9s.6,0,.7-.2c.2-.2.2-.6.5-.9s1.5-.6,1.9-.4c-1,1.5-1.8,3.5-2.8,5-1.3,1.8-6.1,9.9-6.7,12.1-1.1,3.6-4.2,7.7-3.9,12-2.3,1.7-1.7,6-1.9,8.6-.2,2.1-1.5,9.2-.6,10.8.4.6.6,0,.4,1.7-.2,2.6.9,7.5,1.7,9.7.5,1.4.4,3.4.9,4.5.2.1.9.9,1.1,1.2.3.6,1,3,1.6,3.2.7.2.9-.1.8-1-.4-2.6-1.8-5.5-2.3-8.1-.7-3.3-.7-7.5-.6-11.1,0-2.1.3-1.8.8-3.5.1-.4-.2-2.3,0-2.8.3-2.7,1.6-4.9,2.3-7.2.2-.7-.5-1.9.5-3.1,1.7-2,4.1-7,4.8-9.8.3-1.2,1.2-1.3,1.4-1.5,2-2.5,3.5-6,5.7-8.1.3-.3,1.6,0,1.7-1.1l1.1,1.2c-1.8,2.3-3.1,6.8-4.9,8.9s-.9,3.9-2.7,5.8c-.1.2-.8,0-.9.6-.7,2.7-2.3,4.7-3,7.4s-.7,7-2.6,8.8c.8,2.2,0,3-.4,4.9-.1.3.9,3.8.9,4.5.2,2.3-.7,3.7.6,5.7.5.8,0,1.9,0,2.6.1,1.7,1.4,3.9,1.6,5.7.6.4,1.6,2.6,2.3,2.5,1-.3.1-5,0-6,.7-3-.5-7.2.4-10,.2-.5.9-1.2.9-1.7,0-.2-.4-1-.4-1.4.5-2.3,1.5-4.6,2.1-6.8s-.2-1.6-.2-1.8c.7-2.4,2.1-4.4,3.2-6.7.1-.2-.3-.5-.2-.7,1.1-2.4,2.6-4.9,4.3-6.7,3.1-3.3,4.1-8.9,7.6-12.8.1-.2.9,0,1.1-1,.2-.7.1-.9.9-1.7.7-.8,2.1-2,3.2-2.8,1.5-1.1,3.1-1.7,4.6-3.1.1-.2,2.1-.8,2.6-1.1l-1.8,3.8c-1.6.9-2.8,2.7-3.9,4-4.2,5.1-7.7,10.2-10.9,16.6-1.3,2.7-2.6,7.4-4.6,9.3-.5.5-.2,3.2-.6,4.2s-1.4,2.2-1.7,3.1.4,1,.4,1.4c-.4,1.5-.8,2.1-1.7,3.1-1.5,1.8.5,3.7.3,4.7-.9,4-.2,5.2,0,9.1,0,1.1-.5,3.7-.5,4,0,0,.5.2.6.4,1,1.6-.2,4.4,2.4,5.3.3-.8,1.1-1.7,1.4-2.4.4-1.2-.5-5-.5-5.4.3-1.2.2-1.7.3-2.6s1.2-6.3,1.4-6.6c2.3-2.4,2.7-6.4,5-9.1,1.9-2.2,4.1-5.7,6.3-8.4,1.2-1.4,2.2-3.7,3.3-5s1.5-.7,1.6-.8c.9-1.1,1.4-2.6,2.6-3.7,1.9-1.6,4.6-1.5,6.3-3.3.7-.2,3.8-1.4,4.2-.3.1.6-1.6,1.4-1.8,2.1-3.1,2.5-5.8,5.6-9,8-.6.4-2,.9-2.5,1.4-1.9,1.7-3,4.8-4.6,7.1-1.6,2.6-4.5,6.1-5.9,8.6-.2.2.5,2.1-.8,3.5-1.3,1.5-.4,1-.7,2.4-.8,3.3-1.4,6.4-2,9.7.9,1.8-.3,5.3,2.7,4.4-.4-.7,0-1,.3-1.6,1-2.7,2.4-5.8,3-8.6,0-.2-.2-1.6-.2-1.8.4-1.5,2.3-3.3,2.6-4.8.1-.2-.4-.6,0-1.1,1.6-1.6,1.9-3.2,3-4.5,2.8-3.2,7-6.9,10.6-10,2.1-.5,2.9-2.8,5-.9-1.4.6-1.6,2.3-2.5,3.4s-1.7,1.1-1.8,1.2c-3.3,3.4-6,7.1-9.3,10.7-.8.9-.5,1.3-1.9,2.3-1.9,1.6-.6,1.6-.7,2.4-.5,2.3-1.8,4.5-2.5,6.5-.1.2-.3,3.1-.4,3.7,0,.4.2,1.5.2,1.8,0,.3-.5.5-.4.6s.5.2.6.4c.4.6,0,1.6,1.5,1.9,2.1-3.2,3.6-7.5,5.8-10.6h0l.7-1.3ZM327.6,313.1c.2-.2-.3-.5-.4-.2s.3.5.4.2ZM263,394.7c0,.2,1.8.6,1.8,1.5l1.9,1.6,1.7-.5c.2-.2.3-.7.5-.9.3-.4,1.9-1.4,2.1-1.7.7-.8,1.7-2.8,2.1-3.9.1-.2-.3-.5-.2-.7.4-.9,1.2-1.7,1.4-2.6.2-.5,0-2.6.1-3.3.1-.4.9-1.4.9-1.5,0,0-.5-.2-.6-.4-.4-.6-.4-2-.7-2.7-.4-.9-1.5-1.6-2.1-2.3-.2-.1,0-.6-.2-.7,0,0-.9.4-1.3-.2-.6.8-1,2.1-1.6,2.8-1,1.2-2.6,4.1-3.1,5.6-.3,1-.9,1.1-1.2,2.2s-1.3,3.2-1.3,4.4c0,.6.6,1.7.5,2,0,.4-.6.9-.6,1h0v.2ZM247.9,360.9c.3-.7.8-1.3,1.1-1.9.7-2.1,2.1-8.6,2-10.7-.2-2.6,0-4.8,0-7.2.1-1.2-.2-1.5-.3-2.5s.2-2.4-.3-3.5c-.2-.4-1.1-1.7-1.3-1.7-.8.9-.4,2-.5,2.9,0,.3-.5.5-.5.9-.1.2.4,1.5.3,2.5-.2,2.1-.5,3.8-.5,6,0,3.3-1.1,7.2-1.4,10.6,0,.8,0,.9-.3,1.6-.1.3.9,3.6,1.6,3.4h0v-.3ZM241.5,371.2c.2-.2-.3-.5-.4-.2s.3.5.4.2ZM241.4,361.3c1.4-1.2,0-2.8,1-3.8,1.4-1.3.3-2.9.6-4.2.6-2.4.8-4.5.9-6.8.3-5,.3-9,.4-13.9,0-2.1.8-4.7.7-6.4,0-.5-.6-2.2-1.2-2l-1.6,3.9c.2,2.3-.7,3.6-.7,6.4s-.4,4.1-.9,6.8c-.4,1.5.9,5.2-.4,6.8l.9.5c-.9,3.2-.3,6.6-.3,9.7,0,.9-.8,2.3.7,2.9h0ZM187.4,306.5c.6.8,1.6-.1,2,0,.7.2,4.5,2.3,5.1,2.9l3.9,3.3c.2.1.7,1.5.8,1.6.7.6,1.9.8,2.6,1.4s.6,1.3.8,1.6c.2.2.6.2.9.5,0,0,.5,1.6.4,1.7-.5,2.2.2,1.8.3,3.5,0,.3-.3,1.2-.3,1.6,0,.2.3.5.2.7-.6,1.8-3.1,2.9-3.2,3.8,0,2.3-.8,4.5-2.3,6.1-.9,1.1-.6,2.5,0,3.6.7,1.6,2,3.7,2.7,5.4.9,2.2,1.2,5.1,2.6,6.5.3.3.5,2.4.7,2.7.9.9,2,1.4,2.8,2.1s.7,1.5.8,1.6c1.2,1,2.2.4,3,.6,2.6.6,3,.8,5.8.9,6,.2,11.3,1.6,16.7,3.6.7-.4,1.9.7,2.6,0,.3-.3,1.4-2.2,1.4-2.6,0-.2-.4-1-.4-1.4,0-1.3.2-2.9.5-4l-.9-.5c.9-4.6,0-9.7,1.1-14.4.1-.3-.6-2.9-.5-3.1.2-.7,1-1.5,1.2-2.2.1-.3.1-1.7.3-2.6,0-.6-1-1.9-.2-2.7-.2-.6-2.1-.2-2.3.1s-2,3.3-2.1,3.9c-.1.2,0,2.1,0,2.3-.2.5-.6,1-.9,1.5-2.7-1.9-2.4,0-3.7,1.6s-.6,0-.7.2c-1.7,1.8-2.8,4.1-4.5,6.1s-3.1,3.8-4.5,6.1c-.5.8-.6,1.5-1.7,1.6l.2-1.9c1.6-1.9,2.6-4.1,3.6-6.5.1-.2-.3-.5-.2-.7.7-1.6,2.5-3.7,2.9-5.1.1-.2-.2-.4-.2-.7,0-.1.3-.3.2-.4,0-.3-.5-2.3-.6-2.4-3-3.1-4.5-7.1-6.4-10.9-1.2-2.5-3.2-4.6-4.6-7.1-.5-1-.6-2.9-1.4-3.6s-2.6-.9-2.8-2.1c-1.6.1-1.3-1.1-1.9-1.6-2.7-2.3-5.3-2.8-7.5-4.8-.2-.2-4.2-1.8-4.6-2-.2,0-1,.4-1.4.4-2.2-.5-4.3-1.1-6.6-1.4-.4,0-.7.4-1.3-.2-.2.9-1.4,1-1.9,1.5-.9.7-1.4,2-2.1,2.8s-.6,0-.7.2c-.6.8-2.1,3.1-1.4,4l3.7-1.1c.5-1.2,2.4-1.8,3.5-1.1l.5-.9h.1ZM215.6,373c.2-1,1.1-.7,1.7-1.1.9-.6,1.9-1.4,2.8-1.9.3-.2,1.8-.9,1.7-1.1-.6-.5-2.8-.8-3.2-.4-.2.2-.3.7-.5.9s-2.3.9-3.2,1.6c-.3.3-1.4,1-1.2,1.3l2,.5h0ZM214,365.9c-.3,1.1-1.6.8-2.4,1.3-.1.2-.9.9-1.1,1-.5.3-1.7.4-2,.5-.6.7-.8,1.7-1.9,2.3s-1.1,0-2.5,1.4c-.5.6-3.6.7-2.5,2.9.7-.3,1.7-.4,2.4-.6.8-.5,1.2-1.4,1.6-1.9s4.9-1.1,5.3-1.5c.9-.9,1.2-2.7,3.2-2.8l1.8-2.1-2-.5h0ZM237.5,317.2c.5-1,1.4-2.1,1.8-3.2.8-2-1.5-2.4-2.3,0l.4,3.4h0ZM232.5,320c.7-1.8,2.5-3.7,3-5.4.2-.7-.2-2.8,0-2.8.3-1.2,1.4-1.7.5-3.4,0,0-.3-.1-.4-.2s0-.6-.2-.7c-.5-.5-1.5-.7-2.2-1.2-.2-.1-.3-1.2-1.3-1.2-.5.5-.6,1-.8,1.8-.3,1.7.3,4.9.4,6.8.2,1.5.1,3.1.3,4.7,0,.4.3,1.5.7,1.8h0ZM207.5,364.2c0-.2-.3-1.2-.7-1.3l-.7.2-.6-.9-2.1.2-1.6,1.9c-3.1,2.6-6.3,4.4-9.8,6.5-.3.2-.9.9-1.1,1-.1.2-.6,0-.7.2-.5.5-.5,2.1,0,2.6.8.6,2.7,1.6,3.6,1.1.9-.4,2.1-1.7,3-2.3s1.8-1.2,2.8-1.9c2.3-1.7,4.5-3.6,6.5-5.5.5-.6,1.4-1,1.6-1.9h0ZM224,301.7c-.5.9.5,2.9.4,3.4-.8,3.6,1.2,6.5.5,9.3,0,.4.7,1.6.5,2-.3.9-1.5,1-1.6,1.9l.4,1.7c.5.4,1.5.4,1.5,1.4,1.9-.2,1.4-1.6,1.3-2.9,0-.8.1-2.6-.2-3.2-.6-1-.5-1.4-.4-2.8.2-2.2.6-4.6.9-6.8,0-.4-.4-.7.2-1.3-.8-.1-.7-.9-.9-1-.8-.6-1.9-1-2.8-1.6h.1ZM187.6,371.6c0,0,.2-.5.4-.6.1-.2.6,0,.7-.2.5-.5.4-.8,1.4-1.5,1.7-1.2,5.7-3,7-4.6s.8-1.7,1.2-2.2,2.2-.1,2.4-1.3c-1.2-.7-.7-2-2.3-2.5-.9-.2-2.9,1.4-3.6,1.4-.4,0-1.6-.3-2.1.2-.4.5-.5,1.2-1.5,1.1-1.6,0,.8-2.3,1.5-2.3l2.1-2.4c0,0-3.2,0-3.2,0-.9-.8-3-1-4.1-.3-.2.2-.2.6-.4.6s-1.6-.6-2.3.1c-1.6,1.6-2.6,1.6-3.9,3-.3.4-2,.2-2.2,2,1,.2.8,1.4,1.1,1.7,2.2,2.2,3.3,4,5.1,6.2.3.3,1.1.3,1.1,1.2.4,0,1.7.5,1.7.4h.1ZM216,296.8c-.4.5-.6.8-.5,1.4,0,1.3-.1,5.1-.4,6.3-.1.8-1,1.2-.4,2.3,1.6.3,2.3,3.4,3.6,3.7,1.7.4,1.3-2,1.3-2.9,0-1.3-.2-5.3,0-6.2.2-.7.8-1.3,1.1-1.9-.8-.4-1-1.5-2.1-1.8-.2-.1-.5.3-.7.2-.6-.2-1.3-.8-1.9-1.1h0ZM183.1,356.1c1.6-2.2,3.9-1.3,5.8-2.2.7-.4,2-.4,2.7-.7,0,0,.1-.3.2-.4s.6,0,.7-.2c1.3-1.5.5-2,.5-3.1,0-.8.6-3.2,0-3.6-2.2-2.2-2.8-2.7-2.1-5.9.2-.7-2.8-7.9-3.2-8.9-.3-.5-1.3-1.5-1.7-2.1-.2-.3-.2-1.2-.4-1.4-2.3-2.3-4.7-3.9-6.8-6s-4.6-3.7-7.1-5.6c-.2-.1,0-.6-.2-.7-.5-.5-1.5-.4-1.5-1.4l-.9-.5c-.6,0-2.3.4-2.5.3-1.4-.3-2.8-.4-4.2-.6-.6,0-1.3-.6-2-.5-1.6,0-3.2,1.3-4.5,2.4-1.5,1.2-2.7,3.2-4.6,4.2l-2.3,4.1c.4.1,1,.8,1.4.5.3-.4.8-.8,1.1-1,.8-.6.8-1,1.4-1.5.1-.2,1.3-.6,1.6-.8,0,0,.2-.4.2-.4,1-.6,1.3,0,1.9.2.2.1,1.9-.5,2.5-.3,1.2.3,2.7,1.6,3.9,2.1.2.1.5-.3.7-.2.7.4,2.5,1.2,3.1,1.7,0,0,.6.9.6.9.5.8.5,2.5.9,3.4.8,1.6,2.5,3.7,3.3,5.3.2.3.7,2.3.6,2.4-.5,2-3.5,5.2-4.1,7.4-.1.2.2.4.2.7,0,.1-.3.3-.2.4,0,.4.5,2,.6,2.4.2.1.9.9,1.1,1.2.5,1.1,1.3,2.7,1.3,3.3,0,1.5,3.9,7.6,5.1,8.7.5.4,1,.5,1.3,1.2.2-.9.8-.6,1-.9,1.2-1.2,2.1-2.9,3.4-4.1l.9.5h0v-.3ZM195.7,331.4c.1-.8.9-.7,1-.9.8-1,2.5-3,2.8-4.1.1-.2-.3-.5-.2-.7.2-.7,1-1.5,1.2-2.2.1-.2,0-1.8-.3-2.2-.3-.5-1.1-1-1.5-1.4-.4-.3-.6-3-.9-3.4-1.1-1-2.4-2.1-3.5-3-.2-.1-.6-1.4-.8-1.6-.3-.3-1-.4-1.3-.7s0-.6-.2-.7c-.5-.5-.9,0-1.1,0-.4-.1-1.4-.2-1.6-.3-.4-.1-1.4-.9-1.5-.9,0,0-.2.5-.4.6-.5.3-1.5.3-2,.5,0,0-.9.6-.9.6-.3.4-1.6,2.6-1.7,3.1,0,.6.6,1,.7,1.3.2.1,0,.6.2.7,1.4,1.3,2.8,2.6,4,3.9.3.3.4,1.7.5,2,.9.9,1.8,1.5,2.6,2.6.9,1.3,1.8,3,2.7,4.4.5.8.2,1.8,1.9,2.3h.2ZM210,303.6c.5-.5.6-1,.8-1.8.1-.9.2-2.7.5-3.4.5-1.4,2.2-2.6,1.4-4,0,0-.3-.1-.4-.2s0-.6-.2-.7-1-1.1-1.1-1.2c-.6-.5-1.7-.8-2.4-1.4l-1.2,1.4c.3.4-.2.9-.2,1,0,.6.5,1.4.5,2,.2,1.8,1.2,3.5.9,5.6,0,.4-.4.7-.6,1l1.9,1.6h0ZM170.1,371.5c1.8,1.4,4.3-2.3,3.3-3.3-.2-.2-.9-.8-1.2-.4l-2,3.6h0ZM168,365c.2-.5-.5-1.4-1.1-1.5-.7-.2-1.1.7-1.3.7-.5.3-1.8.4-2,.5-.3.4-.6,1.3-.9,1.7s-1.5.7-1.6.8c-.6.7-.8,1.9-1.4,2.6s-.6,0-.7.2c-1.2,1.2,2.3,3.2,3.5,1.9.5-.6.9-1.9,1.4-2.6.5-.6,1.9-1.9,2.6-2.6.6-.5,1.4-1,1.6-1.9h0ZM200.3,285.3l-.7,2.2c0,1,1.8,2.4,1.6,3.2s-1.3,1.8-1.4,2.6c0,.2.4,1,.4,1.4,0,.6-.6,1.3-.5,2,0,.4.4,1.8.9,1.9q2.8-.7,2.8-3.3c0-1.3,0-2.1.1-3.3,0-.9-.4-1.9-.3-2.5,0-.3.5-.5.4-.6,0,0-1.2-.7-1.1-1.7l-2.1-1.8h0v-.2ZM154.6,369.7c.5-.8.8-1.7,1.4-2.4s3-3.6,3.9-4c.3-.2,1.2-.2,1.4-.4s1.1-1.7,1.2-2.2c.1-.2-.3-.5-.2-.7.1-.3.5-.5.5-.9s0-1.8-.3-2.2c-.6-.9-1.1.7-1.7.5-.5,2-2.5,2.1-3.5,3.2s-1,2.3-1.7,3.1-2.1,1.1-2.5,1.4c-.5.5-.4.8-1.4,1.5-1.1.8,1.1,1.3,1.6,1.7s.3,1.2,1.3,1.2h0ZM194.8,295.2c.7-.2.4-1.7.4-1.7,1-3.8,1.1-7.4,1.1-11.2l.9-.6.2-1.3c-.5-.5-1.4-.7-1.9-1.1-.8-.6-1.8-1.4-2.8-2.1-.2-.1,0-.9-.9-1-.2.5-.7,1-.9,1.5-.3.9-.3,3.6-.4,4.9-.2,3,.3,6.1.5,9.3,0,.8.4,1.9.3,2.5,0,.4-.8.9.7,1.3.4,0,1.5-.6,2-.5.3,0,.5.5.6.4h0v-.2ZM150.3,366.2c.3-.1,1.7-3.4,2.3-4.1s1.5-1.1,2.1-1.7c1.8-1.6,4-3.6,5.3-5.6,1-1.4,1.8-2.7,1-4.3-.6-1.2-2.1-3.1-3-3.9-.3-.3-.5-2.9-2.1-.8-1.3,1.7-2.6,3.7-4,5.2-.2.2-2.7,1-3,1.2-.7.8-.8,2.7-2.6,1.7,0-.3,1.6-2.5,1.8-3.2.1-.2-.3-.5-.2-.7.3-1.1,2.6-2.1,3.2-2.8.7-.8,1.6-2.6,2.3-3.3.2-.2,1.2-.2,1.4-.4,1.2-1.2-1.7-2.2-2.2-2.7s-.7-1.5-.8-1.6c-.5-.4-1.3-.6-1.7-.9s-1.8-4.2-2.5-4.7-1.3-.6-1.7-.9-.4-1.7-.5-2c-1.7-1.7-1.6-2.7-2.5-4.7-.3-.6-.6-2.4-.7-2.7-.7-.6-2.3-1-3.1-1.7-1.1-1-1.7-.8-2.2-1.2s-1.3-2.3-1.9-2.8-3.8-2.3-4.4-2.4c-.8-.1-3.7.7-1.9,2.3,2.4,2.1,3.7,4.9,5.9,6.7s2.2,1.3,3,2.8c.6,1,.6,3.1,1.2,4,.2.2.6.2.6.4,0,0-.3.4-.4.6s.3.5.2.7c-.4,1.2-1.2,1.3-1.4,1.5-.8,1-.9,1.4-1.9,2.3-.2.2-.2.6-.5.9s-1.3.2-1.7.5c-.4-.6,0-1.2-.2-1.8-.3-1.7-.6-1.3-.2-3.2.1-.4-1.6-5-1.9-5.3-.8-.6-2-1.8-2.6-2.6-.8-1.1-.7-2.6-2.3-3-.3-.1-1.2.5-1.7.5l-.3,2.6c0,1.2-1.2,4.9-.1,5.9,1.6,1.6,2.4,4.3,3.8,6.6,1.8,3,3.8,6.1,5.9,8.9,2.2,3.1,5.4,6.2,7.1,9.6.3.5.4,1.7.5,2,.5.4,1.3.6,1.7.9s.6,1.8,1,2.3c.6.8,3,3.2,3.6,3.7s1.4.7,1.9,1.1h.3ZM166,341l.9-2.6c-.3-2,.4-5.1-.4-6.8-.2-.1-.9-.9-1.1-1.2-.6-1-.9-2.6-2.1-3.4-.9-2.1-3.3-1.8-5.2-1.8-.1,0-.3-.3-.4-.2-.9,0-1.5,1.1-2.6,1.1l-1.6,1.9c-1.1,0-.2.7-.9,1.5.9.2,1.1,1.5,1.5,1.9.6.7,2.2,2.2,3,2.8,1.5,1.3,4.8,2.7,5.9,3.8.2.2.2,1.2.4,1.4.6.5,2.1,1,2.8,1.6h-.2ZM183.9,279c0,.3-1.4,2.1-1.6,2.8-.2.5.8,3.6.7,3.8-.1.4-.7.8-.7,1.3,0,.2.4,1,.4,1.4,0,.6-.4,2-.3,2.6,0,.8.7,1.1.9,1.9,1.1,0,1.9-1.4,2.2-2.5.9-2.3,1.3-4.9,1.9-7.5.1-.3-.4-1-.4-1.4.1-.4.7-.8.7-1.3,0-.4-1-4.1-.9-4.5.4-1.4.4-1.5.5-3.1,0-.3.5-.5.5-.9.1-.3-.5-1.2-.4-1.7l-2.1-2.3c-1.8.2-1,1.4-1.1,2.5,0,.4-.5.5-.5.9,0,.7.4,1.7-.2,2.4l2,.5-1.2,2.2-.8-1.6-.7,2.2c-.2,1,1.1,2,1.2,2h0ZM174.5,297c.1-.8,1.6-1.1,1.9-1.5s1.1-1.7,1.2-2.2c.1-.2-.3-.5-.2-.7.1-.3.5-.5.5-.9,0-.2-.2-.4-.2-.7.1-1.1,0-2.8,0-4,0-.4-.4-1-.4-1.4,0-.3.5-.5.4-.6s-.4-.1-.6-.4c-.2-.1,0-.6-.2-.7-.2-.2-.6-.2-.9-.5s0-.6-.2-.7c-1-.8-2.9-1.5-3.2.2,0,.2.1,1.4.2,1.8,0,3-.7,5.9-.6,9.3,0,.7,0,1.4.3,2.2l2.2.7h0ZM186.7,255.6c0,0,.5.2.6.4.4.6.4,1.9.7,2.7.5.4.9,1.4,1.6.6s.8-1.3.5-2c-.5-.8,0-2.9-.6-3.4s-2.1-1.2-2.7-.6c-.5.5.1,1.3.2,1.8,0,.3-.5.5-.4.6h.1ZM177.6,278.3c.3-.7.9-1.4,1.1-1.9.1-.4-.2-2.4,0-2.8.5-2,1.2-3.9,1.6-5.9-.2-1.8,0-3.5-.8-5.3l-1.9-2.3-1.2,3.1c-1.1,3.4-1.6,7-2.4,10.5,0,.2.1,1.4.2,1.8,0,.1-.3.3-.2.4,0,1.9,2.4,1.6,3.8,2.4h0ZM165.8,293.3l1.8.8c-.4-.7.2-1.2.3-1.6.6-2.7.5-6.6.6-9.3,0-.4,0-1,0-1.1-.1-1.4-2.2-3.1-3.6-3.4,0,0-1.2.2-.9.6s-.3.8-.4,1.2c-.1.4.2,1.8-.1,3.3,0,.4.7,2.1.7,2.7.2,2.3-.2,4.1,1.8,5.9l-.5.9h.1ZM185.6,244.2l.9.5-.2-1.2h-.2c0-.1-.5.8-.5.8h0ZM169.1,274.2c.5-1.3,2-2.9,2.3-4.1,0-.2-.4-1-.4-1.4.6-2.4,1-4.8,1.6-7,.4-1.6,1.1-3.2,1.6-4.8.1-.3-.4-1-.4-1.4.2-.7.7-.8.2-1.9,0,0-.4-.2-.4-.2-.5-1.1-.3-1.7-1.9-2.3-.7,1.8-2.5,3.7-3,5.4-.3,1-.8,3.8-1.1,5.1-.6,2.6-.7,5.3-1.4,7.7-.3.8-1.5,1.9-.6,2.7.7.6,1.9.1,2.8,1s0,.9.9,1h0v.2ZM157.6,288.8c.3-.7.8-1.3,1.1-1.9.1-.2-.3-.5-.2-.7.6-1.5,1.3-2.5,1.7-4.2.2-.5-.5-3.1-.7-3.8,0-.3.3-1.6-.3-2.2-.2-.2-.7-.2-.9-.5-.4-.5-1.1-2.2-1.4-2.5-.5-.4-1.4-.7-1.9-1.1,0,1.5-.1,2.9,0,4.3s.2,1.9-.1,3.3c-.2.7,1.5,3.8,1.1,5.2-.2.7-1.4,2.1-1.4,2.4,0,0,.8.3,1,.6.2.1,0,.6.2.7.5.4,1.1-.2,1.7.4h0ZM161.1,268c.2-.6.9-1.4,1.1-1.9,0-.2-.4-1-.4-1.4.1-.4.7-.8.7-1.3,0-.2-.4-.7.2-1.3-.9-.2-.6-.8-.9-1s-.7-.3-.9-.5-.7-1.5-.8-1.6c-.6-.5-2.1-1.2-2.7-.6-.6.8-.2,1.4-.3,1.6-.2.7-1,1.5-1.2,2.2,0,0,0,1.9.3,2.2.8.6,1.9,1.3,2.1,2.3l2.8,1.6h0v-.2ZM149.7,282.6c.6-.8.5-1,.4-1.7,0-2.8.7-7,.4-10s-.5-1.1,0-2.8c.3-1.1-1.8-1.6-2.5-2.2s-.3-1.2-1.3-1.2c-.3.7-.9,1.4-1.1,1.9-.8,2.6.7,6.9,0,9.1-.2.7-1,1.5-1.2,2.2-.4,1.4,2.3,2.5,3.1,3.1s0,.6.2.7c.5.5,1.4.7,1.9,1.1h0ZM163.2,256.2c.7-.6.1-1.1.2-1.3,0-.4.3-1.4.3-1.6.6-1.8,3-4.4,3.4-6,.1-.3-.7-2-.7-2.7,0-1.1.3-2.6-.4-3.9-.9-.5-.4-1.8-1.7-2.1-.9-.2-2,1.7-2.2,2.5-.1.2.3.5.2.7-.7,2.3-1.2,5.6-1.9,7.5-.5,1.3-2.9,3.9-.5,4.5,1.4.3,1,.8,1.5,1.4.5.4,1.4.7,1.9,1.1h0ZM147.9,257.3c0,0,.8.3,1,.6.2.1,0,.9,1.1,1.2s1.5-1.5,2-2,.6,0,.7-.2c.7-.7.2-1.4.3-1.6.3-.8,1.5-1.9.6-2.7-.2-.2-.7-.3-.9-.5s0-.6-.2-.7c-.6-.5-2.2-1.3-2.7-.6s-.4,1.7-.5,2c-.3,1-1,2.1-1.2,3.3,0,.2.3.5.2.7,0,.3-.5.5-.4.6h0ZM156.1,249.4l.9-2.6c.6-2.9,1.5-7.6,3-9.6.3-.4.8-1.3.9-1.7.1-.2-.3-.5-.2-.7.1-.3.5-.5.5-.9.1-.2-.9-3.3-1.1-3.7,0,0-.8-1.6-.8-1.6-.5-.4-1.4-.7-1.9-1.1-.4.8-1.1,1.6-1.4,2.4-.8,2.2-2.6,5.7-3.2,7.9-.1.2.2,1.6.2,1.8-.3,1.2-1.1,2.4-1.5,3.7-.1.4-.9,1.4-.9,1.5,0,0,.9.4,1,.6.9,1,1.7,2.3,2.8,3.2s1,.5,1.5.9h.2ZM140.7,273.2c.3-.9.6-2,.5-2.9-.3-3.1,0-6.7-.3-9.8,0-.8-.7-1.1-.9-1.9-1.7.1-.9,1.1-1.2,1.4-.1.4-.6.9-.7,1.3-.2.7.4,1.9.3,2.5,0,1.1-.6,2.9-.6,4.2,0,.6.7,1.3,0,2,1.3.6,1.1,2.7,2.8,3.2h.1ZM143.5,252c1.2-1.7.6-3.8,1.9-5.5-.4-1.8-.1-3.9-2.2-4.9-.9-.3-1.9,1.7-2.2,2.5-.1.2.3.5.2.7-.4.9-1.3,1.8-1.4,2.6,0,0,.5,2.3.6,2.4.2.2.7.3.9.5s0,.6.2.7c.5.5,1.4.7,1.9,1.1h0ZM147.1,238.2c1.3-2.5,2.9-5,4.2-7.6.1-.2-.3-.5-.2-.7,1.2-2.4,2.7-4.6,3.9-6.9-1-2.4-1.7-5.4-4.2-6.6-.7,1.6-2.1,3.3-2.8,5-.2.6-.8,3-1.1,3.9-.1.2.2,1.6.2,1.8-.4,1.2-1.3,2.7-1.8,4.1-.2.6-.7,1.2-.9,1.7-.1.2.4,1-.3,1.6.3,1.8,1.3,2.9,3.1,3.6h0ZM133,262.6c.6-.2,0-2.5,0-3.1.1-.9.5-1.8.5-3.1.1-1.1.2-3.4.2-4.4,0-.5-.4-1.8-.9-1.9-1,0-1.5.7-1.7,1.6-.1.3.2,2.8,0,2.8-.1.2-.6,0-.7.2-.7.8-1.2,2.3-1.8,3.2.9.6,1.6,1.9,2.1,2.8l2.1,1.8h0ZM135.8,243.3c.4-.9,1.4-2,1.6-2.8.2-.7-1.2-3.2.8-3.5,0-1.3-1.2-1.3-2-2s0-.9-1.1-1.2c-.5-.2-1.4.5-1.5,1.1-.1.2.3.5.2.7-.1.4-.7.8-.7,1.3-.1.2.1,1.4.2,1.8l-.3.4c0,1.3,2.1,1.7,1.1,3.2l1.7.9h0ZM140.6,228.4c.7-1.4,1.6-2.7,2.3-4.1.9-2,1.3-5.1,2.7-7,1-1.1.4-1.5.7-2.4s1.4-2.2,1.7-3.1c0-.2-.6-4.3-.7-4.9-.1-.8-.4-1.8-.9-2.5-.5,1.2-1.7,1.3-2,2.5-1.1,4.1-3.6,8.7-5.4,12.8-.1.2.3.5.2.7-.8,1.8-2.8,3.6-1.7,5.6,0,0,.3.1.4.2s0,.6.2.7c.6.5,1.7.8,2.4,1.4h.1ZM125.1,250.4c.8-2.7.3-5.4,2-7.6-.3-1.7-1.1-3.2-2.4-4.5-2.2.3-.7,1.6-.6,2.7,0,1.3-.8,3.7-1.1,5.1.2,1.1.7,1.9,1.2,3,.3.5,0,1.1,1,1.3h0ZM128.3,233.4c.3-.8,1.1-1.7,1.4-2.4.1-.4,0-2.6.1-3.3,0-.4.6-.9.6-1s-1.2-1.3-1.4-2.7c0-.6.9-.6-1-1.3-.9,1.5-1.9,2.9-1.4,4.6l-.7,2.4c0,1.1.7,1,1.1,1.5.2.2.5,2,1.3,2.4h0ZM134.2,217.5c.8-1.3,1.5-2.8,2.3-4.1.1-.2.6,0,.7-.2,2.2-3.4,3.2-7.9,5.3-10.7.3-.4,1.6-2.7,1.6-2.8,0,0-.5-.2-.6-.4-.6-1-.8-3.4-1.4-4.7-.3-.8-.4-1-1.3-1.2-.2.7-.8.6-1.3,1.2-1.1,1.6-2.6,4.3-3.4,6-1.1,2.4-2.4,6-3,8.6s-1.3.7-1.6,1.9c-.1.2.2.4.2.7l-.3.4c0,.3.3,1.3.4,1.7,0,0,.4.2.4.2.5,1.2.2,2.8,1.8,3.3h.2ZM119.8,233.2c.6-.7,0-1.3.5-2l-1.2.2.7,1.8h0ZM122,223.2c1.2-1.5.9-3.3,2.1-4.8s1.3,0,.7-1.3c1.2-1.2.4-2.5.4-3.7,0-.3.5-.5.4-.6s-.5-.2-.6-.4c-.5-.7-.1-2-1.3-2.4-.3.8-1.3.7-1.5,1.8-.2,1.4-.7,1.8-1,2.8-.2.5-.2,2.9-.4,3.7,0,.6-.3,1.2-.3,1.6,0,.4-.6.9-.6,1,0,0,.4.1.6.4.3.3,1,2.1,1.5,1.9h0ZM130.7,202.3c-.1-.3-.2-1.6-.2-1.8.3-1.2,1.9-2.2,1.2-3.6-1.3,0-1.2,1.1-1.7,1.6-.1.2-.6,0-.7.2-.3.4-.3,1-1.1,1,.3.9-.4,1.9-.2,2.9.3,2.5,2.5,1.7,2.1-.2l.7-.2h0ZM117,209.7c0-1,1.7-1.7,1.8-2.1.2-.7-.8-1.4-1.3-1.7-.7,1-1.2,2.7-.4,3.7h0ZM128.4,188.1c-.9-.3-3,1-3.6.9-.3-.1-.5-.5-.9-.5-.5,0-1.7,0-2.1.2-.1.2-1,.9-1.1,1-.9,1.5,2,3,3.3,2.3,0,0,.1-.4.3-.4.4-.2,1.2-.2,1.4-.4s.4-1,.7-1.3,2-.2,2.2-2v.2Z"/>
        <path d="M173.7,53.6c1.4,1.8.7,4.5-.8,6.1s-3.6,2.6-5.5,3.6c-4.8,2.5-11.2,6.4-13.9,11.3-2.8,4.8-.8,3.1-1.6,4.5s-3,2.5-3.9,4.6c-.9,2.4-2.1,4.9-3.9,6.9.3,2.2-1.2,4.2-1.8,6.3-1,3.6-3,4.4-4.9,6.9-1.6,2.1-2.2,5.9-4.7,6.5,1.1,2.5-1,2.1-1.4,2.6s-1.2,2.1-2.1,2.8c-.2.2-1.5.7-1.6.8-1.5,1.8-1.9,4.3-4,6.3s-3.1,3.8-4.9,5.8c-1.6,1.7-3.6,4.8-4.6,7.1-.1.2.3.5.2.7-.4,1.1-.8,1.6-1,2.8-.2.7,0,2.9-.1,3.3-.2.5-.7,1.2-.9,1.7-.1.2.4.6,0,1.1s-.5.1-.7.2c-.2.2-.8,1-1.1,1-1.2.7-5,1.8-6.4,1.8-1.3,0-1.1.5-2,.5-2.8.2-3.1.6-5,2.6-.3.3-2.4.5-2.7.7-1.2,1.2-2.6,4.2-4,3.2-.5,1.9-2.2,2.2-3.1,3.7.5.7-.3,1.1-.3,1.6,0,.4.4.7-.2,1.3l1.7.9c-.5.5-.6,1.5-1.1,1.9-.2.2-1.2.2-1.4.4-.5.5-.7,1.6-1.2,2.2s-3.7,3.8-4.6,4.2c-.9.4-3.3,1.3-3.9,1.8-1,1.1-1.2,3.2-2.8,4.1-.5.3-1.8.3-2,.5-.6.7-1,2.3-1.7,3.1s-1.4.6-1.6.8c-1.8,1.9-2.8,3.9-4.2,5.6s-7.2,8.2-7.7,9.9c-.6,2.1-.8.9-1.3,1.5s-1.9,3.2-2.1,3.9c-.5,1.4-.2,3.1-1.6,4.8s-4.4,7.2-5.1,10.2c-.2.5.3,2.5,0,2.8-.9,3.1-2.6,5.7-3.2,8.9-1,4.6-1.3,7.4-3.3,11.6s-2.8,9.4-2.1,14.1c1.9,11.1,11.5,20.5,10.6,31.7-8.2-2.9-13.6-10.8-15.8-19.2-2.6-10-2-20.8.8-30.6.9-3.1,1.3-6.1,2.1-9.1.6-1.8,1.5-4.5,2.5-5.4.1-.2,1.5-3.5,1.8-4.1,1.4-3.9,4.4-9.4,7.9-13.2.7-.8,2.8-6.8,4.4-8.9,2.2-3,3.8-6.4,6.4-9.5s2-3.3,3.3-5c4.5-5.9,7.4-11.9,13.1-16.7,5.6-4.8,5.9-6.3,8.6-11.2,2.6-5,6.6-9.7,12.8-11s10.4,1.7,11.9-2h0c.5-1.3,1.6-2.6,2.4-4.4,2.1-4.8,4.7-10.5,8.6-14.5,1-1.1,1-1.1,1.2-2.2,1.1-3.8,6.4-5.1,8.3-8.2s1.8-10.4,3.6-14.9,5.2-9.4,9.6-12.3c1.6-1,3.4-1.8,4.8-3.1s2.4-2.8,2.6-4.6-1.1-2.4-.6-3,1.6,0,1.8-1.2c0-.2-.4-.6,0-1.1,5.8-6,7.8-13.9,15.5-18.3,1.3-.7,2.7-1.4,4.3-1.5s3.1.4,4,1.6h-.3Z"/>
        <path d="M172,91.2l-2.8-1,1.2-2.2c-1.7-.8-.4-1.7-.2-2.7,0-.4-.7-2-.7-2.7-.2-1.3.2-6.8.6-8.1.5-2.1,2.1-4.1,2.7-5.8.5-1.7,1.2-2.9,2.4-4.4,1.3-1.5,2.4-4.1,3.5-5.4s1.4-.6,1.6-.8c.3-.3.4-1,.7-1.3s2.2-.9,2.3-1c.2-.2.3-.7.5-.9.5-.6,3.2-.2,4.1-.8,1.6.8-.5,1.5-.6,1.6-1,1.1-1.5,3.2-2.4,4.4-1.2,1.4-3.3,1.8-2.7,4.8l-.3.4c-3.3,1.7-4.5,5.8-6.1,9.1-.8,1.7-2.4,3.6-2.8,5.2-.2.6-.7,4.4-.7,5.3,0,1.2.9,4,.7,4.9-.2.5-.6,1-.9,1.5h0Z"/>
        <path d="M239.1,264.3c-1.2-.5-.7-1.1-.7-1.8,0-.2-.3-.5-.2-.7.2-.5.8-1.1.9-1.7.1-.2-.4-.6,0-1.1,1.9-1.9.5-1.4.7-2.4.7-3.2,7.6-12.2,9.7-14.4,3.1-3,5.9-5.6,9.4-7.8.5-.3,3.3-1.3,3.9-1.8.3-.3.5-1,.6-1,0,0,1.3.6,2,0,.7.4-.5,2.7-.9,3.2s-1.4.7-1.6.8-.3.7-.5.9c-2.7,2.1-7.6,5.2-8.3,7.9-.2.7-2.8,1.3-3.2,1.6-1.2,1.2-.9,3.2-1.7,4.2s-1.5.7-1.6.8c-1.2,1.5-2,3.5-3.3,5s-2.3,4-3.5,5.4-1.5,3.2-1.8,3.2h0Z"/>
        <path d="M303.7,314.3c.6-.8,1-2.1,1.6-2.8s2.7-1.5,3.4-2.1c.2-.2.2-.6.5-.9.6-.8,6.3-1.7,7.5-.6.7,1.3-.7,1.3-1.3,1.8-2.3,1.9-4.7,4-6.7,5.9-.6.7-1.3,1.7-1.9,2.3-.1.2-.9.4-1.1,0-.7-1.2-.9-3-1.9-3.6h0Z"/>
        <path d="M302.7,304.7c0,0,.3-.4.4-.6,0-.4-.4-.9.3-1.6,1.4-1.4.4-1.2.7-2.4.7-2.3,2-2,2.6-2.6.7-.8.8-2.1,2.1-2.8,1.5-.8,3-.6,4.3.3l-.7,2.2c-1.2.3-1.8,1.9-2.6,2.6-.2.2-1.7,1.1-1.8,1.2-.6.7-.9,2-1.4,2.6s-.8,0-.9.6.6,2.4,0,2.8c-.4.5-1.5.2-1.9-.2s-.3-1.5-.5-2c-.2-.2-.6-.2-.6-.4h0Z"/>
        <path d="M89.3,211.8c-1.3-1.5.2-1.4.4-1.7,1-1.3,1.1-2.6,1.9-3.5,1.6-1.6,3.9-6.5,5.5-8.8.9-1.4,2-4.2,2.8-5.2s1.3-.3,1.6,0c-1.1.8-.1,2-.2,2.4-.4,1.5-2.4,3.6-2.8,5.2-.1.2.4.6,0,1.1-2.1,2.2-3.4,5.1-6,6.8-.8.5-2.2.3-2,2l-1.3,1.5h0Z"/>
        <path d="M310.2,400.5l-1.7-.9c.6-.8,0-1.3,0-2,0-.6.5-1.5.5-2,0-.6-.3-1.8,0-2.3s.6,0,.7-.2c.4-.5.5-1.3.9-1.7,1-1.1,2.8-2.9,4.4-3.8.3-.2,1.1-.2,1.4-.4.5-.3,0-1.1,1.6,0-.6.7-.8,1.7-1.4,2.4-1.4,1.8-3.5,3.6-4.5,6.1-.1.3-.2,2.3-.3,2.6-.3,1.1-1.2,1.3-1.8,2.1h0Z"/>
        <path d="M314.1,349.5c0,0-.4-.3-.6-.4-.6,0-1.7.6-2.4.6l-.3.4c.1.5.5,1.2.5,1.4-.3,1.1-1.8,1.7-2.3,3.3-.1.2.3.5.2.7-.3.9-1,2.3-2.3,1.9l.5-1.4-.5-.5c1.5-1.1,0-2.8.1-3.4,0-.6,2-3.8,2.4-4.4.1-.2.6,0,.7-.2l1.6-1.9c.3-.3,1.3-.2,2.5-1.4.5-.6,3,0,3.7.6-.1.9-1.1,1.2-1.2,1.3l-1.6,1.9c-.5.5-.7,1.5-.9,1.5h0Z"/>
        <path d="M78.6,222.9c0,0-.4-.3-.6-.4-.6,0-1.7.4-2.5.3-1.3-.3-1-1.5-1.2-1.8-.4-.3-1.4-.3-.9-1,.7.3,1.1.8,1.8.8,1,0,.9-1.1,1.3-1.5.6-.8,2.6-1.6,3.4-2.1.2-.2.2-.6.4-.6s.4.3.6.4c1.2,0,1.2-1.6,2.5-.3l-1.1,2.5c-.6.7-2.5,1.8-3,2.3s-.7,1.5-.9,1.5h0Z"/>
        <path d="M311.1,416.3c-.8-.3-1-.6-1.3-1.2-.9-2.1.9-3.7,1.7-5.6.1-.2-.3-.5-.2-.7.2-.6,1-2.1,1.4-2.6s2-.8,2.6-1.1c.7-.3.8-1,1.2-1.6.8.4-.4,1.5-.7,2.2-.1.2.3,1-.5,2s-.9.1-1.4,1.5c-.6,1.8-1.8,3.6-2.5,5.4-.3.7,0,1.1-.4,1.7h0Z"/>
        <path d="M316.4,359.8c-.6.8-1,1.9-1.6,2.8-.3.4-1.8,2.4-2.1,2.8s-1.6,0-1.8,1.2c-.1.3.4,1,.4,1.4-.1.2-1.4,2-1.7,3.1-.2.5,1.2,1.8-.8,2.1l-1-4.8.5-.9c.9-.6,2.6-.9,2.8-1.9.1-.4-.7-1.2-.2-1.8s1.2-.2,1.4-.4c.3-.4,1.1-.9,1.1-1,.8-.9,1.3-2.7,3-2.5h0Z"/>
        <path d="M68.3,253.7c-.1.2-.6,0-.7.2-.4.5-.5,1.3-.9,1.7s-.6,0-.7.2c-1,1.1-1.2,2.9-3.1,3.1-.8-.4,1-3.5,1.4-4s.6,0,.7-.2c.8-1,.5-1.8.5-2,.4-1,1.8-3.7,2.9-2.7.9.9,0,2.1-.2,2.9-.1.2.3.5.2.7h0Z"/>
        <path d="M63.8,220.9c2-1.1,3.9-1.3,6-1.2l2.6.9c-.5,1.2-1.6,3.2-2.9,2.9-.3-.1-.5-.5-.9-.5-.2,0-.5.3-.7.2-1.2-.4-1.4-1.3-1.5-1.4-.2-.1-.5.3-.7.2-.6-.2-1.3-.8-1.9-1.1h0Z"/>
        <path d="M310,384.6c-.6.2-1.6-3.1-1.6-3.4.2-1,1.1-.9,1.1-1,.4-.5.6-1.3.9-1.7s1.5-1,1.8-1.2c.8-.6,1.6-1.1,2.3-1.9v2s-.5.9-.5.9c-1.8.9-2.1,2.6-3.2,3.8-.3.3,0,2.1-.9,2.6h0Z"/>
        <path d="M235.3,233.3c-1.5-.6-.8-2.1,0-3.1s1.7-1.1,1.9-2.3c1.8-.2,2.1-2.7,4.2-2.5-.7.8-1.1,2.6-1.8,3.2-.2.2-1.2.2-1.4.4s-.2.7-.7,1.3-.5,1.3-.9,1.7-1,.6-1.2,1.3h0Z"/>
        <path d="M68.7,246.9c-2-.6-1-2.4-1.2-3.8.7-.4.5-2.5.9-2.6.6-.2.9,1.3,1.1,1.7.4,1.7.6,3.2-.6,4.7h-.1Z"/>
        <path d="M122.3,144c-1,2.9-3.3,3-3.9-.2.3-1.2,3.3-.5,3.9.2Z"/>
        <path d="M307.1,347.9c-.3-.3-.8-1.6-.7-1.8.1-.3.5-.5.5-.9,0-.2-.3-.5-.2-.7.2-.5.6-1,.9-1.5l1.3.7-1.7,4.2h0Z"/>
        <path d="M85.6,242l-1.3-.7c.6-1.5,1.4-1.7,2.7-.7l-1.3,1.5s0,0,0,0h0Z"/>
        <path d="M114.8,144.4l.2-1.3c3-.9,2.3,2.3-.2,1.3Z"/>
        <polygon points="412 369.2 412.7 367.9 412.9 367.9 413.2 369 412 369.2"/>
        <rect x="22.9" y="356" width=".5" height="1" transform="translate(176 33.6) rotate(29)"/>
        <path d="M219.6,216.9c-.2.2-.6,0-.4-.2s.6,0,.4.2Z"/>
        <path d="M323,462.3c-.2.2-.6,0-.4-.2s.6,0,.4.2Z"/>
        <path d="M231.6,357.5c1-1.1-1.1-2.5-.9-3.6.1-.4.7-.8.7-1.3.2-.7-1.2-2.2,0-3.1l-.9-.5c1.1-2.4.5-5.4,1.7-7.6l.5-1.4c2.2.8,1,3,.8,4.7.1,3.3.5,7.5-.2,10.7-.1.4.9,1.3,0,2.3h-1.6q0,0,0,0Z"/>
        <path d="M211.1,354.7s-1.3-.5-1.1-1c0-.6,0-.9,0-1.1.3-1.9,1.4-3.9,2-5.6,1.3-3.7,1.3-4.3,4.1-7.4.4-.5.7-1.8,1.7-1.6,1.6.3-.5,3.5-1,4.3-1.4,2-2.6,2.8-3.1,5.6-.4,1.7-1.6,3.1-2.2,4.9,0,0,.3,1.5-.4,1.7h0Z"/>
        <path d="M233.6,339.4c-.9-.4-1.2-1.2-.5-2,.9.4,1.2,1.2.5,2Z"/>
        <path d="M181,352.7l-1.1-1.2,1.2-2.2.9.5c.4-.6,1.3-1.1,1.9-1.5.7-.4,1.6-.1,2.3-.1l-2.1,2.4c-1.1.4-2.5.8-3.2,1.9h0Z"/>
      </g>
    </g>
  </g>
</svg>