<svg width="135" height="75" viewBox="0 0 135 75" fill="none" xmlns="http://www.w3.org/2000/svg">
<g id="Group 11" style="mix-blend-mode:multiply" opacity="0.8">
<g id="Group 9">
<path id="Vector 6" d="M0 3.5H28.5M0 1H28.5M0 6H28.5M0 8.5H28.5" stroke="#1B1B1B"/>
<path id="Vector 7" d="M0 13.5H28.5M0 11H28.5M0 16H28.5M0 18.5H28.5" stroke="#1B1B1B"/>
<path id="Vector 8" d="M0 28.5H28.5M0 26H28.5M0 31H28.5M0 33.5H28.5" stroke="#1B1B1B"/>
<path id="Vector 9" d="M0 41.5H28.5M0 39H28.5M0 44H28.5M0 46.5H28.5" stroke="#1B1B1B"/>
<path id="Vector 10" d="M0 59.5H28.5M0 57H28.5M0 62H28.5M0 64.5H28.5" stroke="#1B1B1B"/>
<path id="Vector 11" d="M0 69.5H28.5M0 67H28.5M0 72H28.5M0 74.5H28.5" stroke="#1B1B1B"/>
<path id="Vector 12" d="M33 3.5H61.5M33 1H61.5M33 6H61.5M33 8.5H61.5" stroke="#1B1B1B"/>
<path id="Vector 13" d="M33 13.5H61.5M33 11H61.5M33 16H61.5M33 18.5H61.5" stroke="#1B1B1B"/>
<path id="Vector 14" d="M33 23.5H61.5M33 21H61.5M33 26H61.5M33 28.5H61.5" stroke="#1B1B1B"/>
<path id="Vector 15" d="M33 33.5H61.5M33 31H61.5M33 36H61.5M33 38.5H61.5" stroke="#1B1B1B"/>
<path id="Vector 16" d="M33 49.5H61.5M33 47H61.5M33 52H61.5M33 54.5H61.5" stroke="#1B1B1B"/>
<path id="Vector 17" d="M33 59.5H61.5M33 57H61.5M33 62H61.5M33 64.5H61.5" stroke="#1B1B1B"/>
<path id="Vector 18" d="M33 69.5H61.5M33 67H61.5M33 72H61.5M33 74.5H61.5" stroke="#1B1B1B"/>
</g>
<g id="Group 10">
<path id="Vector 6_2" d="M134.5 3.5H106M134.5 1H106M134.5 6H106M134.5 8.5H106" stroke="#1B1B1B"/>
<path id="Vector 7_2" d="M134.5 13.5H106M134.5 11H106M134.5 16H106M134.5 18.5H106" stroke="#1B1B1B"/>
<path id="Vector 8_2" d="M134.5 28.5H106M134.5 26H106M134.5 31H106M134.5 33.5H106" stroke="#1B1B1B"/>
<path id="Vector 9_2" d="M134.5 41.5H106M134.5 39H106M134.5 44H106M134.5 46.5H106" stroke="#1B1B1B"/>
<path id="Vector 10_2" d="M134.5 59.5H106M134.5 57H106M134.5 62H106M134.5 64.5H106" stroke="#1B1B1B"/>
<path id="Vector 11_2" d="M134.5 69.5H106M134.5 67H106M134.5 72H106M134.5 74.5H106" stroke="#1B1B1B"/>
<path id="Vector 12_2" d="M101.5 3.5H73M101.5 1H73M101.5 6H73M101.5 8.5H73" stroke="#1B1B1B"/>
<path id="Vector 13_2" d="M101.5 13.5H73M101.5 11H73M101.5 16H73M101.5 18.5H73" stroke="#1B1B1B"/>
<path id="Vector 14_2" d="M101.5 23.5H73M101.5 21H73M101.5 26H73M101.5 28.5H73" stroke="#1B1B1B"/>
<path id="Vector 15_2" d="M101.5 33.5H73M101.5 31H73M101.5 36H73M101.5 38.5H73" stroke="#1B1B1B"/>
<path id="Vector 16_2" d="M101.5 49.5H73M101.5 47H73M101.5 52H73M101.5 54.5H73" stroke="#1B1B1B"/>
<path id="Vector 17_2" d="M101.5 59.5H73M101.5 57H73M101.5 62H73M101.5 64.5H73" stroke="#1B1B1B"/>
<path id="Vector 18_2" d="M101.5 69.5H73M101.5 67H73M101.5 72H73M101.5 74.5H73" stroke="#1B1B1B"/>
</g>
</g>
</svg>
