<?xml version="1.0" encoding="UTF-8"?>
<svg id="Layer_2" data-name="Layer 2" xmlns="http://www.w3.org/2000/svg" viewBox="0 0 444.12 449.36">
  <defs>
    <style>
      .cls-1 {
        fill: #bb0c0c;
      }
    </style>
  </defs>
  <g id="Layer_1-2" data-name="Layer 1">
    <g>
      <path class="cls-1" d="M213.12,29.13c-1.64-.12-3.35.08-5,0l-1-3v4h3l1,4-4.5,2-2.5-2.5c.45-.57,1.94-2.74,2-3,1.3-6.03-.84-12.03-2-17-.58-2.47,1.01-4.37,2-6.5-3.36.52-4.21-3.02-8-2V1.13c1.12.13,2.48-.21,3.5,0,4.49.92,17.86.92,23,0,.65-.12,2.32-2.48,4,0l7.5,1-3,1,1,1.5-1,2c1.1,1.26,2.19,3.13,2,5l2,1.5c-3.88.5-4.38-1.72-4-5l-1.5,1c-1.19-.74,1.41-1.52,0-2-1.75-.6-3.27-1.87-5-3-2.33-.32-2.61,1.54-4.5,0v2h-5c1.15,1.85,1.47,5.42,1,7.5-.17.77-2.04,1.07,0,3.5l-2,1,2,.5v5.5c1.44.15,3.13-.23,4.5,0,.38.06.67,1,1,1,.3,0,.56-.79,1-1,.63-.29,2.55-.71,3-1,.51-.33,2.21-2.01,2.5-2.5.13-.22-.14-.69,0-1,.19-.43.9-.63,1-1,.22-.81-.16-2.05,0-3,.07-.38,1-.67,1-1s-.84-.57-1-1c-.36-1.01.81-1.84-1.5-1.5-1.28-.15.74-1.88,1-2,2.34-1.1,1.25,2.76,1.5,3l4,1v5h-2v6c3.7,1.09,1.27-4.27,2-5h3l1-5,4,1c-1.65,1.79-.55,3.87-1,5.5-.37,1.34-6.27,6.02-8,5.5l7,9.5-1.5,2.5-2.5,2,4-1,.5-2,8,10h1c.74-1.74,4.13-.63,4.5-1,.21-.21-.2-1.76,0-2.5,1.86-6.9,3.7-15.01,5-22,.67-3.57.31-8.93,1-12,.09-.4,1.36-.68,1-2-.14-.5-1.62-1.31-2-2-.26-.47.19-1.31,0-1.5-.21-.21-1.78.21-2.5,0s-3.27-3.22-2.5-4c2.51,1.98,5.9.43,8.5,1,.77.17,1.08,2.04,3.5,0v2l3.5,1,3-2c4.04,2.68,9.2,1.72,14,3,.41.11.66.99,1,1,.29.01,3.04-3.03,2.5,1,2.44-1.97,3.42-.36,6,0,.78,1.75-.95,3.18-1,3.5-.56,3.86,1.62,10.6-2.5,12.5-2.55,1.18-.71-3.94-2.5-4.5.17-2.59-2.21-5.98-4.5-7.5-.21-.14-.74.16-1,0-.64-.38-2.67-1.93-3-2-2.14-.46-5.32.99-7-1l-1.5,1.5,1,1c-1.15,3.42-2.17,7.49-3,11-.54,2.26.92,3.52,1,5.5,1.92.48,2.34-1.18,3.5-2,.21-.15.75.16,1,0,2.1-1.34,3.85-7.28,4.5-10,3.39-.73,1.59,2.47,2,4.5.08.38.91.61,1,1,.66,2.81-1.68,5.22-2,7-.58,3.24-.26,9.26-1,12-.22.82-2.69,1.57-2,3.5l-2-.5v-8.5h-2v-2l-5-2-.5,5c-1.27-1.08-2.93-2.04-4.5-2v-3.5l-3-.5,1.5-2,.5-2,3,3-.5-5c-2.27-.36-3.78.88-3.5,3l-2.5-1c-2.43,1.66-.45,1.75-.5,3.5l-2,.5,5,2-2,1,1,2h-1.5l-1.5,2.5,3,1,2.5-.5,1.5,2.5-6,.5v-2l-4,1,3,4.5c-1.68,1.22-.84,3.49-1,5.5,3.02.83,3.52-2.25,6-2l1,4,2-.5v-1l3-.5-3-2c1.73-.33,2.97.5,4.5,1,1.87.6,5.23,1.71,7,2,1.37.22,3.06-.15,4.5,0v-2c3.32.06,6.02-3.55,7-6.5.79-2.39-1.58-2.92,4-2.5.78,1.78-.93,3.1-1,3.5-.39,2.17-.19,4.82-1,7-.2.55-1.91,2.62-2,3-.23.99.14,2.39,0,3.5-1.78-.16-3.78.23-5.5,0-4.33-.58-10.64-1.84-15-3-5.04-1.34-13.7-1.33-20-3-.59-.15-1.67-1.75-3.5-1l1-2h-3v-3h-2v-2c-2.29-.5-4.29-1.44-7-1l3,1v.5c-1.28,1.93-2.92,1.57-5,1.5l2,2-3,.5,2,.5-2,2c.44-2.24-2.03-3.03-3-4.5-1.68-2.53-.54-3.81-3.5-5.5-2.53-1.44-1.93-7.06-6.5-8.5l1-1-1-2.5c-2.21-.39-3.16.36-4.5,2-.76-1.23-1.41-.88-2.5-1,.74-1.72,1.5-1.38-.5-3h-.5c.08.98-.14,2.04,0,3ZM271.62,9.13c-.65,0-.65,1,0,1s.65-1,0-1ZM272.12,11.13c-2.93.37-5.73,1.71-5,5l2-2c-.06,1.69-.4,4.16,1.5,5s1.81-3.01,3.5-3.5c.25-1.15.24-3.39-1.5-2.5-1.83.94-.84,3.17-2.5,3l2-5ZM209.12,22.13v-3h-.5l-1.5,1.5,2,1.5ZM268.12,20.13h-2v2h2v-2ZM210.62,22.13c-.65,0-.65,1,0,1s.65-1,0-1ZM212.62,22.13c-.65,0-.65,1,0,1s.65-1,0-1ZM219.62,26.13c-.65,0-.65,1,0,1s.65-1,0-1ZM275.62,29.13c-.65,0-.65,1,0,1s.65-1,0-1ZM268.62,32.13c-.65,0-.65,1,0,1s.65-1,0-1ZM234.12,35.13v-2h-1v2h1ZM270.62,51.13c-.65,0-.65,1,0,1s.65-1,0-1Z"/>
      <path class="cls-1" d="M213.12,29.13c.33.02.67-.03,1,0-.11.25.16,1-.5,1-.6-.18-.44-.56-.5-1Z"/>
      <path class="cls-1" d="M314.12,195.13c-2.54-.09-4.51,1.16-5.5,0l.5,2-3.5,1c-2.2,1.41-2.62,7.05-6.5,4l-1.5,3c-3.36-3.72-4.79-8.29-7.5-12.5l3.5-4.5,2.5,3.5-4,2c.75.54,1.09,1.91,2,1,.96-.96.75.41,2,.5l1-2,2.5,4,5-5c.37.09.73.13,1,0,1.49-.7,5.75-2.78,7-3,1.67-.3,8.12.38,8.5,0,.22-.22-.23-1.8,0-2.5.32-.95,2.32-2.83,2-4-.11-.4-.91-.62-1-1-.28-1.25.33-5.17,0-5.5-.19-.19-1.03.26-1.5,0-.69-.38-1.49-1.85-2-2-.63-.18-1.41.19-2,0-.41-.13-.63-.93-1-1-.94-.17-4.22-.22-5,0-.55.15-1.45,1.85-2,2-1.07.3-2.82-.25-4,0-.26.06-2.43,1.55-3,2l-1.5-2c.4,2.43-.27,4.76-2.5,6-.47.26-1.31-.19-1.5,0s.26,1.02,0,1.5c-.62,1.12-2.57,1.53-2,3.5l-3-5,1,7h-4c.13-1.12-.21-2.48,0-3.5.05-.24.7-1.97,1-3,.05-.18,1.8-2.73,2-3,1.25-1.73,7.91-6.86,9.5-7.5,1.06-.42,3.85-.6,5-1,.52-.18,2.64-1.92,3-2,1.22-.26,9.96-.29,11,0,.51.14,1.31,1.63,2,2,.55.3,2.57.72,3,1,1.04.68,1.94,2.25,3,3,4.11,2.9,9.01,11.33,10.5,16.5.16.56,1.85,1.45,2,2,.3,1.09-.3,2.91,0,4,.15.55,1.85,1.45,2,2,.74,2.69-1.14,6.49-1,7,.11.4.91.61,1,1,.73,3.15-1.51,4.22-2,6-.23.85.23,2.15,0,3-.14.51-1.63,1.31-2,2-.3.55-.72,2.57-1,3-3.84,5.86-14.72,13.98-21.5,16.5-.57.21-1.38-.2-2,0-.54.18-1.01,1.57-3,1-1.18-.34-1.18-3-3.5-1l1-2.5-3-1.5,1,5h1.5l-1,2c-.87-.64-.51-2.32-2-3-2.32-1.05-.69,2.46-2.5,2,0-2.01-.87-3.5,2-3v-1h-2v-1h2v-1h-2c.2-1.64.06-3.13-1.5-4-1.2-.67-1.72,1.24-1.5-3-1.7-.25-2.45-.99-4-1v-1l3-1-6,2c-.24,2.1,3.51.5,4,1,.15.15.2,2.83,2,3.5l-1,2c1.1,1.55,2.17,1.73,4,1.5l-2.5,3-1.5-4-3,4c-.69-1.09,1.72-2.79.5-3-2.78-.49-.42,2.24-2.5,2,.57-3.64-.37-2.41-2.5-4l-1,1-.5-.5-1,2.5-1.5-2c-.86,1.32-2.01,1.05-3.5,1v2c-3.34.75-4.63-1.05-7-2.5-1.08-.66-1.83-.57-3-.5,2.01,2.41-1.38,2.36-1,5,3.39-.55,5.96.78,9,1-2.02,2.39,1.25,2.18,1,5l-5.5,1-1.5,1c.77.05,1.64-.48,2,.5,1.73,4.73,4.59,9.78,7,14,1.1,1.92,3.8,3.53,3,6.5h-1.5l.5,2c-4.14.53-.3-2.66-1-5h-3l.5-2-1,1h-2.5c.84-3.09-1.75-3.6-3-5.5-1.93-2.93-4.35-7.09-6-10-.44-.78-1.47-.87-1-2.5l-6,.5,4,6,2,5.5-2,.5,2,1.5,3,2.5-3.5,2.5c-.51-1.28-2.39-.89-2.5-1-.17-.17.23-.96,0-1.5-.95-2.28-2.87-4.2-4-6-.28-.45-.73-2.59-1-3-1.67-2.52-5.56-4.22-5-8l-3-.5,2-2-4,1,6-2-2-3,6-1c-.68-1.94-1.29-2.2-3-1l-1-2.5,3-3.5-4,1c-.46-2.37,1.46-3.63,1-6h1.5l.5-4,1,3,2-2.5c-.97-1.56-3.14-1.47-4-3-.26-.47.19-1.31,0-1.5-.21-.21-3.39-.39-4-3.5l.5-.5c1.68-1.69-2.05-.55-1.5-1.5.96-1.64,2.62-1.58,3,0,.18.75-.2,2.3,0,2.5.27.27,6.01-.15,7.5,0,.36.04.64.96,1,1,2.41.24,5.06-.17,7.5,0v2h1c-.86-2.88,2.87-2.01,4.5-4h2l4,2c1.59-.62,1.37-2.87,1.5-3,.54-.54,6.91-1.5,8.5-2,.39-.12,1.09-1.5,1.5-1-.53,1.65.79,1.91,1,2.5s-.22,1.42,0,2c.65,1.69,2.73,3.13,2,5.5h-2v1c2.89-.83,2.79,2.79,3,3,.13.13,1.92-.34,3,1.5v.5c-2.56-.25-1.89-.04-2,2,1.26.18,2.7-.12,4,0l-1,2h4l-1-1.5h2v-1.5l-2-1,3-1,1,2,1-1.5.5.5c1.62-.99,1.37-3.07,3-4,.97-.55,2.04,1.03,1.5-3l-1.5,2c-1.66-1.12-1.24-2.71-3.5-1v-3l-4,1-2,2,4-3-2-3,4,.5-1.5-2.5-4,2,.5-3h-3v-5l3,1c.19-.19-.26-1.03,0-1.5,1.63-2.92,9.62-4.44,9-8.5.66.02,1.34-.01,2,0-1.02,1.67-2.57,6.81,1,6v-8h-4c-.05.87.85.99,1,2ZM310.12,172.13v-2h-1v2h1ZM302.62,173.13c-.65,0-.65,1,0,1s.65-1,0-1ZM292.12,179.13l1.5,2c1.06-.94,1.82-1.5,1.5-3-1.18.31-1.49,1.42-3,1ZM328.62,182.13c-.65,0-.65,1,0,1s.65-1,0-1ZM326.12,187.13h-2v1h2v-1ZM304.62,195.13c-.65,0-.65,1,0,1s.65-1,0-1ZM319.12,197.13v-2h-1v2h1ZM313.62,203.13c-.65,0-.65,1,0,1s.65-1,0-1ZM335.12,204.13h-3c.31,1.71-.21,2.62-1,4h2c-.52-1.98,1.52-2.34,2-4ZM321.12,210.13l-1-2.5-3,.5,2,1c-.06,2.4.67,4.57-1.5,6l-5.5-1c-.65,3.24,2.09,1.77,4,2-.55,1.54.99,2.25,1,2.5,0,.17-1.55,1.02-1,2.5h4l-1-4c1.57.04,3.23-.92,4.5-2l2,1,1-1,1,1,1.5-1v3c3.92.77,2.28-1.02,4.5-3l.5.5,3-.5-5-2c-.39-1.79,1.73-.71,2-1,.11-.11.16-2.15,1-3l-4,3-1-2h-1c.49,2.45-.88,2.85-2.5,1l-1.5,1v-2h-4ZM315.62,212.13c-.65,0-.65,1,0,1s.65-1,0-1ZM283.12,217.13v-2h-1v2h1ZM278.12,218.13c-.08-.66.13-1.87,0-2-1.48-1.48-4.15,2.46,0,2,.08.65-.04,1.34,0,2h.5c1.54-1.1,1.73-2.14,1.5-4h-1v2c-.33.03-.67-.04-1,0ZM273.12,218.13l-2,.5,3,4,3-.5-2-2-1,2-1-4ZM287.12,229.13l1-4c-1.38.79-2.29,1.31-4,1l3,3ZM312.12,227.13v-2h-1v2h1ZM308.62,226.13c-.65,0-.65,1,0,1s.65-1,0-1ZM314.62,226.13c-.65,0-.65,1,0,1s.65-1,0-1ZM267.12,229.13l-2,3h4l1,2,1-3h-4.5l.5-2ZM270.12,229.13h-2v1h2v-1ZM281.12,232.13l1-2.5-.5-.5c-1.06.94-1.82,1.5-1.5,3h1ZM295.62,229.13c-.65,0-.65,1,0,1s.65-1,0-1ZM265.12,235.13h-2v2h2v-2ZM311.62,236.13c-.65,0-.65,1,0,1s.65-1,0-1ZM276.62,241.13c-.65,0-.65,1,0,1s.65-1,0-1ZM268.62,260.13c-.65,0-.65,1,0,1s.65-1,0-1Z"/>
      <polygon class="cls-1" points="268.12 258.13 268.12 256.13 269.12 257.63 268.12 258.13"/>
      <path class="cls-1" d="M151.12,238.13l2,1-1-2.5c2.16-1.28,1.57-2.51,2-4,.23-.79,3.31-2.91,4-4h-2c0-3.8,5.72-2.2,8.5-2.5,6.16-.66,13.18-2.26,19-4,.94-.28,3.39-.29,2.5,1.5s-2.3,1.2-3.5,1.5c-.67.17-.46.96-.5,1-.28.28-2.03.52,0,1l2,1.5c-1.64,1.49-.19,3.14-3,2.5l1,2h-1.5l-.5,3h4v-4l4,.5c-.07.58-3.41,2.94-4,4-.55.99,1.03,2.03-3,1.5v4l5,1-2,5,4-3.5,1,1-2,4c-3.39,14.48-10.27,28.89-13,43l-1,7.5-1-3-2,1.5,1,3.5,2-.5-1,1c1.6,1.24.42,3.3,2.5,4.5l2.5-1,1,2.5c-1.63,1.42-.15,3.13-3,2.5v2c-1.76-.29-2.59,1.55-4.5,1-3.15-.9-2.17-5.3-2.5-7.5-.29-1.95-1.42-3.66-1-7,1.78-14.3,8.35-28.09,12-42,.26-1-.5-2.14,1-3-.96-1.06-1.86,1.33-2.5,1.5-1.02.28-4.08.85-5,1-1.37.22-3.06-.15-4.5,0v-2h-2l1-2-4-1,1-5,2-1-4-2-1.5,2-.5-3-2,3h-6l5-1-3-2.5c0-.2,2.29-2.56,1.5-3.5-1.37,2.02-3.61,2.54-6,2-.4-.09-.68-1.36-2-1s-2.52,3.51-3.5,4.5l5.5-2.5-2.5,2.5,2,2.5-3.5-1-3.5,2c-.17-2.15,2.22-2.96,0-4.5,1.16-1.41,3.33-2.34,3-4.5h-6l3-2-3-2,1-3c3.57-.17,5.04,3.95,8,4-.55,1.94.71,1.71,1,2,.73.73,1.12,2.34,2,0ZM172.12,236.13l3-7-2,2.5-1,4.5ZM168.12,232.13l-5-1,2,6c1.38-.4,2.69-1.46,1-2.5l2-2.5ZM170.12,235.13c-2.94-.49-2.6,1.32-.5,3h.5v-3ZM154.62,237.13c-.65,0-.65,1,0,1s.65-1,0-1ZM158.12,239.13v-2h-1v2h1ZM159.62,237.13c-.65,0-.65,1,0,1s.65-1,0-1ZM170.62,307.13c-.65,0-.65,1,0,1s.65-1,0-1ZM170.62,310.13c-.65,0-.65,1,0,1s.65-1,0-1Z"/>
      <polygon class="cls-1" points="182.12 227.13 182.12 226.13 183.12 226.63 182.12 227.13"/>
      <polygon class="cls-1" points="151.12 238.13 149.12 238.13 149.62 237.13 150.62 237.13 151.12 238.13"/>
      <path class="cls-1" d="M141.12,188.13l-1,3c1.69.49,2.24-1.35,3.5-1,.39.11.6.87,1,1,.59.19,1.37-.18,2,0,.51.15,6.82,6.56,7.5,7.5.15.21-.16.76,0,1,1.17,1.73,2.73,1.81,2,5-.09.38-.86.59-1,1-.89,2.7-3.24,9.2-2.5,11.5l-.5,3-1-2-1.5,1-2-1c-1.06.94-1.82,1.5-1.5,3l-3-1,2-2c-1.63-.52-2.25,1.36-3.5,1-1.67-.48-5.53-2.74-7-3-1.64-.29-3.76.2-5.5,0l4.5,4,6.5,2c.3,1.67-3.78,1.16-4.5,1-1.1-.24-3.67-2.91-4-3-1.09-.3-2.91.3-4,0-.31-.08-4.41-4.2-4.5-4.5-.3-.98.83-2.78-1-2.5.18,2.07-1.37,3.82-2.5,2l-1,1-2.5-1c.61,2.29-1.71,3.45,0,4.5-1.82,1.37-1.01,2.8,0,4.5-2-.35-2.31,1.84-3.5,0l-2,2-1.5-2-1,3.5,2,2,1,5.5,4-1v-2l3,1,1-4h3v5l-2.5-1-2.5,4,1.5-2,1,1c1.69-1.89,2.99-1.38,2.5,1l4-2c.98,3.35-1.73,4.22-2,7l4.5,1c.85,0,.65,1.98.5,2.5-.4,1.36-2.66,1.76-4,1.5v2l-2,1c1.22-.29,2.02.2,3,.5,1.31.4,3.25.74,1.5,2.5-1.58-1.11-3.33-2.03-5-3-.85-.5-3.34-1.5-4-2-1.91-1.43-10.12-10.14-10.5-11.5-.3-1.09.3-2.91,0-4-.15-.55-1.85-1.45-2-2-.94-3.41,1.97-7.1,0-11,1.7-5.25,4.11-10.99,5-16.5h2c-.42-2.95,1.37-6.35,3-8.5.55-.73,1.77-1.95,2.5-2.5.2-.15.76.17,1,0,1.03-.72,2.74-2.66,4-3,.83-.23,2.09.2,3,0,.39-.09.63-.95,1-1,4.08-.6,9.26.43,13.5,0ZM143.12,197.13l.5-2c-1.01,1.99-2.77-.66-4-1-.83-.23-3.74-.96-4-1-1.53-.22-5.54-.26-7,0-.29.05-1.43,1.7-3,1-3.05,2.49-8.56,5.54-5.5,9.5-1.36,1.66-1.31,1.5-3,1-1.27-.37-1.2.23-2,1l1.5,2.5,4.5-3-1,4c2.37-2.25,3.01,1.57,4.5,2,.98.28,2.18-.5,3,1,3.25-4.35,9.37.39,14,0l5,3,3.5-2.5c.67-3.25-2.89,1.25-2-2,.59-2.17.64-3.04,1-5,.06-.3,1.57-1.01,1-3-.32-1.13-3.8-2.41-3-4.5l-4-1ZM145.62,195.13c-.65,0-.65,1,0,1s.65-1,0-1ZM115.12,204.13v-2h-1v2h1ZM117.12,209.13h-3v3h1v-2l2,1v-2ZM151.62,212.13c-.65,0-.65,1,0,1s.65-1,0-1ZM124.62,214.13c-.65,0-.65,1,0,1s.65-1,0-1ZM150.62,214.13c-.65,0-.65,1,0,1s.65-1,0-1ZM150.62,216.13c-.65,0-.65,1,0,1s.65-1,0-1ZM111.12,223.13v-2h-1v2h1ZM115.12,238.13h-2v1h2v-1ZM113.62,240.13c-.65,0-.65,1,0,1s.65-1,0-1Z"/>
      <path class="cls-1" d="M369.12,35.13c.48,1.64-.62,1.76-1,2.5-.58,1.12-1.95,2.82-2,3-.43,1.57.81,3.84-2,4.5l-2-2c0,2.01-.87,3.5,2,3l-1,4-4-1c.03-3.24,2.35-5.82,0-9l2.5,1c.77-.88,1.77-1.6,2.5-2.5.13-.16-.18-.72,0-1,1.14-1.81,3.1-.88,3-2.5l-3-.5-2,.5,1,1.5-2,1.5-.5-2c-1.92.06-3.92,2.9-3.5-1-2.87.66-4.25-2.07-6.5-3-.72-.3-2.24.18-3.5-1,.21,2.53-2.84,3-2,6h-2c1.61,2.07.11,2.26-1.5,4l-.5-3-2,.5-1-1.5,1-3c-2.03-.33-2.32,1.84-3.5,0-1.47.67-5.2,7.33-4.5,8,1.64-.26,4.08.39,5.5,0,.72-.2,1.53-2.48,3-2l2.5,3.5-1,3.5c1.11-.15,2.52.23,3.5,0,.12-.03,1.8-.88,2-1,2.25-1.34,3.55-5.85,6-7,1.99-.94,1.35,2.21,2.5,2.5.42,1.45-3.26,5.3-4,7-1.59,3.66-4.77,10.28-6,14-.79,2.4,1.58,2.92-4,2.5-.09-2.81-.51-4.81,2-6.5-1.7-.92-.61-2.68-1-4-.11-.38-.83-.58-1-1-.22-.54.17-1.32,0-1.5-.09-.1-1.99.28-2.5-1-1.77,1.76-2.76,3.59-5.5,3l2,3.5c-1.69.92-.63,2.65-1,4-.33,1.2-3.81,2.18-3,5,.47,1.65,6.83,3.06,8,5l-1,3.5h-3l1-1.5-.5-.5-2,1c-1.81-1.44-4.52-.97-5.5-4l4-2c-3.83.8-2.33-1.03-4.5-3v2c-1.1,4.59-5.72,3.21-7.5,0l3-.5v-1.5l2-.5-2.5-2.5-2,1,.5-3c-2.86-1.27-2.26,3.7-2,4,.12.14,2.97-.05,3,2l-5.5,1-6.5-4.5c.74-4.26,3.23-1.21,6-1.5l-2,4h3c-.53-1.65.79-1.91,1-2.5,4.47-12.31,11.95-24.44,16-37,.11-.35.75-.57,1-1v-.5c-2.46.12-4.51-2.3-4-5,1.41.19,3.23-.28,4.5,0,2.46.55,9.73,5.52,13,7,5.41,2.45,11.46,3.93,17,7,1.17.65,1.55,2.59,3.5,2ZM339.12,30.13v-2h-1c-.29,1.9,1.1,3.29,3,3v-1h-2ZM342.12,32.13c2.01-.53,2.24-2.12,2-4-2.01.53-2.24,2.12-2,4ZM345.62,30.13c-.65,0-.65,1,0,1s.65-1,0-1ZM332.62,33.13c-.65,0-.65,1,0,1s.65-1,0-1ZM343.62,35.13c-.65,0-.65,1,0,1s.65-1,0-1ZM338.12,46.13v-2h-1v2h1ZM345.62,53.13c-.65,0-.65,1,0,1s.65-1,0-1ZM328.12,64.13v-3h-1v3h1Z"/>
      <path class="cls-1" d="M242.12,399.13c.21.21-.2,1.76,0,2.5.11.4.91.61,1,1,.57,2.43-1.57,4.78-1,8,.07.39,1.78,1.73,1,3.5h-4c.53-1.65-.79-1.91-1-2.5-.32-.88-.32-2.85-1-4-1.94-3.27-6.38-3.9-10-3.5v12l-3-1c-.57.47,1.86,2,2,2.5.35,1.26.33,16.51,0,18-.09.4-1.36.68-1,2,.15.55,1.85,1.45,2,2,.32,1.17-.21,3.13,0,4.5l3.5,1,3.5,3c-1.75-.78-3.18.95-3.5,1-2.35.34-7.55.26-10,0-.36-.04-.62-.94-1-1-3.05-.45-4.73.84-6,1-3.68.46-8.32.71-7.5-4,2.78.59,4.44-1.26,7-1v-5l1.5,1c2.13-2.54,4.73.33,7.5,0l-3.5-2c-2.21.04-2.12-2.96-4.5-1v-3h3v2l5,.5-2-3.5h-6c.55-1.61-.93-2.11-1-2.5-.38-2.19-.22-7.6,0-10,.03-.36.96-.63,1-1,.28-2.41-.85-5.44,1-7,.06-1.05-1.76-.27-2-.5-.82-.8.98-2.37,1-2.5.45-2.53-.55-4.19-1-6.5-1.6-.55-2.11.93-2.5,1-1.22.21-2.95-.29-4,0-.31.08-4.41,4.19-4.5,4.5-.35,1.21-.82,2.35-1,3-.73,2.68,1.35,2.83-4,2.5.2-2.08-.29-4.5,0-6.5.05-.37.91-.6,1-1,.6-2.59-1.49-4.27-1-6,2.16-2.29,6.13-3.75,8.5-1.5h36.5ZM218.62,404.13c-.65,0-.65,1,0,1s.65-1,0-1ZM225.12,409.13c-2.5-.29-4.03-2.35-6,.5l2,3-.5.5c-2.08-2.63-2.26,1.76-2.5,2-.29.29-2.39-.79-2,1l4,2-3,1h5c-.54-1.64.86-2,1-2.5.51-1.84-1.88-.26,1-4,1-1.3,1.29-1.7,1-3.5ZM225.12,447.13l-1-8c-2.66.28.02,2.38,0,2.5-.04.34-1.55.92-1,2.5-3.92.77-2.28-1.02-4.5-3l-4.5,1.5,2.5,1.5.5,2,2-.5.5-1.5,5.5,3ZM221.62,441.13c-.65,0-.65,1,0,1s.65-1,0-1Z"/>
      <path class="cls-1" d="M378.12,331.13h3l-.5,2c3.46-.99,3.19,2.69,3.5,3,.21.21,1.78-.21,2.5,0,.31.09,4.42,4.19,4.5,4.5.37,1.34-2.13,1.93.5,3.5.75.45,2.04-.89,1.5,2l-3,3h3.5v-3c.67-.74.17-2.87,2-2,.55.26,1.96,1.11,2.5,1.5,1.36.97,3.44,2.62,4.5,3.5,1.42,1.17,2.6,2.78,4,4l5-3,3.5.5-7,8c-2.49,3.53-5.56,9.14-9,12-1.02.84-1.29,1.91-3,1.5-.25-2.8,0-5.37,2-7.5-1.57-1.4-2.9-3.14-4.5-4.5-1.21-1.03-4.78-2.97-6-4-.96-.81-6.37-6.06-6.5-6.5-.88-2.97.65-2.12,2-3,1-.65,1.3-2.4,2-3.5-2.86-.98-1.74,1.8-2,2-.53.41-3.71.01-3,3-2.89.83-2.79-2.79-3-3s-3.85.36-5-2.5c-.21-.51.15-1.18,0-1.5,1.27.08,5.78-.22,6,0s.29,4.95,3,1.5l-4-5v-2.5c2.55.88,2.97-2.14,1-3,.14-.29-.16-.87,0-1ZM383.62,337.13c-.65,0-.65,1,0,1s.65-1,0-1ZM388.62,346.13c-.65,0-.65,1,0,1s.65-1,0-1ZM388.62,348.13c-.65,0-.65,1,0,1s.65-1,0-1ZM398.12,348.13c-.24-.28-1.52,1.62-3,0,.04,1.57-.92,3.23-2,4.5l1,1-1,1.5,3,1-1-3c3.1.21,3.27-2.25,3-5ZM401.12,356.13v-2h-1v2h1Z"/>
      <path class="cls-1" d="M378.12,331.13l-1,.5c0,.66.75.39,1,.5-1.51,3.14-2.88,1.56-5.5,2-.62.1-.48,1.52-1.5.5-.91-.91-1.25.46-2,1,1.28,1.65,2.1,3.64,3,5.5-.82-.05-1.88.18-2.5,0-1.83-.54-2.73-4.63-6.5.5l4,5c.07,1.47,3.1,5.41,2,6.5-.91.9-2.68-.57-3.5-1-.64-.34-2.66-1.93-3-2-.91-.2-5.2-.22-6,0-.33.09-3.58,2.98-4.5,3.5l5,5-3,.5,1,4,2.5-3,7.5,8.5c.62,2.42-1.7,1.2-2,1.5l-.5-1h-1l-.5,1c-.76-.56-2.76-1.7-3-2.5-.35-1.17.38-2.47-1.5-3.5v2h-1.5l-.5-2c-1.34,1.6-3.15.15-2.5,3l3,2-3-1c.37,1.72-.87,2.36-2,3.5v.5c1.9-.29,3.29,1.1,3,3l1.5-1,1.5,1.5-1,2c.75,1.96,3.82,1.32,4,1.5.14.14.37,3.66-.5,4-1.41-1.57-3.12-2.91-4.5-4.5-3.55-4.11-7.38-8.66-11-13-.09-.11-.24-2.11-1.5-2.5-2.31-.71-5.43,5.96-6.5,7.5l3,6c.36,1.19-.4,3.15-1.5,3.5-3.12,1-2.06-1.17-3.5-2.5.52-2.15-1.79-2.89,0-4l-1-2c1.58-.78.34-2.24-.5-2.5-2.33-.72-2.35,2.88-2.5,3-.98.79-4.61-.65-4-2.5,1.91-.88,4.13-3.74,5.5-4.5,1.94-1.08,4.61-5.6,6-6,3.77-1.08,6.62-3.84,10-6,1.35-.86,4.97-7.4,7-8s2.98,1.38,2.5-3l4-1c-.27-2.65,1.33-5.36,3.5-7,5.9-4.47,4.74-5.45,8.5-10.5,1.41-1.9,5.91-5.79,7-2,.3,1.03-2.45,3.72-3,5,.86.95,2.43,3.58,2,4.5ZM375.62,330.13c-.65,0-.65,1,0,1s.65-1,0-1ZM331.62,367.13c-.65,0-.65,1,0,1s.65-1,0-1ZM334.62,374.13c-.65,0-.65,1,0,1s.65-1,0-1Z"/>
      <path class="cls-1" d="M363.12,370.13c-1.93,1.96-1.11.65-2,0h2Z"/>
      <path class="cls-1" d="M130.12,391.13c-.03-.65.11-1.89,0-2-.22-.23-2.05.55-2-.5,1.87-2.93,3.19-.5,3.5-.5.8,0,1.99-2.47,1.5-3.5h-2l1-2.5c-3.27-.77-5.16,1.73-8,2-.5.41,1,1.25,1,1.5,0,.18-2.32,2.5-2.5,2.5-.25,0-1.09-1.5-1.5-1-.06.47.18,1.07,0,1.5-1.95,4.73-4.67,9.84-6,15l-6,11,4,7.5c-1.82.76-2.95-.86-3.5-1-3.18-.79-7-1.68-10-3-.69-.31-3.34-1.96-3.5-2.5s-.35-2.51.5-2.5c1.89-.23,4.21.31,6,0,.35-.06.57-.82,1-1,.54-.22,1.33.17,1.5,0,.19-.19-.26-1.03,0-1.5.58-1.04,1.22-1.33,2-3,3.42-7.38,6.88-15.48,10-23,.22-.54-.17-1.32,0-1.5.09-.1,1.99.28,2.5-1l.5,2,4-1c1.04-3.53-3.38-1.38-4-2-.22-.22.23-1.8,0-2.5-.31-.93-2.43-3.86-3.5-4.5-.99-.6-2.06,1.01-1.5-3,3.08-.6,5.21,1.01,8,1v2c.92-.97,4.12.31,5.5,1,1.01.5,5.22,3.47,5.5,4.5.23.84-.21,2.11,0,3,.09.39.92.62,1,1,.24,1.18-.2,2.76,0,4,.06.38.98.65,1,1,.01.18-1.78,1.75-1,3.5l-5-1c.05,1.09.15,2.48,0,3.5-.05.37-.92.61-1,1-.21,1.03.13,2.38,0,3.5l-2-1v2c3.5-.95,3.99,3.18,7,3-.58-2.76,1.73-4.68,4-6l1,7.5c1.14,1.06,1.59,2.72,2,4s-.79,1.82,2,1.5l1-4.5c1.3-1.87,2.75-4.22,3-6.5,1.63-.08,2.27-.48,2,1.5-.19,1.4-1.9,2.74-.5,3.5l1.5-7,2,2,1-2.5-2-.5,1-2h-2c.4-3.45-.25-5.5-4-5v-4c1.88-.44,2.28.25,3.5,1,2.32,1.42,4.98,2.3,8,2,1.35,1.58,3.32,2.91,5.5,3l-2.5,3c-2.08-.5-5.89.4-6.5,2.5-1.5,5.2-3.82,8.23-6,13-3.25,7.1-5.61,14.65-10,22-.15.25.15.77,0,1-1.56,2.46-4.11,3.94-5,0-.56-2.46-1.63-3.65-2-5-.23-.85.6-.74,0-3-.56-2.08-1.73-4.82,0-6-3.14-1.85-1.45-4.44-2-7-.18-.83-2.82-4.17-3-5-.63-2.89-.27-8.34-1-11-.15-.55-1.85-1.45-2-2-.32-1.17.21-3.13,0-4.5,2.19-.58,2.86,2.45,4.5,2,.76-.21.36-1.6,2.5,0ZM126.62,377.13c-.65,0-.65,1,0,1s.65-1,0-1ZM125.62,379.13c-.65,0-.65,1,0,1s.65-1,0-1ZM131.12,380.13c-1.51.42-1.82-.69-3-1v2h3v-1ZM154.62,389.13c-.65,0-.65,1,0,1s.65-1,0-1ZM155.12,391.13h-3v2h3v-2ZM137.62,408.13c-.65,0-.65,1,0,1s.65-1,0-1ZM140.12,418.13l2-6-2.5,3,.5,3ZM138.12,417.13h-2l-1,2.5,2,1.5c-.31-1.71.21-2.62,1-4Z"/>
      <path class="cls-1" d="M393.12,57.13c.15,1.44-.23,3.13,0,4.5.11.66,1.93.72,0,2l2,3-2,3.5c2.7-1.56,4.64-2,4,1.5l-4.5,5.5-1.5-2,.5,3-2.5.5-1,1.5,2,1.5c-.84,1.06-2.27,1.95-3,3-1.65,2.38-3.33,5.52-5,8-.82,1.21-2.27,2.42-3,4l4,6c-.91,1.7-1.92-.26-2.5-.5-5.78-2.42-12.46-6.65-17-10-1.82-1.34-4.06-3.52-3.5-6,2.36-.33,4.73.35,6.5,2,1-1.21,2.52-.97,3.5-2.5,3.35-5.24,8.14-12.9,12-18,2.28-3.01,4.79-2.29,5-2.5.25-.25-.48-4.97,2.5-6l2.5,1,1-3ZM388.62,73.13c-.65,0-.65,1,0,1s.65-1,0-1Z"/>
      <path class="cls-1" d="M84.12,351.13c1.41-.69,2.21-1.38,4-1v-2c2.86.49,5.88,2.39,8.5,4,6.04,3.71,8.8,7.71,11.5,14.5.17.43.92.64,1,1,.34,1.55-.23,3.8,0,5.5l-4,1c.05.77-.48,1.65.5,2,1.18.42,2.23,1.07,3.5,1-.13,1.12.21,2.48,0,3.5-.03.17-.85,2.62-1,3-.38.96-1.66,2.7-2.5,3.5l-1.5-3.5,1-1c-2.14-3.26-4.63-.51-6.5-.5-.93,0-2.27-.67-2.5-1.5-1.01-3.69,2.6-5.65,3-7,.5-1.69,1.86-5.22,2-6,.15-.87.19-5.31,0-5.5s-1.03.26-1.5,0c-1.99-1.11-2.44-6.27-6.5-5,.49-2.45-.88-2.85-2.5-1-1.39-2.34-2.2,1.54-4,1s-1.02-3.56-2.5-4.5c0-.51,0-1.01,0-1.5-.29.14-.87-.16-1,0v4l-4-3,.5,3h-1.5l1,3.5-1,1.5,2,.5c-2.04,2.43-5.09,4.56-7,7-.68.87-1.37.97-1,2.5-2.07.18-3.82-1.37-2-2.5l-1.5-1.5c-1.41.49-4.59-1.9-5.5-1-1.24,1.24,3.4,5.95-1,5v2h-3c.85.85.89,2.89,1,3,.25.24,3.76-.43,5,1l1-3,2,3-5,1c-.21,1.77,1.47.59,3,1.5,3.14,1.88-3.11,6.68-2,.5h-4l3,8,3-3,.5,3h1.5c-.13,2.6,2.53,4.09,4.5,5,.41.19.61.85,1,1,.81.31,2.2-.53,3,1,.8-1.53,2.18-.69,3-1,1.58-.6,2.2-1.65,4.5-2l1.5,1c.62-.15.43-.58.5-1,1.57.26.94,1.53,1,3h-3v3h-2v4c-1.12-.13-2.48.21-3.5,0-3.19-.65-8.15-3.1-11-5-1.04-.69-2.02-2.46-3-3-.47-.26-1.31.19-1.5,0s.26-1.03,0-1.5c-.51-.92-5-5.46-5-6l1-1-1-1,1-1.5c-1.5.32-2.06-.44-3-1.5,1.35-1.04,1.3-4.22,1-6-.02-.13-1.82-1.7-1-2.5.24-.23,2.05.55,2-.5-.25-.42-.91-.66-1-1-.36-1.31.84-1.52,1-2,1.22-3.76,1.58-6.73,4-10,.89-1.2,4.6-4.9,6-3.5,1.24,1.24-3.4,5.87,1,5,.24-2.36-.91-8.29,1.5-9l5-1c1.66-1.38,3.84-2.5,6-2,.63.15,1.33,2.31,3,0l.5.5c-1.13.76-1,1.31-1,2.5ZM78.12,353.13v-2h-1v2h1ZM92.62,353.13c-.65,0-.65,1,0,1s.65-1,0-1ZM86.62,354.13c-.65,0-.65,1,0,1s.65-1,0-1ZM74.12,356.13h-2v1h2v-1ZM67.62,361.13c-.65,0-.65,1,0,1s.65-1,0-1ZM66.62,363.13l-.5.5,1.5,1.5.5-.5-1.5-1.5ZM58.62,377.13c-.65,0-.65,1,0,1s.65-1,0-1Z"/>
      <path class="cls-1" d="M84.12,391.13l6-4c.65,3.24-2.09,1.77-4,2-.05.66.1,1.4,0,2-.57-.09-1.42-.09-2,0Z"/>
      <path class="cls-1" d="M126.12,29.13h3v3h-2c-.26.22,1.93,1.87-.5,3l-3.5-2.5,1-2.5c-2.27-.61-3.46,1.7-4.5,0l-1,1-4.5-1,1,4h7v4c-1.76-.32-3.28.99-3,3l-2-3.5c.41-2.37-.78-1.1-1.5-1.5s-1.5-1.86-2-2c-.77-.21-6.23-.21-7,0-1.1.3-1.22,2.99-3.5,1v3l3-2,1,5c-2.27.61-3.46-1.7-4.5,0l-1.5-1.5c-.37-1.24,3.16-4-1-3.5l1,4.5-1,1c.44.53,1.09.96,1.5,1.5.69.91-1.32,1.66,1,3l-.5-4h3.5l-.5,2,3-2-.5,3h2.5c-.78,2.14,3.13,2.85,1,4.5l3-1.5c-.44,3.02.92,4.44,4,4l-3.5,2-.5-2-2.5,2-.5-3-1,2-4.5-1c-1.06.96,1.33,1.86,1.5,2.5.58,2.13-.41,6.06,0,8.5h-2v1.5l-2,.5c.26-1.66-.41-3.03-1-4.5-1.93-4.8-4.52-11.51-7-16-.38-.69-1.61-1.31-2-2-.26-.47.19-1.31,0-1.5-.17-.17-.94.2-1.5,0-.43-.16-.68-1-1-1-.17,0-.84.87-3,1-6.11.38.39-3.62,2-5l9-3c3.42-1.74,7.26-4.35,11-6,1.78-.79,4.42-1.97,6,0l.5-.5-1-1.5c1.76.18,3.82-.26,5.5,0,.37.06.6.91,1,1,2.13.49,4.69-.72,4.5,3ZM108.62,46.13c-.65,0-.65,1,0,1s.65-1,0-1ZM103.12,59.13v-2h-1v2h1ZM106.12,59.13v-2h-1v2h1Z"/>
      <path class="cls-1" d="M144.12,31.13c.23.23,2.05-.55,2,.5-1.21,1.35-1.55,3.63-2,5.5,1.76.53.56-2.6,1.5-2,1.08.69,2.04,1.56.5,2.5l4,.5-.5-2c1.21,1.39,2.3.68,4,2,.9.7,1.62,1.75,2.5,2.5-1.09,1.54-2.16,1.73-4,1.5l1,5,1-2,2.5,2,3.5-2v2h2c-.59,1.95,1.34,2.32,2,3.5.26.47-.19,1.31,0,1.5.17.17.96-.23,1.5,0,.59.25,2.64,1.92,3,2,.89.19,4.12.2,5,0,.36-.08.57-.8,1-1,.31-.14.78.13,1,0,.53-.32,4.42-4.19,4.5-4.5.43-1.57-.43-4.43,0-6,.29-1.06,3.22-1.62,1-3l-1-8.5,1,4.5,3,.5-2,2,4,1.5-2,.5v2c-1.76-.32-3.28.99-3,3,2.21-.4,3.19.38,4.5,2h2c2.2-1.46,1.42-3.7,1.5-6h2l-1-1.5.5-.5,1,1,2.5.5-3,7c-.87,1.52-7,8.06-8.5,8.5-1.3.38-3.78.58-5,1-.52.18-2.64,1.92-3,2-1.96.42-4.86-.31-7,0-.4.06-1.51,1.58-4,1-.38-.09-.6-.88-1-1-3.62-1.04-7.79-1.87-11-4-.97-.65-3.74-3.49-4.5-4.5-.15-.2.17-.76,0-1-.72-1.03-2.65-2.73-3-4-.24-.88-.95-3.65-1-4-.24-1.53.16-3.39,0-5l-2,.5.5-3c.81,1.5,1.98.58,2.5-.5.73-1.53-.78-1.83-2-1.5.07-1.15-.12-2.36,0-3.5.19-1.89.79-2.8,1-4.5l2,2.5c.25.88-1.98,3.51-1,4.5ZM152.12,39.13h-2v1h2v-1ZM153.62,48.13c-.65,0-.65,1,0,1s.65-1,0-1ZM160.12,53.13c.24-2.52-1.6-3.37-4-3v3l2.5-1,1.5,1ZM161.62,51.13c-.65,0-.65,1,0,1s.65-1,0-1Z"/>
      <path class="cls-1" d="M310.12,389.13l-1,3c2.89-.96.9-4.01,4.5-3,.39.11.6.88,1,1,4.2,1.3,7,3.35,11,5,.54.22,1.29-.17,1.5,0-1.13,1.65-1.15,2.98-1,5,1.49-.42,5.7.13,5,2.5-.24.82-1.73,2.08-2.5.5l-3.5,2,7,1-2-2h4.5l-.5-2c4.95-.33,5.95,3,8,6.5-.8,1.75,3.89,7.63,3,8.5-1.7-.23-3.95.34-5.5,0-1.91-.42-7-4.7-8-5-4.22-1.25-8.37-2.16-12-5-3.75-.05-6.7-3.54-10.5-4l.5-2,2.5-1-1-2h-5c-.62-2.54,2.23-3.95,0-5.5,1.13-1.14,2.37-1.78,2-3.5h2ZM333.62,406.13c-.65,0-.65,1,0,1s.65-1,0-1Z"/>
      <path class="cls-1" d="M199.12,239.13c.1.09-.9,1.95-1,2-.35.17-1.38-.09-2,0,.16-.46-.08-1.36,0-2h3Z"/>
      <path class="cls-1" d="M199.12,239.13c-.47-.45.9-1.12,1-1.5.54-2.04-.95-2.7-1-3-.25-1.4-.24-5.58,0-7,.06-.38,1.55-.9,1-2.5l1,2,2-1.5v-1c-1.41-1.25-1.3-4.96-1-7,.05-.37.91-.6,1-1,.37-1.58-.7-3.2,1.5-4.5,1.04.35.16,1.67,1,3,.63,1,1.36,1.18,2.5,1v.5c-1.76,3.03-4.76,5.52-4,9.5l2-2,.5,2,2.5,1-5,.5,2.5.5c1.01.28,2.62,3.76,2.5,5l5-1.5-5,4,2,.5-2,2,2,2c-1.68.19-3.06.08-4-1.5-.37-.62.73-1.82-1-1.5.64,2.55-1.05,3.14-2,5h2c-.49,1.8.67,4.5,2.5,4,.55-.15,1.44-1.83,2-2,.6-.18,1.49-.23,2.5-.5,1.33-.36,3.3-1.71,3,1-1.28,2.23-3.02,1.1-4.5,1.5-.58.16-3.59,1.93-4,2-1.77.32-4.47-.42-6,0-.86.24-1.61,2.74-3.5,2,.55,4.16-2.89,7.27-3,11.5-1.57,2.52-2.24-.26-3.5,1.5l-2.5-1c.29-1.31,1.74-1.28,0-2.5.01-.18,1.82-2.5,2-3,1.85-5.17,2.79-10.05,4-15,.17-.68.98-.45,1-.5v2c1.22.18,1.87-1.94,2-2,.95-.46,3.7.61,1-2ZM204.62,217.13c-.65,0-.65,1,0,1s.65-1,0-1ZM206.12,232.13h-2l1.5,2h.5v-2Z"/>
      <path class="cls-1" d="M418.12,300.13l-1,2h2c-.52,2.48.79,3.95,1,6-1.5-.32-2.06.44-3,1.5l1,4.5-1.5-2c-1.27,1.33-6.09,1.43-8,1-.62-.14-1.33-2.31-3,0l-1.5-1v2c-1.49-1.62-2.74.29-3,0-.43-1.83,1.96-2.64.5-4l1.5-1-1.5-2c-2.13,1.59-3.07.36-2.5,4-2.11.06-3.77.42-5-1.5-1.13-1.77-2.74-4.37-4-6-.67-.87-2.83-2.44-3-3-.95-3.15,7.28-2.83,9.5-2.5,3.04.45,3.12,1.87,7,1,2.7-.6,4.33.92,5,1,2.97.37,6.45-.26,9.5,0ZM397.62,302.13c-.65,0-.65,1,0,1s.65-1,0-1ZM399.12,304.13h-2v1h2v-1Z"/>
      <path class="cls-1" d="M114.12,55.13c-.49,2.18,1.97,2.96,3,4.5.92,1.37,1.39,4.59,3,6l-2,2,1,3.5c1.62.55,2.05-.89,2.5-1,.89-.21,2.16.23,3,0,.44-.12,1.33-1.52,2-2,.2-.15.75.16,1,0,1.92-1.23,1.56-2.89,1.5-5h3l-2,1.5,1.5,2.5c3.07-3.95,5.05-1.23,4.5,3-.17.17-.96-.23-1.5,0-1.79.75-2.57,2.68-4.5,1,.41,2.43-1.14,2.36-2.5,3-3.61,1.7-8.32,3.3-12,5-4.68,2.16-9.01,5.3-13,8-.7.48-1.29,1.44-2,2l-4.5-3.5,1-3.5h2v-2c4.32,2.67,8.03-.03,11-3.5-1.74-.74-.63-4.13-1-4.5-.19-.19-1.03.27-1.5,0-1.6-.91-2.34-4.26-3.5-6,2.03.33,2.32-1.84,3.5,0l1.5-1v2h3.5l.5,3,2-5,3,1c.41-3.76-.02-2.34-1.5-3-.67-.3-.85-1.51-2.5-1l-2-7h2ZM100.62,82.13c-.65,0-.65,1,0,1s.65-1,0-1ZM104.12,83.13h-2v1h2v-1ZM98.62,84.13c-.65,0-.65,1,0,1s.65-1,0-1ZM100.62,84.13c-.65,0-.65,1,0,1s.65-1,0-1ZM100.62,86.13c-.65,0-.65,1,0,1s.65-1,0-1Z"/>
      <path class="cls-1" d="M193.12,33.13h-3v1.5l-4,.5c-.73-3.47,2.54-.89,4-3.5.26-.47-.19-1.31,0-1.5.14-.14,2.95.06,3-2l-2-.5,1-1-.5-.5c-.81,1.52-2.11.7-3,1-.39.13-.59.83-1,1-.54.22-1.32-.17-1.5,0-.23.22.55,2.05-.5,2l-2.5-3.5,3-.5-1-3c.84,4.07-2.66-.33-4,1-.9.9.57,2.68,1,3.5.33.63,2,2.82,2,3,0,.34-.93.61-1,1-.23,1.27.88,3.7-1,3.5v-5h-3c.53-1.65-.79-1.91-1-2.5s.2-1.38,0-2c-1.06-3.3,0-2.36,0-3,0-.33-.89-.59-1-1-.35-1.31.43-2.27-1.5-3.5-.25-.16-.79.15-1,0-1.64-1.16-4.62-4.13-4.5-6-.41-.5-1.13.9-1.5,1-1.32.36-1.6-.91-2-1-2.43-.55-4.28.63-6.5,1l2-3-6,.5,4.5-2.5c2.56-.45,3.33.3,5,1,2.39,1,.61-3,3-2,3.95,1.65,6.89-1,11,3l1-1c1.61,2.59,9.84,7.21,10.5,9.5.19.66-.23,1.49,0,2,.52,1.16,2.93,3.76,3,4,.24.87.19,4.94,0,6-.07.39-1.55.89-1,2.5ZM163.62,10.13c-.65,0-.65,1,0,1s.65-1,0-1ZM181.12,13.13l-5,1c5.98-1.22,1.42,4.51,2,6.5l3.5,2.5c2.43-1.14.24-2.77.5-3,3.08.44,4.44-.98,4-4l-5-1v-2Z"/>
      <path class="cls-1" d="M26.12,324.13l-1,.5,1,.5v6c-2.79-1.98-1.54-.29-3,2h2v2h3c-.05,1.49-.32,2.64,1,3.5l-1,5c1.53.79.68,2.21,1,3,.16.39.81.59,1,1,.14.31-.13.78,0,1,.46.77,2.65,2.81,3.5,3.5.19.16.78-.17,1,0,1.72,1.34,1.8,1.98,4,3,.81.37,3.55,1.92,4,2,1.64.29,3.76-.2,5.5,0-.28,3.14-3.57,5.68-6.5,5-.39-.09-.61-.91-1-1-.89-.21-2.18.24-3,0-3.72-1.09-9.79-5.89-12.5-9.5-.94-1.25-3.57-5.27-2-6l-2-.5,1-4h-2c-.2-1.74.29-3.86,0-5.5-.07-.37-.88-.59-1-1-.76-2.5,1.77-3.16,2-4,.39-1.42.48-2.38,1-4,.19-.59-.18-1.37,0-2,.41-1.43,3.84-2.47,4-.5Z"/>
      <path class="cls-1" d="M26.12,324.13l2-1v3c-.1.12-1.92-.92-2-1-.17-.18.17-.83,0-1Z"/>
      <path class="cls-1" d="M192.12,400.13l-2-1.5c.15-2.95,3.37-3.46,5-1l-1,6.5c-1.38-.4-2.69-1.46-1-2.5l-4-.5,2,1.5v1.5h2c-1.24,1.9-1.24,2.1,0,4l-2,.5c1.72.98,1.3,4.97-.5,5.5-.52.15-2.5.35-2.5-.5v-5.5l2,2,1-4-3.5,1-1.5-1.5,1-1.5h-2l1-3c-1.08-.03-.83,1.23-2,.5-3.04-1.89-5.29-4.2-9.5-3.5-.66.11-.72,1.93-2,0l-.5.5,1,1c0,.72-3.78,2.72-5,2.5l2,1c-1.53,1.9.16,2.01,0,4l-1-2h-3l-1,7v-4h-2l-1,2.5,1,4.5-1-3h-2c.26-2.56-1.59-4.22-1-7h2l2-5.5,4.5-4.5.5,2.5,3-1-2-3.5c1.74-.2,3.86.29,5.5,0,.28-.05,1.05-1.59,3-1,.76.23,1.95,1.75,4,1l10.5,7ZM165.62,399.13c-.65,0-.65,1,0,1s.65-1,0-1ZM168.62,399.13c-.65,0-.65,1,0,1s.65-1,0-1ZM166.12,402.13h-2v1h2v-1ZM162.12,408.13l-2-2v2h2Z"/>
      <path class="cls-1" d="M61.12,81.13c-3.22-4.49-3.12-14.4-4-20.5-.03-.18-2.05-2.46-1-3.5,1.41-1.39,7.25,3.29,8.5,4,.25.14.75-.14,1,0,1.78,1.02,3.43,2.97,5.5,3l-1,3c-1.49.05-2.64.32-3.5-1l-2,1c-1.04-1.7-2.23.61-4.5,0,1.62,1.84-.02,2.21,0,2.5.03.35.94.62,1,1,.28,1.66-.19,3.75,0,5.5h2l-1,1.5,1,1.5c-2.04.11-2.25-.56-2,2Z"/>
      <path class="cls-1" d="M63.12,79.13c.99-.05,2.01.03,3,0v7h2v3c2.59-1.66,4.43-4.48,8-4l2,3.5c-1.43,2.16-3.65.87-5,3-.16.25.15.79,0,1-.63.9-2.84,2.43-3,3-.49,1.77.7,6.99,2.5,7.5,2.55.73,3.15-1.77,4-2,1.51-.42,4.33,3.17,3.5,4-3.13-.08-3.57,3.99-7,3,.57,2.03-3.54,3.9-5.5,5-1.32,1.18-2.45,3.13-2.5,5h-3l-1-2.5,1-1c-1.84-1.18.33-1.47,0-3.5l-5,2c.59-2.92-2.8-2.63-4-4.5l-2-6.5c1.09.16,2.58-.25,3.5,0,.37.1,5.39,5.13,5.5,5.5.21.72-.21,2.29,0,2.5.13.13,1.87-.35,3,1.5.59.96-1.02,2.07,3,1.5-.75-1.55-1.1-1.09-.5-3,.08-.27.4-1.89.5-2.5,1.01-6.08-2.94-16.79-4-23-.11-.63-.65-3.01-1-3.5l2-2ZM70.12,104.13l-2,1.5,2.5,2.5.5-.5c-1.32-.86-1.05-2.01-1-3.5ZM58.62,110.13c-.65,0-.65,1,0,1s.65-1,0-1Z"/>
      <path class="cls-1" d="M20.12,96.13c.68.67-1.88,4.9-3,5.5v1c2.57,2.11,3.58,3.52,3,7-.1.61-1.63.4,0,2.5h-3.5l-2.5,2,1.5,1-.5,1c1.5-.32,2.06.44,3,1.5l-1,1.5c3.1-.21,3.27,2.25,3,5h3v-2c1.91.99,2.45,2.63,5,2l-1,1.5,1,1.5h-2v3c-1.11-.06-1.67-1.43-2.5-2-4.14-2.88-6.78-6.62-11-10-.21-.17-.81.16-1,0-1.42-1.17-2.6-2.78-4-4-1.26-.36-3.53,1.88-4.5,2.5-1.33.84-2.71.03-3-1-.69-2.46,1.82-3.47,3-5,.17-.22-.16-.8,0-1,1.75-2.2,11.07-11.82,13-13,1.33-.82,2.59-.46,4-.5ZM11.12,110.13c2.89.24,3.63-2.79,5-4.5l-1.5-3.5-1,3,.5,1h-3v4ZM12.12,114.13v-3h-1v3h1Z"/>
      <path class="cls-1" d="M55.12,123.13c-.26-1.18-1.12-3.08-1-3.5.14-.5,1.54-.86,1-2.5l1.5,1c.88-1.08-1.24-1.06,0-3,.87-1.37,2.11-1.03,3.5-1l1,5.5-5,.5,3,2.5c.52,1.74-2.49,2.85-3,3.5l1-3c-.65-.07-1.46.14-2,0Z"/>
      <path class="cls-1" d="M55.12,123.13c.16.73-.11,1.69,0,2.5l1,.5c-.45.57-1.11,1.69-1,2.5l-18.5,19.5-2.5-2.5,3-5-10-9,3.5.5c.6.45,2.82,2,3,2,.22,0,.98-1.55,2.5-1l1.5,6,1-3c1.05-.05.27,1.78.5,2,.67.65,4.01-.28,4-2-1.72.69-4.92-3.03-4-4,3,1.98,1.14.38,3-1.5-1.08-1.27-2.04-2.93-2-4.5h-5c1.15-1.83,1.87-4.71,0-6.5.81-.9,1.9.93,2.5,1.5,2.74,2.58,5.28,5.39,8,8h1c2.33-2.7,3.85-4.9,7-7,.44.59.77.82,1.5,1ZM54.12,126.13h-3v1c1.51-.42,1.82.69,3,1v-2ZM43.62,132.13c-.65,0-.65,1,0,1s.65-1,0-1ZM46.62,132.13c-.65,0-.65,1,0,1s.65-1,0-1Z"/>
      <path class="cls-1" d="M73.12,335.13c.31.31,4.14.2,4.5-1,1.56,0,3.16,6.63-1,5l-10,8c-1.19.35-3.21-.43-3.5-1.5-.11-.42.72-2.42,1-3,1-2.1,2.09-5.26,4-4.5-.2-1.74.29-3.86,0-5.5-.42-2.34-3.54-4.96-4-7-.23-.99.14-2.39,0-3.5l-2,.5,1-1-2-3,.5-1.5-.5-3c.4-.49,1.93,1.6,2.5,2,2.81,1.97,3.69,3.43,5.5,6.5,1.6,2.71,3.25,7.26,4,10,.2.74-.21,2.29,0,2.5Z"/>
      <path class="cls-1" d="M60.12,315.13h-5l1,5c-2.87-.86-5.37,2.43-7.5,0l-.5,2-4-2.5,6-4.5-7.5-1c-.86-1.32-2.01-1.05-3.5-1,1.86,2.23-.89,3-2.5,5l-1-1c-2.13,1.59-3.07.36-2.5,4-3.37.97-4.16-1.69-7-2-.18-2.07,1.37-3.82,2.5-2,.65-1.56,3.25-.75,3.5-1,.16-.16-.48-3.43,1.5-4,.63-.18,1.41.19,2,0,.79-.25,1.32-2.27,3,0l.5-.5-1-1c.54-.34,1.09-1.39,1.5-1.5,1.24-.34,7.37-.2,9,0,.37.05.62.93,1,1,1.22.22,2.82-.24,4,0,.38.08.6.88,1,1,.65.18,1.46-.22,2,0,.39.16.59.81,1,1,1.26.59,2.9.51,2.5,3ZM56.12,312.13h-2v1h2v-1ZM37.62,313.13c-.65,0-.65,1,0,1s.65-1,0-1ZM52.62,313.13c-.65,0-.65,1,0,1s.65-1,0-1ZM36.12,314.13c-1.9-.29-3.29,1.1-3,3l3-3Z"/>
      <path class="cls-1" d="M159.12,421.13c.15,1.44-.22,3.13,0,4.5.06.37.91.6,1,1,.73,3.14-.98,4.59-3.5,5.5-1.46.53-.25,3.93,1.5,4l1.5-5c1.14,1.13,1.78,2.37,3.5,2l-1,2c2.29-.79,4.16,3.61,5.5,4,.63.18,1.41-.19,2,0,.41.13.63.93,1,1,1.68.3,8.1-.39,8.5,0l-1,3,4,1-4.5,1c-2.26-.19-4.8.27-7,0-.37-.05-.62-.93-1-1-1.22-.22-2.94.29-4,0-1.48-.41-3.89-4.19-1.5-5.5l-.5-.5c-.42,0-1.57,2.74-4,2-.47-.14-.69-1.36-2-1-.83.23-1.48,2.74-4,2-2.05-.6-2.17-4.77,0-6,.47-.27,1.31.19,1.5,0,1.02-1.02-1.17-4.89-1-5.5.11-.4.91-.62,1-1,.65-2.91-1.29-7.03,4-7.5Z"/>
      <path class="cls-1" d="M199.62,51.13c-.34.07-1.08,1.49-1.5,1-.27-1.31.16-3.63,1.5-4,.63-.17,1.41.19,2,0,.41-.13.62-.91,1-1,.98-.23,2.39.15,3.5,0v-7h1.5l.5-2c1.11,1.21,3.85.86,4,1,.1.1-.28,1.98,1,2.5l-3,2.5,3,.5-1,1.5h2v2c2.57,1.08,3.99-2.41,5.5-2,1.31,1.95,5.74,0,6.5,2.5.29.95-1.17,2.5-1.5,2.5h-25Z"/>
      <path class="cls-1" d="M444.12,299.13l-1,5.5c-2.38,3.54-5.04,7.24-6,11.5h-3v-2l-5,1,2-1.5-1-1,3-4-3,1.5v-2h-2l3-4.5-3-2.5c2.02-.27,2.71,0,4,1.5,1.63,1.89.2,3.15,4,2.5l-2-3c1.37-.21,3.33.32,4.5,0s2.61-4.22,5.5-3Z"/>
      <path class="cls-1" d="M289.12,393.13c-2.31-.15-4.69.1-7,0v-3c1.89.74,2.64-1.76,3.5-2s2.11.21,3,0c.46-.11.87-1.55,2.5-1l2,3v-5h3c-.12,1.13.19,2.44,0,3.5-.16.92-1.46,3.15,0,4l-1,3,2,1c1.56-1.71,2.5-3.01,5-2.5l1,1-3.5,1,.5,2h-2c1.42,2.27,3.46,4.17,3,7l-2-2,1.5,3,.5,4-3-1c.61-2.27-1.7-3.46,0-4.5v-3l-2.5,1.5c-2.39-2.11-2.8-5-2.5-8h-1.5c-.96-1.57-2.32-.13-2.5-2,1.69.11,2.47-.13,4,1,.87-2.2-3.04-3.96-4-3-.07.07-.06,1.41,0,2Z"/>
      <path class="cls-1" d="M187.12,277.13v3c-.41.41-3.4-.95-3,1l2,.5.5,1.5.5-2c3.7-.44,1.74,2.15,0,3.5l1,1c-1.76,3.53-3.12,7.69-4,12l-4.5,7.5c-3.08-1.97.16-3.4-.5-5.5-1.66-5.22-.35-3.16,1-7,2.72-7.77,3.99-15.39,6-23,.15-.59,1.75-1.67,1-3.5l1,2.5,2,.5.5-2h1.5l-1-2,3-.5c-1.72,1.03-.65,2.77-1,4-.2.7-1.82,3.32-2,4-.7,2.57.82,5.04-4,4.5Z"/>
      <path class="cls-1" d="M423.12,338.13c-.21.21-.69,4.42-1,5.5-.38,1.31-3.41,3.13-5,2.5-.36-.37.34-4.28,0-5.5-.08-.29-2.33-3.81-3-5-.37-.67-1.49-1.29-2-2,3.21-4.38,4.87-1.97,8.5.5l4.5-4c.6,2.64,2.36,6.37-.5,8-.47.27-1.31-.19-1.5,0ZM418.12,335.13h-2v1h2v-1ZM421.62,339.13c-.65,0-.65,1,0,1s.65-1,0-1Z"/>
      <path class="cls-1" d="M391.12,50.13c-1.75.78-3.32-1.01-3.5-1-.35.02-.62.93-1,1-1.06.18-2.37-.12-3.5,0v2l-2.5-2,.5,3c-2.78.12-4.51,3.68-8,3-.74-3.34.65-3.58,2-5.5.21-.29.04-1.67,1.5-2.5,2.48-1.41,1.08-1.17,2.5-3.5.52-.85,1.85-1.62,2.5-2.5,1.68,1.35,5.73,2.76,3.5,4.5l.5.5,1-1,4.5,4Z"/>
      <path class="cls-1" d="M228.12,169.13l2,4h-4c.07,1.75-.54,3.47,1,4.5l-2.5,3.5-.5-.5v1.5l-3-.5c-.77.99-2.28.29-3.5.5-.38.07-.67,1-1,1-.21,0-.98-1.55-2.5-1v-5c-.66-.05-1.4.1-2,0-.14-.53.07-1.36,0-2,1.6-.55,2.11.93,2.5,1,1.07.18,5.12.24,6,0,.51-.14,2.16-2.34,3-3,.2-.16.78.17,1,0,.95-.72,3.28-3.51,3.5-4Z"/>
      <path class="cls-1" d="M212.12,177.13c.19.71.4,1.07,1,1.5l-.5,3.5-4.5-2.5,1-2.5h-5v-4l2,.5c-1.3-1.78-3.12-2.26-4.5-.5-3.28-2.05-2.01-3.79-2.5-6.5-.07-.38-.95-.63-1-1-.17-1.35-.26-4.82,0-6,.08-.37.83-.57,1-1,.67-1.67,1.49-3.27,2-5,1.23-.99,2.27-2.61,3.5-3.5.21-.15.76.16,1,0,.68-.46,1.53-1.87,2-2,.66-.19,1.5.23,2,0,.62-.29,2.64-1.92,3-2,1.2-.26,4.64-.17,6,0,.37.05.62.93,1,1,1.23.22,2.85-.26,4,0,.12.03,1.8.88,2,1,.96.57,1.98,2.19,3,3,.2.16.78-.17,1,0,1.34,1.02,2.91,3.15,3.5,4.5.24.55-.23,1.42,0,2s1.91,2.62,2,3c.52,2.28-.9,3.51-1,5.5l-2-2c-.71,1.93.8,2.87,1,3.5.41,1.32.61,3.65,1,5,.24.84,2.68,1.56,2,3.5l-3,1c-.36-2.58-1.97-3.56,0-6h-2v-2h-3c.17-.38-.09-1.37,0-2h2c-1.01-1.7-1.82-3.13,0-4.5-2.42-1.46-1.89-4.14-3-6-1.16-1.96-3.48-2.77-5.5-3.5-.41-.15-.62-.9-1-1-.84-.23-2.11.21-3,0-.39-.09-.61-.91-1-1-3.57-.84-3.99,1.71-5,2-.62.18-1.38-.18-2,0-.31.09-4.41,4.19-4.5,4.5-.43,1.49-.32,3.7-2,5l1,5-3-.5,2.5,2c2.29-.04.46.58,3,2,1.8,1,5.18,3.35,4.5,5.5.16.62.59.43,1,.5ZM200.62,164.13l-.5.5,1.5,1.5.5-.5-1.5-1.5Z"/>
      <path class="cls-1" d="M417.12,66.13v3.5l-2,2.5-.5-2h-2.5c1.28-1.98,1.7-3.37-.5-5-.5.78-2.32,1.91-2.5,2.5-.23.78.58,2.39-.5,2.5l-4.5-5.5,1-1-1-2.5h-2c2.28,2.71-.81,4.58-3,6,1.08-4.72-2.03-4.04-4-7h4v-2h1.5v2l.5-3c.8.11,1.85-.19,2.5,0,.86.25,8.26,7.86,10,9h3.5ZM401.12,64.13v-3h-1v3h1Z"/>
      <path class="cls-1" d="M281.12,276.13c.19.19-.26,1.03,0,1.5.53.94,1.27,1.67,2,3,.82,1.49,2.73,3.04,1,4l3,.5-3,1.5,3,2.5-3.5,2-2.5-3.5,2-1.5h-3l1-4c-.91.58-3.39,1.62-4,1-.19-.19.26-1.03,0-1.5-.4-.72-2.99-3.23-3-4,.48-1.86,6.64-1.86,7-1.5Z"/>
      <path class="cls-1" d="M374.12,388.13l1,3h-5l.5,2h1.5v3c-2.49-.82-5.48,5.6-7.5,5-4.1-1.22,1.34-4.93,1.5-5.5.38-1.36-.4-6.1,0-6.5,1.12.13,2.48-.21,3.5,0,.21.04,1.44,1.81,2.5,1,.26-.2-.86-2.98,2-2Z"/>
      <path class="cls-1" d="M296.12,438.13c-1.63-.49-3.68,1.82-4.5,2-2.07.46-5.23-.32-7.5,0l2-2-2-5,2.5,1,3-2,6.5,6Z"/>
      <path class="cls-1" d="M321.12,377.13l1.5-1-.5,3c.12.14,2.26-1.88,3,.5.37,1.19-1.87,3.16-3,3.5l-1-4.5-1.5-1.5c-.98,1.65-2.55.71-4,1-.46.09-1.52,2.37-3,0-.67-1.08-.56-1.84-.5-3l10-4-1,6Z"/>
      <path class="cls-1" d="M94.12,80.13l-2-2,2,4.5c-1.16.29-.51,3.43-2.5,2.5-1.76-.83-1.99-5.56-4-3-1.54-1.1-1.73-2.14-1.5-4l-3,.5c1.45-1.82.9-4.11,3.5-1.5l3-2c2.24,1.64,5.2.65,4.5,5Z"/>
      <path class="cls-1" d="M331.12,388.13l-3,.5c1.63,1.75.54,4.86,4,4.5l-2-3.5,2-.5c-1.05,2.54,1.75,3.62,2,4.5.18.62-.17,1.38,0,2,.23.83,2.69,1.57,2,3.5l-1.5-2-1.5,1v-2h-3v-2l-2,1-1-3.5-4-7,5-1.5c-.33,2.03,1.84,2.32,0,3.5l.5.5c1.04-1.69,2.1-.38,2.5,1Z"/>
      <path class="cls-1" d="M135.12,45.13l-3,3,4-.5v-1.5c1.64-.48,1.76.62,2.5,1,.29.15.79-.13,1,0,.72.46,2.2,2.74,2.5,3.5.22.54-.18,1.35,0,2,.12.41.93.63,1,1,.59,3.3-.69,6.29-1,9.5l-2-2.5,1-2-1-1,1-2.5h-4c1.15-1.28.69-2.53,1-3.5.13-.4.88-.6,1-1,.59-1.96-1.59-4-2-3.5l-.5,3h-1.5l1,2h-4l2-3-3.5-2-2,1-1.5-2.5c.87-1.75,2.33.52,2.5.5.36-.03.62-.94,1-1,1.37-.22,3.06.15,4.5,0Z"/>
      <path class="cls-1" d="M93.12,395.13c.33.31,2.36-.82,2,1l-2.5,1,2,2-11.5,2c-.56-4.01.51-2.4,1.5-3s1.54-2.39,3-2c.81.22,1.57,2.69,3.5,2v-6c2.04.03,1.87,2.88,2,3Z"/>
      <polygon class="cls-1" points="350.12 73.13 351.12 69.13 353.12 69.13 354.62 66.13 358.12 68.63 353.62 74.13 350.12 73.13"/>
      <path class="cls-1" d="M290.12,275.13l2-1c-.43,2.31,1.15,4.05,2,6l-3,1-1-2-1,3-.5-3h-1l.5-2.5-2-1.5h3l.5-2,.5,2Z"/>
      <path class="cls-1" d="M310.12,429.13c-.19-.19.27-1.03,0-1.5-1.25-2.19-3.81-1.31-4-1.5-.21-.21.21-1.78,0-2.5-.44-1.49-5.3-5.1-3-7.5h-2l-1-2.5,2-.5,1-5,4,6.5v3.5h2c-.39,1.68,1.44,3.17,2,4.5.23.54-.17,1.33,0,1.5.15.15,2.83.2,3.5,2l3-2,3.5,1-1.5,3-3.5-2c-.4,1.79,1.74.72,2,1,.77.84-1.36,4.25-2.5,2l-2,2-.5-.5,1-1.5h-4c.15.06,1.46,2.52,1,3l-4,2-1-2-4,3,1-4c2.39.03,4.02-3.29,7-2ZM314.62,427.13c-.65,0-.65,1,0,1s.65-1,0-1Z"/>
      <path class="cls-1" d="M406.12,322.13h2v1.5l2,.5-1.5,1,.5,2h-2v-2h-2l1-2c-2.74.21-3.96-2.74-5-5l3.5-1c1.93,1.28,1.57,2.93,1.5,5Z"/>
      <path class="cls-1" d="M412.12,73.13h2l-1,4c-2.91-.82-2.76,2.75-3,3-.11.11-2.15.15-3,1,.05-2.21,2.32-3.79,0-5.5,1.01-1.3,1.8-1.8,3.5-1.5l.5-3,1,2Z"/>
      <path class="cls-1" d="M85.12,81.13v2l4,1-1,2.5,1.5,3.5-2.5-.5-2-2,2-3.5c-1.88-.35-.3,1.58-1.5,2-1.66.58-2.16,1.34-3,0l-3.5,1v-4h5l-2-2h3Z"/>
      <path class="cls-1" d="M183.12,417.13c-2.01.16-4.28-.68-5.5,1l-2.5-2.5c1.82-1.19-.42-1.68,0-3.5,3.82-.82,6.07,2.12,8,5ZM177.62,413.13c-.65,0-.65,1,0,1s.65-1,0-1Z"/>
      <path class="cls-1" d="M244.12,218.13l1,6h-2v4l-2-1.5-2.5,1.5,4.5-5.5c.32-1.82-.24-1.64-2-1.5v-3h3Z"/>
      <path class="cls-1" d="M102.12,387.13v2h1v-2c.13.28,2.94.72,1.5,3-.51.8-2.17,2.27-3,3-1.13.99-1.65,2.39-3.5,2l2-3.5-1-1c-.05-1.05,1.77-.27,2-.5.75-.74-1.27-2.77-1-3h2Z"/>
      <path class="cls-1" d="M103.12,387.13h-1v-2h1c.09.63-.17,1.63,0,2Z"/>
      <path class="cls-1" d="M168.12,419.13c.13.11-1.87,2.4.5,3,3.1.78,4.79-2.86,7.5,1.5l-1,4.5c-3.46-3.02-6.81-5.37-10-8.5l3-.5Z"/>
      <path class="cls-1" d="M290.12,292.13l-1,3,6,1-1.5-2,2.5,3c-1.7-.23-3.96.34-5.5,0-.36-.08-.57-.8-1-1-.31-.14-.78.13-1,0-.78-.46-4.44-4.12-3.5-5l5,1Z"/>
      <path class="cls-1" d="M191.12,433.13c-1.27-.23-4.13,1.87-5,1-.11-.11-.39-2.96.5-3h1.5v-5c2.01.49,2.06,2.35,2.5,4,.24.91.83,1.78.5,3Z"/>
      <path class="cls-1" d="M277.12,439.13v2l2.5-1,2.5,2c-2.39.23-5.2-.33-7.5,0-.32.05-1.75,1.78-3.5,1,.15-3.42,3.09-4.5,6-4Z"/>
      <path class="cls-1" d="M80.12,72.13v-2c-2.01.16-4.28-.68-5.5,1-2.11-1.43-.63-3.72-3.5-3l1-3c.23-.27,2.81,1.62,3.5,2,1.61.89,4.46,2.03,6,3,.53.34.95,1.08,1.5,1.5l-3,.5Z"/>
      <path class="cls-1" d="M144.12,254.13l-1.5,1,2.5,3c-2.26-.42-4.01-1.48-6.5-1l-1.5-2.5,4-.5v-2l3,2Z"/>
      <path class="cls-1" d="M436.12,317.13c-.57,1.34-2.25,4.62-3.5,5-.88.27-2.34-.94-2.5-1.5-.29-1.04,1.75-2.68,1-4.5l5,1Z"/>
      <path class="cls-1" d="M135.12,228.13h-2c.42,2.75-1.93,4.82-3.5,7l1.5-3.5-2-2c1.1-1.46,2.81-1.92,4.5-2.5.79-.27.6-2.53,2-3l-.5,4Z"/>
      <path class="cls-1" d="M218.12,192.13v3c-3.18-.36-4.65,0-7,2l1-4c1.78.76,3.3-.99,3.5-1,.29-.02.66,1.62,2.5,0Z"/>
      <path class="cls-1" d="M272.12,266.13c.16,1.09-.25,2.58,0,3.5.67,2.43,2.32.5,2.5.5.12,0,1.86.91,2,1,.5.31,2.79,2.21,2,3-.94-.62-1.51-2.87-3-1s1.96.05,1.5,2c-2.23-.02-2.7-1.9-5,0,.22-2.08-2.24-2.92,0-4.5-.78-1.29-1.58-1.18-2.5-1.5s-.16-1.85-1.5-2.5l4-.5Z"/>
      <polygon class="cls-1" points="174.12 415.13 171.12 407.13 175.12 408.63 174.12 415.13"/>
      <path class="cls-1" d="M133.12,54.13c-.82,4.51-2.71,6.95-6,2.5l2,.5,4-3Z"/>
      <path class="cls-1" d="M203.12,179.13l4-1c.16,3.28-2.5,3.23-5,3l.5,2-1.5-4.5,1.5-1.5.5,2Z"/>
      <path class="cls-1" d="M366.12,386.13l-.5,2h-1.5l-.5,2-4.5-5.5,2.5-.5c1.31,1.62,2.29,2.4,4.5,2Z"/>
      <polygon class="cls-1" points="363.12 375.13 363.12 378.13 360.62 379.13 358.12 376.63 360.12 374.63 363.12 375.13"/>
      <path class="cls-1" d="M238.12,8.13c.1.15,4.31-.06,2,3l3,1c-4.39.66-6.65-1.86-6-6,1.79-.38.68,1.54,1,2Z"/>
      <polygon class="cls-1" points="34.12 119.13 33.12 121.13 29.12 120.63 30.12 117.13 34.12 119.13"/>
      <path class="cls-1" d="M70.12,73.13c-3.35.32-2.64-2.75-4-5,3.75-.5,4.4,1.55,4,5Z"/>
      <path class="cls-1" d="M152.12,256.13c.81,3.59-3.93,1.52-6,2l1-3,5,1Z"/>
      <path class="cls-1" d="M185.12,422.13c-.02-.05-.83.18-1-.5-.41-1.67.96-1.4,1-1.5v2Z"/>
      <path class="cls-1" d="M185.12,420.13c.2-.51-.52-2.05.5-2,2.42,1.6,2.34,3.61,3.5,6h-4c-.08-.63.16-1.57,0-2l1-.5v-1l-1-.5Z"/>
      <polygon class="cls-1" points="73.12 77.13 75.12 81.13 70.12 80.13 73.12 77.13"/>
      <path class="cls-1" d="M300.12,385.13l3-1c-.21,1.76-2.9,2.64-4,2-.4-.23,1.21-3.41-2-1-.32-1.5.44-2.06,1.5-3l1.5,3Z"/>
      <path class="cls-1" d="M91.12,95.13l-2.5,3c-1.43.39-2.89-1.57-2.5-3h5Z"/>
      <path class="cls-1" d="M165.12,257.13l2,1c-1.86.75-3.08-.91-3.5-1-1.26-.27-3.69.91-3.5-1l5-2v3Z"/>
      <polygon class="cls-1" points="193.12 226.13 195.12 225.63 194.12 228.13 190.12 227.13 191.12 223.13 193.12 226.13"/>
      <polygon class="cls-1" points="249.62 223.13 251.12 224.63 248.62 228.13 247.12 226.63 247.12 225.63 249.62 223.13"/>
      <path class="cls-1" d="M345.12,72.13c-.53,2.01-2.12,2.24-4,2l-1-3c2.17-.54,3.14,1.11,5,1Z"/>
      <path class="cls-1" d="M154.12,18.13c.14,1.65-1.97.67-3,2.5-.26.47.18,1.29,0,1.5l-3-1,2-1v-1.5l4-.5Z"/>
      <polygon class="cls-1" points="379.12 388.13 377.12 391.13 378.62 384.13 380.62 388.13 379.12 388.13"/>
      <polygon class="cls-1" points="385.12 382.13 383.12 386.13 381.12 382.13 385.12 382.13"/>
      <polygon class="cls-1" points="156.12 34.13 157.12 39.13 154.12 36.63 154.62 35.13 156.12 34.13"/>
      <polygon class="cls-1" points="118.12 47.13 120.12 48.13 115.12 49.13 117.62 45.13 118.12 47.13"/>
      <path class="cls-1" d="M218.12,38.13c.16,2.01-.68,4.28,1,5.5l-.5.5c-1.68-1.58-2.77-3.78-2.5-6h2Z"/>
      <path class="cls-1" d="M123.12,220.13v2l-2.5,1-1.5-1.5c1.1-1.54,2.14-1.73,4-1.5Z"/>
      <path class="cls-1" d="M428.12,313.13h-3v-3c1.9-.29,3.29,1.1,3,3Z"/>
      <polygon class="cls-1" points="153.12 23.13 152.62 28.13 150.12 26.63 153.12 23.13"/>
      <path class="cls-1" d="M25.12,112.13c-.86-.17-4.76-2.38-4-3,2.4-.37,4.24.48,4,3Z"/>
      <path class="cls-1" d="M190.12,240.13v3c-1.18-.31-1.49-1.42-3-1v-2h3Z"/>
      <path class="cls-1" d="M148.12,23.13c.24,1.88,0,3.47-2,4v-4h2Z"/>
      <path class="cls-1" d="M155.12,226.13v3h-2c.42-1.51-.69-1.82-1-3h3Z"/>
      <polygon class="cls-1" points="285.12 430.13 285.12 432.13 281.12 432.13 281.12 430.13 282.62 431.13 285.12 430.13"/>
      <path class="cls-1" d="M289.12,272.13l-5,.5,4-3.5c1.78-.27.84,1.83,1,3Z"/>
      <path class="cls-1" d="M301.12,237.13c.24,1.88,0,3.47-2,4v-4h2Z"/>
      <path class="cls-1" d="M219.12,34.13h-3c-.32-1.5.44-2.06,1.5-3,1.06.94,1.82,1.5,1.5,3Z"/>
      <polygon class="cls-1" points="423.12 301.13 423.12 305.13 422.12 305.13 421.12 301.13 423.12 301.13"/>
      <rect class="cls-1" x="164.12" y="413.13" width="3" height="2"/>
      <polygon class="cls-1" points="30.12 114.13 25.12 115.13 26.62 112.13 30.12 114.13"/>
      <polygon class="cls-1" points="369.12 374.13 369.12 375.13 367.12 375.13 368.12 377.13 366.12 377.13 366.12 374.13 369.12 374.13"/>
      <polygon class="cls-1" points="79.12 79.13 76.12 82.13 76.12 79.13 79.12 79.13"/>
      <path class="cls-1" d="M228.12,241.13v1h-4l1.5-2c.71.98,1.29,1.2,2.5,1Z"/>
      <path class="cls-1" d="M343.12,78.13h-2v-3c.4-.5,2.65,1.75,2,3Z"/>
      <path class="cls-1" d="M83.12,356.13c.83.83-1.54,3.57-2,3v-3h2Z"/>
      <rect class="cls-1" x="214.12" y="35.13" width="5" height="1"/>
      <path class="cls-1" d="M308.12,386.13v1h-4v-2c1.38.79,2.29,1.31,4,1Z"/>
      <path class="cls-1" d="M301.12,387.13v2h-3c-.5-.4,1.75-2.65,3-2Z"/>
      <polygon class="cls-1" points="296.12 287.13 293.12 286.13 293.12 285.13 296.12 284.13 296.12 287.13"/>
      <path class="cls-1" d="M225.12,187.13l-3-1,1.5-2c1.06.94,1.82,1.5,1.5,3Z"/>
      <path class="cls-1" d="M231.12,174.13v2h-3c-.5-.4,1.75-2.65,3-2Z"/>
      <path class="cls-1" d="M398.12,53.13v1h-3l-1-2.5.5-.5c1.14,1.13,1.78,2.37,3.5,2Z"/>
      <path class="cls-1" d="M297.12,208.13h2v1h-3c-.32-1.5.44-2.06,1.5-3l.5.5-1,1.5Z"/>
      <rect class="cls-1" x="291.12" y="288.13" width="2" height="2"/>
      <path class="cls-1" d="M154.12,14.13h-3v-1c1.51.42,1.82-.69,3-1v2Z"/>
      <path class="cls-1" d="M156.12,15.13h1c.08,2.14.41,3.73-1.5,5l-.5-.5c1.54-1.03.93-2.75,1-4.5Z"/>
      <rect class="cls-1" x="127.12" y="38.13" width="4" height="1"/>
      <rect class="cls-1" x="417.12" y="319.13" width="2" height="2"/>
      <path class="cls-1" d="M136.12,252.13v2c-1.18-.31-1.49-1.42-3-1v-1h3Z"/>
      <path class="cls-1" d="M247.12,229.13l-.5,2c-1.69-1.89-2.99-1.38-2.5,1h-2l-1-2c.28-2.66,2.38.01,2.5,0,.24-.02,1.78-1.79,3.5-1Z"/>
      <path class="cls-1" d="M147.12,233.13h-2c.31-1.18,1.42-1.49,1-3h1v3Z"/>
      <rect class="cls-1" x="345.12" y="77.13" width="3" height="1"/>
      <rect class="cls-1" x="65.12" y="368.13" width="3" height="1"/>
      <rect class="cls-1" x="148.12" y="29.13" width="3" height="1"/>
      <rect class="cls-1" x="134.12" y="236.13" width="1" height="3"/>
      <polygon class="cls-1" points="244.12 240.13 244.12 242.13 243.62 242.13 242.12 240.13 244.12 240.13"/>
      <polygon class="cls-1" points="297.12 242.13 295.12 242.13 295.12 241.63 297.12 240.13 297.12 242.13"/>
      <path class="cls-1" d="M197.12,217.13v-1l1,.5c0,.64-.97.46-1,.5Z"/>
      <path class="cls-1" d="M197.12,217.13c-1.14,1.54-2.61,2.59-1,3.5l-1,3.5c-1.79.39-.71-1.71-1-2-.12-.12-2.57.1-3-1.5-.93-3.46,3.09-4.73,2-8.5l1.5,1,.5-.5c0-.33-.94-.62-1-1-.35-2.13-.32-8.81,0-11,.05-.37.91-.6,1-1,.49-2.13-.72-4.69,3-4.5v-2l-2-.5c.25-.41.89-.65,1-1,.4-1.25.57-3.82,1-5,.21-.59,1.53-.85,1-2.5h6c.55,1.62-.89,2.04-1,2.5-.21.89.23,2.16,0,3-.29,1.07-2.53,2.91-2,4.5l-1.5-1-.5.5,2,2c-1.89,1.28-.11,3.72-2,5l3.5,3.5c1.69-2.57,3.83.32,5,0,1.69-.47,1.24-2.61,1.5-3.5.68-2.38,2.23-.57,2.5-.5.17.04,1.77-2.4,3.5.5l-4,.5-1,2.5,3,2c-2.23,1.09-1.58,3.08-2,4-.35.75-2.75,3.65-2,4.5,1.9-1.37,3.76-1.02,6-1l-.5,2,3-4c1.61-.16,3.46.23,5,0,.38-.06.64-.96,1-1,3.34-.34,7.1.25,10.5,0-1.06-2.22-3.49-3.64-5-5.5-2.09-2.57-5.12-6.03-5-9.5h-2l-1-5,1.5,2c1.94-2.43,2.64.07,4,1,.24.16.8-.15,1,0,2.31,1.7,3.3,4.06,5,6,.82-1.5,2.02-.72,3-1,.37-.1,3.56-2.97,4.5-3.5.38-1.33-3.18-5.44-4-7l3.5-4.5c.94,1.43,2.68,3.2,3.5,4.5.15.24-.15.76,0,1,1.57,2.54,3.07,4.92,5,7l-2,3c1.12.49.83,1.73,1,2,.59.93,2.82,2.37,3,3,.35,1.24-.72,2.97,1,4-.67.89-2.1-1.27-3-.5-.11.1.57,3.02-1.5,2-1.6-.79-3-3.15-2.5-5l3-1c-2.55.47-2.99-3.22-4.5-1l-1.5-1v2l-4,1c.71,1.36,1.18,1.78,1,3.5-.13,1.18-2.39-.39-2,1.5l3,.5-1,3-2-.5,1,4.5-1,1,1,2-1,1c.85.41,1.4,2.06,1,2.5-.26.28-2.4-.79-2,1l3,1-5-.5c2.91,1.71,1.51,3.75,2,6,.1.44,1.75,1.63,1,3.5l2,1h-4v2l-1.5-1-1.5,2.5,3-.5c-.16,2.05-.13,2.84,1.5,1l-.5,3c-2.13-1.52-4.42-.93-7-1l2-2.5,1-4.5-1.5,2-2.5-.5-3,1c1.42-1.71.85-4.13,3.5-1.5,1.54-1.1,1.73-2.14,1.5-4h2c.5-5.02-6.55-1.38-8-4.5-1.04-2.24,1.97-1.47,3-.5-.24-2.52,1.6-3.37,4-3l-2-5-1,4c-.37.37-4.27-.34-5.5,0-.76.21-1.62,2.57-3,2-.88-.56-2.36-2.83-3-3-.91-.25-3.23.27-3.5,0-.21-.21.2-1.76,0-2.5-.15-.55-1.73-1.6-1-3.5h-5c.55-1.52-1-2.29-1-2.5,0-.33.93-.61,1-1,.19-1.06-.12-2.37,0-3.5-1.43-.16-3.17.25-4.5,0-.34-.06-.56-.79-1-1-1.99-.96-1.6,1.95-1.5,3l-2-3,1,7h-3l1,2-1,.5,1,.5ZM200.62,189.13c-.65,0-.65,1,0,1s.65-1,0-1ZM199.12,206.13c.65-1.25-1.6-3.5-2-3v3h2ZM195.62,206.13c-.65,0-.65,1,0,1s.65-1,0-1ZM196.12,210.13v-2h-1v2h1ZM208.62,209.13l-.5.5,1.5,1.5.5-.5-1.5-1.5ZM220.62,215.13c-.65,0-.65,1,0,1s.65-1,0-1ZM227.12,217.13h-2v1h2v-1Z"/>
      <polygon class="cls-1" points="348.12 73.13 346.12 73.13 346.12 72.63 348.12 71.13 348.12 73.13"/>
      <rect class="cls-1" x="289.12" y="241.13" width="1" height="3"/>
      <rect class="cls-1" x="282.12" y="243.13" width="3" height="1"/>
      <rect class="cls-1" x="236.12" y="181.13" width="3" height="1"/>
      <rect class="cls-1" x="138.12" y="245.13" width="3" height="1"/>
      <rect class="cls-1" x="159.12" y="247.13" width="1" height="3"/>
      <rect class="cls-1" x="157.12" y="254.13" width="3" height="1"/>
      <polygon class="cls-1" points="415.12 319.13 413.12 321.13 413.12 319.13 415.12 319.13"/>
      <polygon class="cls-1" points="43.12 319.13 43.12 321.13 42.62 321.13 41.12 319.13 43.12 319.13"/>
      <polygon class="cls-1" points="131.12 34.13 129.12 34.13 129.12 33.63 131.12 32.13 131.12 34.13"/>
      <rect class="cls-1" x="276.12" y="434.13" width="3" height="1"/>
      <polygon class="cls-1" points="279.12 438.13 277.12 438.13 277.12 437.63 279.12 436.13 279.12 438.13"/>
      <polygon class="cls-1" points="153.12 36.13 151.12 36.13 151.12 35.63 153.12 34.13 153.12 36.13"/>
      <rect class="cls-1" x="216.12" y="197.13" width="1" height="2"/>
      <rect class="cls-1" x="397.12" y="55.13" width="2" height="1"/>
      <rect class="cls-1" x="243.12" y="13.13" width="1" height="2"/>
      <rect class="cls-1" x="150.12" y="16.13" width="2" height="1"/>
      <rect class="cls-1" x="182.12" y="419.13" width="1" height="2"/>
      <rect class="cls-1" x="164.12" y="416.13" width="2" height="1"/>
      <rect class="cls-1" x="250.12" y="212.13" width="1" height="2"/>
      <rect class="cls-1" x="130.12" y="397.13" width="1" height="2"/>
      <rect class="cls-1" x="252.12" y="214.13" width="1" height="2"/>
      <rect class="cls-1" x="99.12" y="385.13" width="2" height="1"/>
      <rect class="cls-1" x="99.12" y="383.13" width="2" height="1"/>
      <rect class="cls-1" x="363.12" y="379.13" width="2" height="1"/>
      <rect class="cls-1" x="408.12" y="72.13" width="2" height="1"/>
      <rect class="cls-1" x="66.12" y="370.13" width="1" height="2"/>
      <rect class="cls-1" x="147.12" y="31.13" width="2" height="1"/>
      <rect class="cls-1" x="409.12" y="329.13" width="2" height="1"/>
      <rect class="cls-1" x="419.12" y="315.13" width="1" height="2"/>
      <rect class="cls-1" x="149.12" y="33.13" width="2" height="1"/>
      <rect class="cls-1" x="289.12" y="288.13" width="1" height="2"/>
      <rect class="cls-1" x="294.12" y="281.13" width="1" height="2"/>
      <rect class="cls-1" x="89.12" y="91.13" width="2" height="1"/>
      <rect class="cls-1" x="194.12" y="34.13" width="1" height="2"/>
      <rect class="cls-1" x="269.12" y="263.13" width="2" height="1"/>
      <rect class="cls-1" x="21.12" y="118.13" width="2" height="1"/>
      <rect class="cls-1" x="124.12" y="229.13" width="1" height="2"/>
      <path class="cls-1" d="M388.12,52.13v1c-1.5.32-2.06-.44-3-1.5l.5-.5,2.5,1Z"/>
      <rect class="cls-1" x="35.12" y="131.13" width="2" height="1"/>
      <rect class="cls-1" x="287.12" y="238.13" width="2" height="1"/>
      <rect class="cls-1" x="136.12" y="238.13" width="2" height="1"/>
      <rect class="cls-1" x="236.12" y="236.13" width="2" height="1"/>
      <rect class="cls-1" x="270.12" y="40.13" width="1" height="2"/>
      <path class="cls-1" d="M148.62,234.13c.65,0,.65,1,0,1s-.65-1,0-1Z"/>
      <path class="cls-1" d="M224.62,232.13c.65,0,.65,1,0,1s-.65-1,0-1Z"/>
      <path class="cls-1" d="M157.62,40.13c.65,0,.65,1,0,1s-.65-1,0-1Z"/>
      <path class="cls-1" d="M238.62,231.13c.65,0,.65,1,0,1s-.65-1,0-1Z"/>
      <path class="cls-1" d="M137.62,236.13c.65,0,.65,1,0,1s-.65-1,0-1Z"/>
      <path class="cls-1" d="M222.62,231.13c.65,0,.65,1,0,1s-.65-1,0-1Z"/>
      <path class="cls-1" d="M280.62,236.13c.65,0,.65,1,0,1s-.65-1,0-1Z"/>
      <path class="cls-1" d="M127.62,40.13c.65,0,.65,1,0,1s-.65-1,0-1Z"/>
      <path class="cls-1" d="M206.62,37.13c.65,0,.65,1,0,1s-.65-1,0-1Z"/>
      <path class="cls-1" d="M233.62,180.13c.65,0,.65,1,0,1s-.65-1,0-1Z"/>
      <path class="cls-1" d="M226.62,238.13c.65,0,.65,1,0,1s-.65-1,0-1Z"/>
      <path class="cls-1" d="M140.62,240.13c.65,0,.65,1,0,1s-.65-1,0-1Z"/>
      <path class="cls-1" d="M32.62,131.13c.65,0,.65,1,0,1s-.65-1,0-1Z"/>
      <path class="cls-1" d="M38.62,129.13c.65,0,.65,1,0,1s-.65-1,0-1Z"/>
      <path class="cls-1" d="M36.62,128.13c.65,0,.65,1,0,1s-.65-1,0-1Z"/>
      <path class="cls-1" d="M215.62,43.13c.65,0,.65,1,0,1s-.65-1,0-1Z"/>
      <path class="cls-1" d="M293.62,242.13c.65,0,.65,1,0,1s-.65-1,0-1Z"/>
      <path class="cls-1" d="M140.62,243.13c.65,0,.65,1,0,1s-.65-1,0-1Z"/>
      <path class="cls-1" d="M21.62,122.13c.65,0,.65,1,0,1s-.65-1,0-1Z"/>
      <path class="cls-1" d="M140.62,229.13c.65,0,.65,1,0,1s-.65-1,0-1Z"/>
      <path class="cls-1" d="M150.62,246.13c.65,0,.65,1,0,1s-.65-1,0-1Z"/>
      <path class="cls-1" d="M136.62,247.13c.65,0,.65,1,0,1s-.65-1,0-1Z"/>
      <path class="cls-1" d="M218.62,228.13c.65,0,.65,1,0,1s-.65-1,0-1Z"/>
      <path class="cls-1" d="M138.62,248.13c.65,0,.65,1,0,1s-.65-1,0-1Z"/>
      <path class="cls-1" d="M264.62,43.13c.65,0,.65,1,0,1s-.65-1,0-1Z"/>
      <path class="cls-1" d="M22.62,116.13c.65,0,.65,1,0,1s-.65-1,0-1Z"/>
      <path class="cls-1" d="M54.62,111.13c.65,0,.65,1,0,1s-.65-1,0-1Z"/>
      <path class="cls-1" d="M130.62,35.13c.65,0,.65,1,0,1s-.65-1,0-1Z"/>
      <path class="cls-1" d="M273.62,265.13c.65,0,.65,1,0,1s-.65-1,0-1Z"/>
      <path class="cls-1" d="M286.62,267.13c.65,0,.65,1,0,1s-.65-1,0-1Z"/>
      <path class="cls-1" d="M241.62,45.13c.65,0,.65,1,0,1s-.65-1,0-1Z"/>
      <path class="cls-1" d="M95.62,89.13c.65,0,.65,1,0,1s-.65-1,0-1Z"/>
      <rect class="cls-1" x="289.77" y="283.07" width=".71" height="2.12" transform="translate(-115.93 288.36) rotate(-45)"/>
      <path class="cls-1" d="M290.62,286.13c.65,0,.65,1,0,1s-.65-1,0-1Z"/>
      <path class="cls-1" d="M90.62,87.13c.65,0,.65,1,0,1s-.65-1,0-1Z"/>
      <path class="cls-1" d="M252.62,225.13c.65,0,.65,1,0,1s-.65-1,0-1Z"/>
      <path class="cls-1" d="M144.62,224.13c.65,0,.65,1,0,1s-.65-1,0-1Z"/>
      <path class="cls-1" d="M194.62,32.13c.65,0,.65,1,0,1s-.65-1,0-1Z"/>
      <path class="cls-1" d="M30.62,314.13c.65,0,.65,1,0,1s-.65-1,0-1Z"/>
      <path class="cls-1" d="M398.62,314.13c.65,0,.65,1,0,1s-.65-1,0-1Z"/>
      <path class="cls-1" d="M416.62,315.13c.65,0,.65,1,0,1s-.65-1,0-1Z"/>
      <path class="cls-1" d="M57.62,316.13c.65,0,.65,1,0,1s-.65-1,0-1Z"/>
      <path class="cls-1" d="M153.62,32.13c.65,0,.65,1,0,1s-.65-1,0-1Z"/>
      <path class="cls-1" d="M414.62,317.13c.65,0,.65,1,0,1s-.65-1,0-1Z"/>
      <path class="cls-1" d="M57.62,318.13c.65,0,.65,1,0,1s-.65-1,0-1Z"/>
      <rect class="cls-1" x="288.77" y="189.07" width=".71" height="2.12" transform="translate(-49.76 260.13) rotate(-45)"/>
      <path class="cls-1" d="M44.62,322.13c.65,0,.65,1,0,1s-.65-1,0-1Z"/>
      <path class="cls-1" d="M347.62,79.13c.65,0,.65,1,0,1s-.65-1,0-1Z"/>
      <path class="cls-1" d="M345.62,79.13c.65,0,.65,1,0,1s-.65-1,0-1Z"/>
      <path class="cls-1" d="M38.62,326.13c.65,0,.65,1,0,1s-.65-1,0-1Z"/>
      <path class="cls-1" d="M141.62,223.13c.65,0,.65,1,0,1s-.65-1,0-1Z"/>
      <path class="cls-1" d="M255.62,220.13c.65,0,.65,1,0,1s-.65-1,0-1Z"/>
      <path class="cls-1" d="M238.62,48.13c.65,0,.65,1,0,1s-.65-1,0-1Z"/>
      <path class="cls-1" d="M302.62,217.13c.65,0,.65,1,0,1s-.65-1,0-1Z"/>
      <path class="cls-1" d="M79.62,356.13c.65,0,.65,1,0,1s-.65-1,0-1Z"/>
      <path class="cls-1" d="M78.62,75.13c.65,0,.65,1,0,1s-.65-1,0-1Z"/>
      <path class="cls-1" d="M64.62,366.13c.65,0,.65,1,0,1s-.65-1,0-1Z"/>
      <path class="cls-1" d="M346.62,74.13c.65,0,.65,1,0,1s-.65-1,0-1Z"/>
      <path class="cls-1" d="M70.62,371.13c.65,0,.65,1,0,1s-.65-1,0-1Z"/>
      <path class="cls-1" d="M323.62,371.13c.65,0,.65,1,0,1s-.65-1,0-1Z"/>
      <path class="cls-1" d="M360.62,372.13c.65,0,.65,1,0,1s-.65-1,0-1Z"/>
      <path class="cls-1" d="M365.62,372.13c.65,0,.65,1,0,1s-.65-1,0-1Z"/>
      <path class="cls-1" d="M324.62,373.13c.65,0,.65,1,0,1s-.65-1,0-1Z"/>
      <path class="cls-1" d="M77.62,73.13c.65,0,.65,1,0,1s-.65-1,0-1Z"/>
      <path class="cls-1" d="M371.62,377.13c.65,0,.65,1,0,1s-.65-1,0-1Z"/>
      <path class="cls-1" d="M154.62,27.13c.65,0,.65,1,0,1s-.65-1,0-1Z"/>
      <path class="cls-1" d="M327.62,381.13c.65,0,.65,1,0,1s-.65-1,0-1Z"/>
      <path class="cls-1" d="M373.62,381.13c.65,0,.65,1,0,1s-.65-1,0-1Z"/>
      <path class="cls-1" d="M267.62,48.13c.65,0,.65,1,0,1s-.65-1,0-1Z"/>
      <path class="cls-1" d="M240.62,215.13c.65,0,.65,1,0,1s-.65-1,0-1Z"/>
      <path class="cls-1" d="M368.62,384.13c.65,0,.65,1,0,1s-.65-1,0-1Z"/>
      <path class="cls-1" d="M62.62,71.13c.65,0,.65,1,0,1s-.65-1,0-1Z"/>
      <path class="cls-1" d="M71.62,70.13c.65,0,.65,1,0,1s-.65-1,0-1Z"/>
      <rect class="cls-1" x="123.06" y="50.77" width="2.12" height=".71" transform="translate(.2 102.74) rotate(-45)"/>
      <path class="cls-1" d="M98.62,387.13c.65,0,.65,1,0,1s-.65-1,0-1Z"/>
      <path class="cls-1" d="M120.62,67.13c.65,0,.65,1,0,1s-.65-1,0-1Z"/>
      <path class="cls-1" d="M304.62,388.13c.65,0,.65,1,0,1s-.65-1,0-1Z"/>
      <path class="cls-1" d="M149.62,24.13c.65,0,.65,1,0,1s-.65-1,0-1Z"/>
      <path class="cls-1" d="M392.62,50.13c.65,0,.65,1,0,1s-.65-1,0-1Z"/>
      <path class="cls-1" d="M140.62,64.13c.65,0,.65,1,0,1s-.65-1,0-1Z"/>
      <path class="cls-1" d="M248.62,213.13c.65,0,.65,1,0,1s-.65-1,0-1Z"/>
      <path class="cls-1" d="M335.62,400.13c.65,0,.65,1,0,1s-.65-1,0-1Z"/>
      <path class="cls-1" d="M133.62,62.13c.65,0,.65,1,0,1s-.65-1,0-1Z"/>
      <path class="cls-1" d="M332.62,401.13c.65,0,.65,1,0,1s-.65-1,0-1Z"/>
      <path class="cls-1" d="M131.62,60.13c.65,0,.65,1,0,1s-.65-1,0-1Z"/>
      <path class="cls-1" d="M300.62,211.13c.65,0,.65,1,0,1s-.65-1,0-1Z"/>
      <path class="cls-1" d="M138.62,59.13c.65,0,.65,1,0,1s-.65-1,0-1Z"/>
      <path class="cls-1" d="M266.62,414.13c.65,0,.65,1,0,1s-.65-1,0-1Z"/>
      <path class="cls-1" d="M269.62,414.13c.65,0,.65,1,0,1s-.65-1,0-1Z"/>
      <path class="cls-1" d="M248.62,211.13c.65,0,.65,1,0,1s-.65-1,0-1Z"/>
      <path class="cls-1" d="M397.62,58.13c.65,0,.65,1,0,1s-.65-1,0-1Z"/>
      <path class="cls-1" d="M246.62,211.13c.65,0,.65,1,0,1s-.65-1,0-1Z"/>
      <path class="cls-1" d="M147.62,18.13c.65,0,.65,1,0,1s-.65-1,0-1Z"/>
      <path class="cls-1" d="M179.62,421.13c.65,0,.65,1,0,1s-.65-1,0-1Z"/>
      <path class="cls-1" d="M389.62,51.13c.65,0,.65,1,0,1s-.65-1,0-1Z"/>
      <path class="cls-1" d="M265.12,403.13l-3-.5v6.5h-2l2.5,3,2.5-.5-2,3.5-3-1c.33,2.03-1.84,2.32,0,3.5l-3,9.5-2-2-1,2.5c1.71,2.16,4.71,2.55,4-.5h2c-1.68,2.16.18,2.47,1.5,4l-.5-4c3.36.52,4.21-3.02,8-2l-1-3-1.5,1c-3.12-2.12-.2-3.96-.5-7,2.04,1.63,1.9.09,2.5,0,1.12-.16,2.82-.23,3.5.5l3-.5c-.62-2.83-6.66-1.72-4-4.5l-1-1.5c1.64.5,1.8-.67,2.5-1,1.83-.86,1.84,3.03,3.5,3.5l4,7,6,7-2.5,2.5-1-1-1,1-2-2-1,1-.5-.5,1-3.5-2,.5v-2.5h-2l1-4c-1.98,1.63-2,.04-2.5,0-2.75-.21-4.2.44-6.5,1v2c2.68-2.23,4.09.3,7,0l-1,2c2.04-.35,3.58,1.5,3,3.5-.15.52-1.54.86-1,2.5h-3l2-1.5c-1.42-1.07-1.44-1.92,0-3l-2.5-.5-3.5,4.5,2,1.5c-1.48-.17-2.57.01-4,.5-.88.3-2.36,1.47-2.5,1.5-1.54.33-7.11-.39-7.5,0-.21.21.2,1.76,0,2.5-.11.41-.95.63-1,1-.27,1.81-.3,6,1.5,6.5,1.06.29,6.77-1,5.5,1.5-.2.4-2.04,2.21-2.5,2.5-.2.13-.68-.15-1,0-.87.4-.68,1.8-2,0-1.3,1.96-4.13.49-6,1-.82.22-1.48,2.74-4,2-4.46-1.31,2.28-6.74,2.5-7.5,1.01-3.42,2.52-8.1,3-11,.45-2.72-1.06-5.13,2-7-2.68-7.28,5.95-18.19,4-25-.29-1.03,1.75-2.68,1-4.5,5.85-1.29,4.97,4.79,9,7.5l-2,2,5,2c.07,1.66-5.24,1.76-6.5,1.5-3.07-.64.83-3.71.5-4ZM260.12,413.13v-2h-1v2h1ZM258.62,414.13c-.65,0-.65,1,0,1s.65-1,0-1ZM257.62,418.13c-.65,0-.65,1,0,1s.65-1,0-1ZM253.12,446.13c.23-1.86.04-2.9-1.5-4-1.06.94-1.82,1.5-1.5,3l3,1ZM256.62,443.13c-.65,0-.65,1,0,1s.65-1,0-1ZM254.62,445.13c-.65,0-.65,1,0,1s.65-1,0-1Z"/>
      <path class="cls-1" d="M287.62,429.13c.65,0,.65,1,0,1s-.65-1,0-1Z"/>
      <path class="cls-1" d="M393.62,55.13c.65,0,.65,1,0,1s-.65-1,0-1Z"/>
      <path class="cls-1" d="M282.62,433.13c.65,0,.65,1,0,1s-.65-1,0-1Z"/>
      <path class="cls-1" d="M183.62,434.13c.65,0,.65,1,0,1s-.65-1,0-1Z"/>
      <path class="cls-1" d="M281.62,436.13c.65,0,.65,1,0,1s-.65-1,0-1Z"/>
      <path class="cls-1" d="M182.62,438.13c.65,0,.65,1,0,1s-.65-1,0-1Z"/>
      <rect class="cls-1" x="184.85" y="439.27" width="3.54" height=".71" transform="translate(-256.2 260.72) rotate(-45)"/>
      <path class="cls-1" d="M282.62,438.13c.65,0,.65,1,0,1s-.65-1,0-1Z"/>
      <path class="cls-1" d="M389.62,53.13c.65,0,.65,1,0,1s-.65-1,0-1Z"/>
      <path class="cls-1" d="M300.62,205.13c.65,0,.65,1,0,1s-.65-1,0-1Z"/>
      <path class="cls-1" d="M153.62,10.13c.65,0,.65,1,0,1s-.65-1,0-1Z"/>
      <path class="cls-1" d="M222.62,241.13c.65,0,.65,1,0,1s-.65-1,0-1Z"/>
      <path class="cls-1" d="M228.12,6.13l1,2.5-.5.5c-1.14-1.13-1.78-2.37-3.5-2v-1h3Z"/>
      <path class="cls-1" d="M327.62,213.13c.65,0,.65,1,0,1s-.65-1,0-1Z"/>
      <rect class="cls-1" x="179.12" y="19.13" width="2" height="1"/>
    </g>
  </g>
</svg>