<?xml version="1.0" encoding="UTF-8"?>
<svg id="Layer_2" data-name="Layer 2" xmlns="http://www.w3.org/2000/svg" viewBox="0 0 517.24 533.22">
  <defs>
    <style>
      .cls-1 {
        fill: #ab272d;
      }
    </style>
  </defs>
  <g id="Layer_1-2" data-name="Layer 1">
    <g>
      <path class="cls-1" d="M290.13,65.14c.19.19,1.03-.27,1.5,0,2.39,1.36,4.39,9.03,5.5,11.5,27.84,61.89,54.77,123.14,82,185,35.28,80.13,70.87,161.49,106,242,2.37,5.44,4.82,10.56,7,16,.23.58,1.92,2.64,2,3,.2.91.22,5.2,0,6s-3.76,3.32-4.5,4.5c-25-.18-50,.25-75,0-37.85-.37-77.44-1.8-116-1l-3-2c-9.48,3.91-20.57,1.27-30,1-27.53-.78-53.87.46-82,0l-3-2-3,2c-44.32.44-87.54-1.76-132-1-1.36-1.18-3.42-1.69-4.5-3.5-.13-.22.14-.69,0-1-.2-.43-.92-.64-1-1-.18-.81-.16-3.14,0-4,.07-.37.88-.59,1-1,.7-2.45,1.22-3.08,2-5,7.46-18.49,14.53-36.86,22-55,1.22-2.96,4.04-11.13,6.5-12.5,1.1-.61,2.25.78,1.5-3.5-.07-.39-1-.67-1-1,0-.79,2.52-4.76,3-6,3.8-9.86,7.44-19.24,12-29,2.27-4.86,4.12-10.31,6-15,10.66-26.57,21.19-54.94,33-81,1.05-2.32,3.9-5.64,4-6,.85-3.08.53-4.09,2-8,6.21-16.5,13.17-33.02,20-49,.84-1.97,1.53-5.8,3-8,2.92-4.36,2.55-3.88,4-9,1.91-6.75,5.39-14.58,8-21,28.18-69.34,57.1-137.78,85-207,.92-.52,4.17-3.41,4.5-3.5.67-.18,4.33-.19,5,0,.31.08,4.18,3.97,4.5,4.5.13.22-.14.69,0,1,3.11,6.71,5.98,14.17,9,21,4.57,10.31,10.99,21.41,14,32,.59,2.09.76,6.26,1,6.5ZM260.13,28.14c-2.8-.32-1.57.17-2,1.5-3.06,9.38-8.19,18.87-12,28-.67,1.61-1.31,5.44-2,7-.29.67-1.97,3.35-2.5,3.5-.85.23-2.17-.24-3,0-.52.15-.86,1.54-2.5,1-.27,2.62,1.16,4.91,3,6.5v1c-.56.73-1.72,2.32-2,3-7.49,18.41-14.46,37.7-23,56-1.53,3.28-3,6.48-4,10-4.7,16.59-14.2,34.37-21,51-14.79,36.15-28.42,74.4-45,110-.81,1.73-3.89,6.59-4,7-1.07,3.88-1.25,7.65-3,12-6.16,15.29-12.84,29.93-19,45-.99,2.41-3.49,11.37-5.5,12.5-.47.26-1.31-.19-1.5,0-.24.24-.41,4.41-1,6.5-2.8,9.87-8.16,19.13-11,29-.07.24-3.07,3.26-3.5,3.5-.64.35-2.39-.7-1.5,2.5.11.39.88.6,1,1,.63,2.07-2.21,5.97-3,8-10.05,26-21,51.92-32,78-.3.72.16,2.29-1,3.5,20.48.25,41.01-.33,61.5,0,.34,0,.66.99,1,1,14.99.25,30.01-.19,45,0l4,3,3-3c17.6.51,36.1-1.14,53,1,12.71-2.73,28.32-.22,41,0,48.42.86,98.35-1.96,146,1,5.11.32,11.02-1.35,15,2l3-2h43.5c.31-.26-1.75-2.89-2-3.5-22.21-54.11-47.2-107.81-70-161-1.24-2.89-5.49-9.64-6-12-.43-1.97.49-5.2,0-7-.3-1.09-4.53-2.37-5-4-3.57-12.43-11.6-26.76-17-39-8.78-19.92-16.62-40.46-26-60-20.08-41.84-36.89-87.01-56-128-10.79-23.13-22.59-47.71-32-71-.59-1.47-1.26-2.84-1-4.5ZM290.63,80.14c-.41.12-.96,1.16-1.5,1.5l3.5,2.5,1.5-2.5c-.92-1.19-1.94-1.95-3.5-1.5ZM202.13,152.14c-3.16.2-4.63,1.91-6,4.5.68,1.24,4.27,3.96,5,2,.83-2.25,1.33-4,1-6.5ZM324.63,155.14c-1.83.51-1.03,3.59-2.5,4.5v1l3.5,3.5c.25,0,2.55-3.27,3-4,1.86-3.04-.48-5.98-4-5ZM346.13,203.14c1.09-3.06-3.75-7.02-5-3.5-1.11,3.12,2.82,4.06,5,3.5ZM397.13,319.14v-2h-1v2h1ZM428.13,389.14h-2v3h2v-3ZM89.63,422.14c-1.03,1.63-2.96.36-4,2-1.66,2.62,2.7,4.69,5,1,1.05-1.68.09-1.92-1-3ZM460.13,466.14h-2v2h2v-2ZM60.13,501.14v-2h-1v2h1ZM478.63,506.14c-3.48,2.47-3.01,4.7,1,6,2.74-1.27,1.5-6.83-1-6ZM51.63,512.14c-2.16,1.09-3.85,5.16-1,6,.97.29,3.33-1.94,3.5-2.5.43-1.39-1.85-2.58-2.5-3.5ZM239.13,519.14c-.39,6.91,6.94,3.42,2.5-1l-2.5,1ZM135.63,521.14c-.65,0-.65,1,0,1s.65-1,0-1ZM360.13,527.14l1-2.5-2.5-3.5c-.78-.22-4.29,1.77-4.5,2.5-.37,1.33.08,4.09,1.5,4.5,1.89.55,2.75-1.28,4.5-1ZM470.63,521.14c-1.38.4-1.51,2.23-1.5,3.5.03,6.37,8.67,5.89,7,0-.3-1.05-3.77-4-5.5-3.5ZM458.63,522.14c-2.51.69-1.23,4.62,1,4,2.51-.69,1.23-4.62-1-4ZM384.13,525.14l-2-2v2h2Z"/>
      <path class="cls-1" d="M517.13,258.14l-5.5,1c-25.05,10.67-50.44,18.77-75,29-1.94-.5-3.13,1.55-5,1-.17-.05-2.45-2.33-2.5-2.5-.19-.66.23-1.5,0-2-3.85-8.25-7.26-15.96-11-24l-1-5c.15-.51,2.88-2.25,3.5-2.5,2.1-.83,5-.57,7-1,1.36-.29,4.28-3.31,6-4,11.06-4.41,23.32-7.98,34-12s21.17-8.51,32-12c.52-.17.91-1.55,2-1,1.35.7,1.19,1.84,1.5,2.5,3.68,7.81,6.89,16.16,11,24-.8,1.75,3.89,7.62,3,8.5ZM476.13,259.14c-3.33-.53-6.03-2.61-9.5-2-.39.07-.9,1.55-2.5,1,.16,1.09-.25,2.57,0,3.5.49,1.82,3.59,1.04,4.5,2.5,2.44.55,3.06-.7,4-1s2.04.56,3-1c.66-1.08.57-1.83.5-3ZM449.63,258.14c-.65,0-.65,1,0,1s.65-1,0-1Z"/>
      <path class="cls-1" d="M442.13,169.14c.26.24-1.62,2.81-2,3.5-3.93,7.09-9.05,14.98-14,22-.2.29-.17,1.93-1.5,2.5l-3.5-2-1,2.5c.02.45,2.74,1.56,2,4-.11.37-.8.57-1,1-.78,1.68-1.24,1.8-2,3-2.89,4.58-5.9,10.34-9,15-2.07,3.12-3.64,6.05-6.5,8.5l-5-2c-6.55-5.42-14.85-8.48-22-13-.86-.54-1.62-1.83-2.5-2.5l38-58.5,2.5-1c.71.51,1.33,1.63,2,2,6.78,3.81,13.75,8.11,20,12,1.71,1.06,3.48,2.94,5.5,3ZM418.63,163.14c-2.1,1.05-1.93,4.47,0,5,2.28.63,3.75-3.6,1-5h-1ZM416.13,176.14c-.21-1.37.32-3.33,0-4.5-.66-2.4-6.22-3.77-7-1-.84,2.96,4.18,6.59,7,5.5Z"/>
      <path class="cls-1" d="M498.13,369.14c-2.08-.2-4.5.29-6.5,0-5.21-.76-16.81-5.11-23-7-10.13-3.09-22.83-8.62-33-11-.98-.23-2.39.15-3.5,0,.13-1.12-.21-2.48,0-3.5.48-2.32,3.46-6.03,4-8,1.02-3.74,1.16-8.57,4-12-.05-2.84,2.21-5.36,2-8.5l64.5,22c1.53,1.04,1.91,2.68,1.5,4.5-.19.87-2.49,3.82-3,5-2.13,4.91-4.09,10.74-6,16-.21.59-1.53.85-1,2.5ZM443.13,342.14c-1.86-.23-2.9-.04-4,1.5l2.5,1.5c1.06-.94,1.82-1.5,1.5-3ZM468.13,342.14c-2.34.28-5.29-.39-7.5,0-.37.07-.59.87-1,1-1.31.42-3.5-.34-3.5,2.5,1.75,2.8,2.75,5.22,6.5,4.5,2.3-2.38,5.28-4.43,5.5-8Z"/>
      <path class="cls-1" d="M286.63,10.14c1.78-.48,6.98.7,7.5,2.5.19.66-.23,1.49,0,2,4.91,10.93,10.24,21.24,15,32,1.6,3.61,2.04,7.53,3,11,.08.28,2.2,2.27,3,4,14.57,31.41,28.2,64.34,42,96,3.69,8.46,8.61,17.65,12,26,.32.78-.53,2.21,1,3-.6,4.03-3.56,5.59-7.5,4.5-1.22-.34-1.29-2.12-1.5-2.5-.46-.83-1.64-2.22-2-3-4.69-10.31-8.55-21.74-13-32-18.28-42.09-37.72-85-56-127-1.29-2.97-4.5-7.22-5-10-.29-1.62-.31-6.01,1.5-6.5Z"/>
      <path class="cls-1" d="M452.13,374.14c.2,2.16,1.67,4.59,3,6.5,1.04,5.35,4.85,10.76,7,16,9.62,23.44,20.05,46.83,30,70,1.24,2.88,5.49,9.64,6,12,.37,1.71-.43,4.44,0,6,.09.32,3.11,3.55,4,5,3.6,5.85,7.57,15.03,10,21,.32.78-.53,2.21,1,3-.61,4.03-3.56,5.59-7.5,4.5-1.22-.34-1.29-2.12-1.5-2.5-.46-.83-1.65-2.22-2-3-18.97-41.76-36.73-84.86-55-127-.5-1.16-2.82-4.16-3-5-.91-4.18.3-6.76,4.5-7.5.86,1.32,2.01,1.05,3.5,1Z"/>
      <path class="cls-1" d="M26.13,410.14c-1.19,6.53,6.44,6.75,10.5,10l2.5-2.5c1.49-2.8,2.07-5.87,3-9,.22-.74,2.87-2.5,3.5-3.5l6,3c3.16.58,5.77,2.07,9,3,.4.12.62.91,1,1,2.78.65,3.01-.55,4.5-1.5,1.07-.68,1.4.98,3,.5l-4,8.5-1,5.5h-3c-.11-.8.19-1.85,0-2.5-.73-2.46-7.46-3.27-9.5-5.5-1.57-.18-3.48-.59-5-1-.41-.11-.67-1-1-1-2.26,1.61-1.92,4.51-3.5,6.5.94,1.93,2.7,1.14,3.5,1.5,2.65,1.19,5.61,3.03,8,4,.78.32,2.21-.53,3,1l3-2,2.5,1.5c-.68,1.07-.67,3.18-1,4-1.08,2.68-2.08,3.82-3,7-.17.57-2.01,1.72-2.5,2.5-2.16-1.43-.87-3.64-3-5-.22-.14-.73.15-1,0-3.61-2.01-6.23-2.84-10-4-.63-.19-1.58-1.71-3.5-1-.06,2.66-2.6,4.3-2,7,1.65-.52,1.86.74,2.5,1,3.91,1.6,7.96,2.7,12,4,.35.11.57.75,1,1l.5-2h4c.89.87-3.8,6.75-3,8.5-1.11.73-1.23,3.12-2.5,3.5-.52.15-2.51.35-2.5-.5v-1.5c-1.65.53-1.91-.79-2.5-1-2.65-.96-6.32-1.91-9-3-1.04-.43-2.87-2.31-4-2-2.21,1.98-.58,3.77-4.5,3,.52-2.48-.79-3.95-1-6-2.33.42-3.98-2.15-5.5-3-.47-.26-1.31.19-1.5,0s.26-1.03,0-1.5c-.38-.69-1.57-1.29-2-2-.11-.18-.89-1.72-1-2-.22-.54.18-1.35,0-2-.12-.41-.93-.63-1-1-.17-.91-.17-3.09,0-4,.07-.37.88-.59,1-1,.18-.64-.21-1.44,0-2,.73-1.99,5.22-7.21,5-8-1.63-1.25-.58-6.01,0-8,.12-.39.87-.6,1-1,.19-.59-.18-1.37,0-2,.11-.37,5.13-5.4,5.5-5.5.67-.19,4.32-.18,5,0,1.25.34,1.41,2.79,2.5,3.5v2l-2.5,3.5c-2.76-.37-4.93.3-7.5,1ZM34.13,428.14c-1.69.29-3.09-1.28-4.5-2-1.14-.58-2.82-1.95-3-2-1.4-.39-5.06-.11-5.5,1.5-.6,2.19.96,3.56,1,5.5,1.95-.59,2.33,1.36,3.5,2,.59.33,2.26.71,3,1,.81.32,1.54,1.65,3.5,1,.06-2.66,2.6-4.3,2-7Z"/>
      <path class="cls-1" d="M208.13,66.14c-.32-1.23-.03-2.73,1.5-2,4.14,1.97-2.08,7.64-1.5,10.5-.99,1.11-2.02,2.88-2,4.5-3.24.26-2.53-1.86-3-3.5-.45-1.56-6.78-2.85-8.5-3.5-.56-.21-2.63-1.92-3-2-4.04-.9-7.7,3.66-4,6,.22.14.73-.15,1,0,3.67,2.03,7.47,3.24,11,5l3-2,2.5,1c.78.8-1.71,3.8-2,4.5-1.22,2.93-1.83,10.03-5,9.5-.37.37.31,5.1,0,6.5-.08.35-.8.57-1,1-1.29,2.82-3.73,3.02-4,4-.49,1.8.44,5.05,0,7-.08.35-.8.57-1,1-.15.32.13.8,0,1-.38.6-3.11,2.41-3.5,2.5-2.21.48-6.22-.48-7.5-2.5-.13-.2.15-.68,0-1-.2-.43-.92-.65-1-1-.27-1.2-.27-7.8,0-9,.1-.46,1.57-.92,1-2-1.3-2.09-7.18-3.91-8-1-.99,3.49,2.81,3.31,3,3.5.17.17-.22.96,0,1.5.18.43.92.64,1,1,.49,2.14-1.42,6.15-3.5,5.5-.24-.07-3.43-3.26-3.5-3.5-.29-1.06.22-2.78,0-4-.09-.5-1.58-1.51-1-4,.09-.39.91-.61,1-1,.21-.89-.23-2.16,0-3,.1-.37,5.13-5.4,5.5-5.5.78-.22,4.06-.17,5,0,.37.07.59.88,1,1,.64.18,1.44-.21,2,0,1.74.64,5.56,3.68,7,4,2.78.62,4.97-.57,4.5-3.5-.06-1.05,1.76-.27,2-.5.66-.61-.65-2.46-1.5-3-.56-.36-3.12-1.62-4-2-1.72-.75-5.08-1.38-7-2-3.3-1.06-2.36,0-3,0-.21,0-.98-1.55-2.5-1v-11l4,.5c-1.39-1.14-1.29-4.39-1-6,.07-.37.87-.59,1-1,.19-.59-.18-1.37,0-2,.07-.24,3.26-3.43,3.5-3.5.84-.23,6.05-.21,7,0,.12.03.94.63,2,1,2.54.88,6.69,3.52,9,4,1.02.21,2.38-.13,3.5,0ZM187.13,102.14h-3c-.84,2.56,1.36,6.9,4.5,6,2.55-.73,1.39-4.62-1.5-4v-2Z"/>
      <path class="cls-1" d="M156.13,200.14l-3,6.5c-1.65,2.05-.73,5.51-3.5,7.5-3.01.37-2.32-3.82-2.5-4s-.96.23-1.5,0c-.63-.27-3.49-1.66-4-2-.92-.61-2.4-2.83-3-3-1.53-.42-4.22.29-6,0l-2.5,3.5c-.28,2.13,1.72,2.07,2.5,2.5,2.94,1.62,10.15,5.65,13,5,.5-.11,1.69-1.77,3.5-1-.46.95-.71,1.4-1,2.5-.61,2.32-2.67,10.46-4.5,11.5-.47.27-1.31-.19-1.5,0-.44.44.41,6,0,7.5-.25.9-4.2,3.73-5,5,2.36,1.79.45,3.6,0,5-.19.59.18,1.37,0,2-.07.24-3.26,3.43-3.5,3.5-.72.2-4.19.18-5,0-.35-.08-.57-.8-1-1-.32-.15-.8.13-1,0-2.62-1.66-2.86-6.64-2.5-9.5.05-.37.93-.62,1-1,.15-.82.19-3.31,0-4-.31-1.15-4.3-2.85-5.5-2.5-.57.16-1.72,2.01-2.5,2.5,1.64,1.49.19,3.14,3,2.5-.55,1.61.93,2.1,1,2.5,1.05,5.79-3.26,7.61-6,3-.13-.22.14-.69,0-1-.2-.43-.92-.64-1-1-.29-1.27-.28-8.72,0-10,.08-.37.83-.57,1-1,.27-.68.72-2.56,1-3,1.4-2.16,5.89-3.08,8.5-2.5.12.03,1.29.69,2,1,1.88.83,6.51,3.68,8,4,1.28.28,3.09-.18,4.5,0v-3h2c-.11-.8.19-1.84,0-2.5-.16-.54-2.81-2.2-3.5-2.5-.56-.25-1.45.25-2,0-1.81-.83-7.48-4.42-9-4-.56.15-1.59,1.73-3.5,1v-12l4,1c.5-.58-.46-6.81,0-8.5.08-.31,4.19-4.42,4.5-4.5.8-.22,5.09-.2,6,0,.36.08,2.42,1.77,3,2,.78.31,1.75.49,3,1,2.31.94,4.98,1.81,7,3,1.51-2.13,3-2.26,5.5-2ZM128.13,238.14c-2.1,1.98,4.61,7.88,6,3.5.66-2.09-5.18-4.28-6-3.5Z"/>
      <path class="cls-1" d="M16.63,450.14c1.75-.31,8.25-.31,10,0,.37.07.59.88,1,1,.64.18,1.44-.21,2,0,.37.14,3.61,1.74,4,2,1.38.91,2.6,3.01,4,4,.21.15.75-.16,1,0,2.01,1.29,2.61,5.58,4.5,7.5v12c-1.59,2.2-2.34,6.51-4,9-.63.94-4.56,4.87-5.5,5.5-.21.14-.74-.16-1,0-.76.45-2.37,1.77-3,2-.56.21-1.36-.18-2,0-.41.12-.63.93-1,1-1.61.29-6.32.25-8,0-.37-.05-.61-.91-1-1-.91-.2-2.17.23-3,0-.38-.1-.59-.85-1-1-6.69-2.43-9.28-6.36-12.5-12.5-.14-3.42-1.55-6.24-1-10,.05-.37.92-.61,1-1,.18-.93-.23-2.19,0-3,.11-.39.86-.59,1-1,.33-.98.32-2.81,1-4,2.09-2.03,2.98-4.63,5.5-6.5.21-.15.77.16,1,0,1.24-.87,2.51-2.41,4-3,.54-.22,1.35.18,2,0,.41-.12.63-.93,1-1ZM11.63,460.14c-.36.08-.57.8-1,1-.31.14-.78-.13-1,0-.55.33-3.17,2.95-3.5,3.5-.13.22.14.69,0,1-.2.43-.92.64-1,1-.79,3.54.49,5.28,2,8,.15.27-.14.78,0,1,.94,1.47,2.18,1.28,2.5,1.5,1.06.75,1.95,2.3,3,3,2.88,1.92,6.86,2.37,10,3,.39.08.63.95,1,1,1.53.22,5.54.26,7,0,.37-.07.59-.87,1-1,.59-.19,1.37.18,2,0,.31-.09,4.18-3.97,4.5-4.5.13-.22-.14-.69,0-1,.2-.43.92-.64,1-1,.17-.76.17-3.24,0-4-.08-.36-.8-.57-1-1-.14-.31.13-.78,0-1-.49-.82-5.6-5.91-6.5-6.5-2.28-1.51-6.25-2.32-9-3-.4-.1-.62-.93-1-1-1.57-.28-8.57-.32-10,0Z"/>
      <path class="cls-1" d="M93.63,259.14c.91-.17,3.09-.17,4,0,.37.07.59.88,1,1,.65.18,1.46-.22,2,0,.39.16.59.81,1,1,.31.14.78-.13,1,0,.55.33,3.17,2.95,3.5,3.5.13.22-.14.69,0,1,.2.43.92.64,1,1,.27,1.22.27,7.76,0,9-.07.32-2.15,3.5-2.5,3.5-.9-.85-2.03-2.44-2.5-3.5-.23-.51.19-1.34,0-2-.06-.19-2.08-2.23-2.5-2.5-.23-.14-.74.15-1,0-.64-.38-2.68-1.93-3-2-.91-.2-5.2-.22-6,0-.24.07-3.43,3.26-3.5,3.5-1.08,3.58,2.43,3.02,3.5,3.5,6.83,3.09,12.98,5.94,20,9,1.57.18,3.48.59,5,1,.41.11.67,1,1,1l3-4c3.44.62,2.34,2.13,1.5,4.5-1.03,2.89-2.83,6.15-4,9-.55,1.35-1.1,5.05-2.5,5.5-3.45-.6-2.34-2.33-1.5-4.5-.88-.65-1.66-2-2.5-2.5-.22-.13-.69.14-1,0-8.34-3.87-17.91-7.17-26-11-1.68,2.18-3.51,3.09-5.5.5.68-1.07.67-3.19,1-4,1.69-4.17,4.76-12.01,7-15,.58-.78,5.13-5.39,5.5-5.5.63-.18,1.41.19,2,0,.41-.13.63-.93,1-1Z"/>
      <path class="cls-1" d="M97.13,341.14c.91.94-1.49,4.07-1,5.5-.6.77-1.67,2.24-2,3-.58,1.32-1.1,5.09-2.5,5.5-.52.15-2.5.35-2.5-.5.54-2.96-1.03-2.68-2.5-3.5-2.35-1.31-5.58-3.08-8-4-.55-.21-1.35.17-2,0-.41-.11-.67-1-1-1s-.57.84-1,1c-.56.2-1.33-.17-1.5,0s.22.96,0,1.5c-.35.85-1.64,1.53-1,3.5,3.13.19,5.43,3.22,8.5,3,1.59,1.87,4.32,1.47,6,3l2-2c4.65,1.14,1.41,3.25.5,5.5-.46,1.14-.27,3.85-2,5l-1,4.5c-4,.71-2.66-4.66-3-5-.17-.17-.96.23-1.5,0-.69-.29-2.31-1.71-3-2-1.34-.56-7.22-2.86-8-3-1.64-.29-3.76.2-5.5,0v-11h4c-1.06-1.61-1.35-3.58-1-5.5.07-.37.87-.59,1-1,.19-.59-.18-1.37,0-2,.07-.24,3.03-3.22,3.5-3.5.22-.13.69.14,1,0,1.2-.55,1.74-1.53,4-1,.38.09.6.88,1,1,.64.18,1.44-.21,2,0,2.51.93,5.72,3.07,8,4,.78.32,2.21-.53,3,1,1.22.35,4.04-3.51,5.5-2Z"/>
      <path class="cls-1" d="M177.13,150.14c-3.54.74-2.79-3.79-3-4-.53-.53-7.26-2.5-8.5-3-.58-.23-2.64-1.92-3-2-1.28-.28-3.09.18-4.5,0l-1,4.5c.65,1.35,2,1.22,2.5,1.5.83.46,2.22,1.64,3,2,.55.25,1.43-.25,2,0,3.37,1.46,6.02,5.26,9,1l2.5,1c.89.91-3.78,6.67-3,8.5-1.25,1.41-2.29,3.42-2,5.5h-3c.06-2.11.42-3.77-1.5-5-.22-.14-.73.15-1,0-.81-.45-2.25-1.67-3-2-1.36-.59-9.23-3.22-10-3-.42.12-.67,1-1,1-.21,0-.98-1.55-2.5-1-.76-1.81.96-3.21,1-3.5.34-2.3-.24-5.11,0-7.5h3c.37-.37-.31-5.1,0-6.5.08-.36.8-.57,1-1,.14-.31-.13-.78,0-1,.28-.47,3.26-3.43,3.5-3.5.86-.24,6.02-.21,7,0,.36.08,2.42,1.77,3,2,1.88.76,4.99,1.34,7,2,.55.18,1.01,1.57,3,1,1.16-.33,2.94-4.75,4.5.5-.12.39-.84.59-1,1-1.08,2.8-1.94,6.06-3,9-.21.59-1.53.85-1,2.5Z"/>
      <path class="cls-1" d="M217.13,41.14v-4h3c.47,2.29,1.61,4.79,1,7.5-.08.36-.8.57-1,1-.97,2.13-3.86,4.49-4,5-.43,1.56.38,4.31,0,6-.08.36-.8.57-1,1-.14.31.13.78,0,1-.28.47-2.03,2.22-2.5,2.5-.22.13-.69-.14-1,0-.43.2-.64.92-1,1-2.79.64-5.71-1.38-7.5-3.5v-13.5c-1.6-.34-6.21-2.31-7,.5s2.68,3.85,3,5c.39,1.41-.27,3.86,0,5.5h-5c.53-1.65-.79-1.91-1-2.5s-.97-2.83-1-3c-.63-3.55.18-8.37,2-11,.36-3.87,6.2-4.24,9.5-3.5.12.03.94.63,2,1,1.99.69,6.56,3.67,8,4,.99.23,2.39-.14,3.5,0ZM207.13,52.14l3.5,1,2.5-2.5-6-2.5v4Z"/>
      <path class="cls-1" d="M103.13,315.14c.18-.18,1.55.42,2-.5.5-.99,1.93.74,2,1,.99,3.71-.71,10.41-5,10.5-.4.4.34,5.97,0,7.5-.08.36-.8.57-1,1-.14.31.13.78,0,1-1.67,2.81-5.4,3.04-8.5,2.5-.39-.07-.89-1.55-2.5-1,.55-1.61-.93-2.11-1-2.5-.59-3.36.8-9.11,0-12-.59-2.13-4.98-1.43-7-1.5-1.22,2.89,2.67,4.32,3,5.5.39,1.41-.27,3.86,0,5.5l-3.5,1-2.5-2.5c.7-1.57-.95-2.71-1-3-.24-1.37-.24-5.63,0-7,.07-.37.88-.59,1-1,.18-.65-.22-1.46,0-2,.16-.39.81-.59,1-1,.14-.31-.13-.78,0-1,.28-.47,2.03-2.22,2.5-2.5.22-.13.69.14,1,0,1.2-.55,1.74-1.53,4-1,.38.09.6.88,1,1,.64.18,1.44-.21,2,0,1.91.71,4.84,3.13,7,4,.81.32,2.93.33,4,1,1.59-.62,1.37-2.87,1.5-3ZM93.13,324.14c-.93,4.67,2.57,6.97,6,3.5l-6-3.5Z"/>
      <path class="cls-1" d="M129.13,257.14l1.5-3c.29,1.15,3.44.52,2.5,2.5-.35.74-1.73,2.33-2,3-.73,1.84-1.56,4.98-2,7l-1.5,2.5c-.51-1.28-2.41-.9-2.5-1-.19-.2.27-1.03,0-1.5-1.52-2.66-17.89-8.02-21.5-9.5s-7.47-4.94-11-3l-2.5-1c.16-5.24-1.86-11.6,5.5-10,.86.19,3.84,2.53,5,3,7.51,3.07,16.28,5.78,24,9,.94.39,3.65,2.78,4.5,2Z"/>
      <path class="cls-1" d="M71.13,385.14c1.39-.03,2.61-.37,3.5,1,1.69,2.61,2.06,7.36,1.5,10.5-.07.37-.87.59-1,1-.19.59.18,1.37,0,2-.11.37-4.91,5.15-5.5,5.5-.22.13-.69-.14-1,0-.43.2-.64.92-1,1-1.13.25-6.86.25-8,0-.37-.08-.57-.83-1-1-2.55-1.01-4.89-2.07-6.5-4.5-.14-.21.16-.74,0-1-.38-.64-1.93-2.67-2-3-.28-1.29-.25-6.62,0-8,.07-.37.88-.59,1-1,.52-1.82.85-4.2,2-6,.27-.42,2.32-2.45,2.5-2.5,3.81-1.05,7.45,3.69,4.5,5.5-1.21.74-1.79.29-2.5.5-1.21.36-3.99,3.9-3.5,5.5.11.37.8.57,1,1,.14.31-.13.78,0,1,.28.47,2.03,2.22,2.5,2.5.22.13.69-.14,1,0,.41.19.61.84,1,1,.54.22,1.36-.19,2,0,.4.12.62.91,1,1,4.08.95,7.81-3.34,9.5-6.5l-1-5.5Z"/>
      <path class="cls-1" d="M161.13,180.14c-.19-1.25.12-2.71,0-4-1.65.53-1.91-.79-2.5-1-3.19-1.16-6.91-3.06-10-4-1.61-.49-4.7,2.4-5.5-.5-.71-2.56.51-7.55,0-10.5,1.11.14,2.51-.23,3.5,0,.9.2,3.82,2.5,5,3,.71.3,1.69.44,3,1,3,1.28,6.24,2.06,9,4l5.5-2c.18,1.48-.01,2.57-.5,4-.63,1.85-1.81,4.86-2.5,6.5-.56,1.33-2.39,2.82-2,4.5-1.44.47-1.84-.76-3-1,.37,2.43,1.55,4.44,1,7.5-.07.37-.87.59-1,1-.19.59.18,1.37,0,2-.07.24-3.26,3.43-3.5,3.5-.86.24-6.02.21-7,0-1.27-.27-6.17-3.32-8-4-1.22-.45-2.79-1.35-4-1-.88.25-1.96,3.05-4.5,2-.24-2.04.34-4.58,0-6.5-.03-.17-.7-1.93-1-3-.23-.84-2.68-1.4-2-4l4.5-.5,2.5,1c-.11-1.86,1.54-2.83,1-5h4c-.16,2.01.68,4.28-1,5.5v1c.14.53,2.81,2.2,3.5,2.5.55.24,1.43-.24,2,0,1.73.73,4.33,2.61,6,3,3.82.89,5.06-1.46,4.5-5,.97.11,2.13-.18,3,0Z"/>
      <path class="cls-1" d="M85.13,372.14c.94.92-4.72,8.43-4,10.5l-2.5,4.5-2.5-1,1-2.5c-.78-.49-1.93-2.34-2.5-2.5-2.08-.6-5.04-1.26-7-2-.55-.21-2.64-1.92-3-2-1.4-.3-6.14.36-6.5,0,.5-2.97-.7-7.89,0-10.5.07-.26,1.5-1.99,2-1,1.17,1.25,3.56,1.13,4.5,1.5,4.24,1.64,7.39,3.68,12,5,.4.12.62.91,1,1,2.78.65,3.01-.55,4.5-1.5,1.07-.68,1.4.97,3,.5Z"/>
      <path class="cls-1" d="M185.13,121.14v-2c1.84-.23,2.91-.04,4,1.5l-3,5c-.72,3.35-1.29,9.26-6,8.5.15-1.63.2-4.51-1.5-5-.66-.19-1.49.23-2,0-1.45-.66-9.33-5.01-10-5-.34,0-.61.93-1,1-1.06.19-2.37-.12-3.5,0,.5-2.97-.7-7.89,0-10.5.07-.26,1.5-1.99,2-1,1.17,1.25,3.56,1.13,4.5,1.5,3.68,1.42,9.69,5.32,13,6,1.02.21,2.38-.13,3.5,0Z"/>
      <path class="cls-1" d="M46.13,362.14l4.5-1c2.73,1.4,4.57,3.18,4.5,6.5-1.09.71-1.25,3.16-2.5,3.5-4.92,1.35-8.39-1.42-7.5-6.5.07-.39,1.55-.9,1-2.5Z"/>
      <path class="cls-1" d="M139.13,164.14c-1.61-.55-2.11.93-2.5,1-1.64.29-3.76-.2-5.5,0,.55-1.6-.93-2.11-1-2.5-.89-5.08,2.57-7.83,7.5-6.5,2.3.62,1.33,6,1.5,8Z"/>
      <path class="cls-1" d="M152.13,119.14c.55-1.6-.93-2.11-1-2.5-.46-2.68-.49-8.77,3.5-7.5.37.12.58.8,1,1,.31.15.8-.13,1,0,1.49.95,1.3,2.49,2.5,3.5-1.69.92-.63,2.65-1,4-.54,1.94-4.17,1.53-6,1.5Z"/>
      <path class="cls-1" d="M355.63,496.14c-1.74-.48-1.23-2.76-1.5-3.5-2.23-6.05-4.83-12.71-7-19-1.23-3.57-4.59-11.75-4-15,.07-.38.92-.61,1-1,.86-4.2-.47-2.92-1.5-3.5-.43-.24-3.43-3.26-3.5-3.5-2.67-9.05-6.71-17.6-9-26-.2-.74.21-2.29,0-2.5-.37-.37-8.61.13-10.5,0-14.37-1.01-31.62-1.75-46-2-15.29-.26-33.77,1.44-48-1-.66-.11-.71-1.93-2,0h-28.5c.54,1.64-.84,1.98-1,2.5-7.04,23.67-13.43,47.92-22,71-.36.98.42,2.51-1.5,3.5h-77c-3.14.04-2.93-5.09-2.5-7.5.26-1.48,2.42-4.45,3-6,25.08-67.16,49.81-134.89,76-202,1.61-4.14,4.43-7.55,6-11,1.18-2.59,1.17-5.06,2-8,2.49-8.78,6.69-17.27,10-26,5.21-13.77,9.1-26.92,15-40,2.45-5.43,4.09-9.51,6-15,5.28-15.22,10.71-29.43,16-44,.21-.59,1.53-.85,1-2.5h34.5l3,2h2l3-2h27.5c-.53,1.65.79,1.91,1,2.5,16.54,45.75,34.99,92.01,52,138,1.09,2.94,3.79,6.47,3,10-.09.4-1.36.68-1,2,.27.98,4.71,4,5,5,2.68,9.32,6.64,19.22,10,28,8.57,22.42,19.57,45.33,26,68,2.38,8.39,6.68,17.5,10,26,9.67,24.78,18.65,49.08,29,74-.05,2.84,2.21,5.36,2,8.5h-77.5ZM273.63,156.14c-.41.12-.96,1.16-1.5,1.5,1.59,2.13,3.41,2.13,5,0-.92-1.19-1.94-1.95-3.5-1.5ZM287.63,166.14c-2.51.69-1.23,4.62,1,4,2.51-.69,1.23-4.62-1-4ZM258.13,170.14c-3.89-.59-4.37.64-6,3.5l1,3.5c4.57.4,5.54-3.17,5-7ZM307.13,184.14c.29-.3-.54-2.98,1-3.5-.66-2.84-2.01-5.45-5.5-4.5-3.23.88-.86,9.82,2,9,.51-1.28,2.41-.9,2.5-1ZM262.13,192.14c-3.32-.65-1.52,1.71-2,3.5-2.49,9.33-7.02,18.08-9,28-3.32,16.61-9.84,34.5-15,51-.97,3.11-3.78,8-4,9-.89,4.13-.82,7.42-2,12-4.09,15.87-9.02,31.14-13,47-.14.55-1.76,1.68-1,3.5h45.5c1.31,1.55,4.69,1.55,6,0h41.5l-47-154ZM250.13,198.14c1.27-5.35-5.86-4.62-5-1.5.46,1.68,3.39,1.65,5,1.5ZM220.13,203.14c.37-2.4-.48-4.24-3-4-.37,2.4.48,4.24,3,4ZM313.63,200.14c-.65,0-.65,1,0,1s.65-1,0-1ZM282.13,211.14l2.5,1c2.13-1.59,2.13-3.41,0-5l-2.5,1v3ZM223.13,211.14c-2.52-.24-3.37,1.6-3,4h3v-4ZM318.13,230.14c.57-.57-.26-3.66-1.5-4-1.12-.31-6.56-.2-8,0-2.8.38-3.04,3.09-2.5,5.5.08.36.8.57,1,1,1.32,2.89,4.19,4.59,4,8,1.48.93.65,3.96,2.5,4.5.68.2,2.19.34,2.5-.5.77-2.07,1.34-3.69,1-6-2.31-3.12-4.97-6.01-.5-8.5.47-.26,1.31.19,1.5,0ZM227.13,228.14c-.82,4.06,1.49,6.1,5.5,5,1.4-.38,3.67-5.28,1-6-2.33-.63-4.29.67-6.5,1ZM200.13,239.14l1-4.5c-1.67-3-2.22-4.07-6-3.5.78,1.75-1.01,3.32-1,3.5.02.35.93.62,1,1,.17.96-.23,3.25,0,3.5.09.1,1.99-.28,2.5,1,.52-1.28,2.4-.9,2.5-1ZM224.13,238.14c-1.6-1.6-5.6,2.4-4,4,1.6,1.6,5.6-2.4,4-4ZM209.13,264.14c-.2-2.76.29-5.79,0-8.5-.04-.36-.94-.62-1-1-.41-2.76,1.05-5.13-2-7-2.58-1.58-4.39.04-6,2-1.02,2.24,2.75,5.09,3,6,.36,1.32-.31,3.55,0,5,.07.32,2.04,3.37,2.5,3.5.93.25,2.41-.16,3.5,0ZM296.63,247.14c-2.07.62-3.06,4.46-2.5,6.5.34,1.25,2.79,1.41,3.5,2.5.71-1.09,3.16-1.25,3.5-2.5.71-2.6-1.01-7.54-4.5-6.5ZM235.13,253.14c1.47-.07,3.38,1.74,4-.5,1.35-4.88-4.25-5.76-5-3-.35,1.27,1.51,1.86,1,3.5ZM319.13,261.14c-.15,1.63-.2,4.51,1.5,5,.63.18,1.41-.19,2,0,.41.13.63.93,1,1,1.16.21,3.78.17,5,0,5.07-.69,1.81-8.16-2-7-.41.13-.63.93-1,1-1.92.34-4.46-.24-6.5,0ZM302.13,267.14c.32-1.5-.44-2.06-1.5-3-1.06.94-1.82,1.5-1.5,3h3ZM310.13,277.14l-2-2v2h2ZM326.13,285.14c.02-1.69.47-5.46-1.5-6-4.42-1.2-5,2.44-4.5,6,1.64-.51,2.23,1.34,3.5,1,.49-.13.87-1.54,2.5-1ZM220.13,307.14c.43-2.93-.26-4.23-2.5-6l-1.5,6h4ZM168.13,304.14v-2h-1v2h1ZM196.13,318.14c.32-1.5-.44-2.06-1.5-3-1.06.94-1.82,1.5-1.5,3h3ZM358.13,320.14c-4.58-.6-3.07,1.18-2,4.5.13.41.92.62,1,1,.57,2.58-.75,5.09-1.5,7.5l.5,3c3.38.96,3.81-1.07,5.5-2,.48-.26,1.31.19,1.5,0s-.26-1.03,0-1.5c.38-.69,1.86-1.5,2-2,1.41-5.13-4.32-4.38-6-7-.13-.21.15-.71,0-1-.39-.74-1.48-.86-1-2.5ZM344.13,339.14c6.4.35,5.14-7.43-1-6l1,6ZM166.13,342.14c.29-1.9-1.1-3.29-3-3-.29,1.9,1.1,3.29,3,3ZM316.63,342.14c-2.54.77-2.34,8.25,2,7,1.08-.31,1.86-2.31,1.5-3.5-1.08-.86-1.54-4.1-3.5-3.5ZM357.63,346.14c-.65,0-.65,1,0,1s.65-1,0-1ZM292.13,351.14c-2.31-.48-5.09-1.66-7.5-1-.44.12-1.33,1.52-2,2-.06.05-.6-.07-1.5.5-1.37.87-1.03,2.12-1,3.5l7.5-1c1.59-1.62,4.82-.45,4.5-4ZM274.13,351.14h-3v3c1.9.29,3.29-1.1,3-3ZM344.13,357.14v-2h-1v2h1ZM213.13,367.14c.83.71,7.36-1.15,8.5,1h2c1.17-1.31,3.64-1.15,3.5-3.5-1.34-2.49-2.55-3.98-5.5-4.5-1.51.59-2.73,2.29-4,3-.77.43-3.36.86-3.5,1-.11.11-.15,2.15-1,3ZM210.13,361.14c-.57-.57-3.66.26-4,1.5l1.5,2.5h1c1.24-.34,2.07-3.43,1.5-4ZM162.63,363.14c-2.01,1.57-2.01,2.43,0,4,2.01-1.57,2.01-2.43,0-4ZM308.63,363.14c-2.66.76-1.31,4.95,2,4,2.66-.76,1.31-4.95-2-4ZM153.13,365.14h-4.5c-3.36,2.16-.99,6.05,3,5,1.72-.45,1.64-3.54,1.5-5ZM366.13,369.14l-1.5-5c-2.14-.61-4.94,4.77-3,5h4.5ZM245.13,366.14h-2v1h2v-1ZM380.13,370.14c-4.24-.53-5.53.76-5,5h4l1-5ZM296.13,374.14l2-1.5-1.5-1.5h-.5v3ZM173.13,372.14c-1.75-1.75-5.35,2.21-4,5,2.18.74,5.22-3.78,4-5ZM266.13,378.14c-.48-1.6,1.18-1.93.5-3-1.31-2.07-4.59-3.08-5.5-.5-.67,1.91,4.57,3.99,5,3.5ZM287.63,373.14c-1.44.41-1.87,3.21-1.5,4.5.2.72,2.88,2.51,3.5,3.5,4.6-2.26,2.05-9.16-2-8ZM172.63,383.14c-.78.23-2.72,3.77-2.5,4.5.78.49,1.93,2.34,2.5,2.5.66.19,1.5-.23,2,0,2.33,1.08,4.41,4.02,5.5-.5-1.33-2.01-4.62-7.34-7.5-6.5ZM220.13,389.14c.03-1.39.37-2.61-1-3.5-1.58-1.02-5.22-2.7-6,0-.89,3.08,2.06,3.39,4,4l3-.5ZM227.63,385.14c-2.63.76-2.03,7.2,2,6,.55-.16,2.79-2.54,2.5-3.5-.33-1.09-2.93-2.95-4.5-2.5ZM327.13,387.14h-3v3h3v-3ZM333.63,389.14c-.37.11-.57.8-1,1-.31.14-.78-.13-1,0-2.47,1.47-2.87,3.77-2.5,6.5.55,4.04,5.17,2.93,7,0l2-5c-1.35-1.33-2.43-3.13-4.5-2.5ZM189.13,390.14c-7.02-.9-6.71,6.01,0,5-.55-1.51,1-2.29,1-2.5s-1.55-.99-1-2.5ZM210.13,392.14h-3v4c2.2.87,3.96-3.04,3-4ZM178.13,395.14c-1.51.55-2.29-1-2.5-1s-.99,1.55-2.5,1c0,1.72-.49,5.42,1.5,6,1.89.55,2.75-1.28,4.5-1l-1-5ZM137.13,396.14h-3v3h3v-3ZM163.13,404.14l1-2.5-2.5-1.5c-1.54,1.1-1.73,2.14-1.5,4h3ZM305.63,401.14c-2.01,1.57-2.01,2.43,0,4,2.01-1.57,2.01-2.43,0-4ZM214.13,405.14l-4,1c-.32,1.5.44,2.06,1.5,3h1c1.54-1.1,1.73-2.14,1.5-4ZM196.13,406.14h-5l-.5,2,.5,3c3.07.56,5.57-2.03,5-5ZM290.13,409.14v-2h-1v2h1ZM366.13,416.14c1.46.09,9.06.68,8-2.5-1.28-3.83-9.88-3.9-8,2.5ZM245.13,412.14h-3v2h3v-2ZM165.13,424.14c.84.82,3.99-1.89,4.5-2,1.8-.4,5.59.5,6.5-2.5.39-1.28-1.43-5.19-2.5-5.5-3-.86-4.56,3.59-6,4-.9.26-3.01-.2-3.5,1.5-.54,1.87,1.24,2.68,1,4.5ZM165.13,435.14c.09.1,1.99-.28,2.5,1l2.5-2.5c-.92-1.34-3.67-6.03-5.5-5.5-1.09.32-1.86,2.31-1.5,3.5.16.52,1.61,1.31,2,2,.26.47-.19,1.3,0,1.5ZM139.13,440.14c-1.86-.23-2.9-.04-4,1.5,1.1,1.54,2.14,1.73,4,1.5v-3ZM380.63,440.14c-.41.11-.96,1.16-1.5,1.5,1.57,2.01,2.43,2.01,4,0-.8-.76-1.33-1.82-2.5-1.5ZM403.13,443.14c-.05,3.6,3.48,4.14,4,.5l-1.5-1.5-2.5,1ZM347.13,449.14c3.01.68,3.34-3,1.5-3-.62,0-2.08,2.42-1.5,3ZM398.63,446.14c-.65,0-.65,1,0,1s.65-1,0-1ZM366.63,447.14c-1.89.47-.93,2.35-.5,3.5s2.32,2.3,0,4l2.5,3.5c2.85-.93,5.6-2.2,7.5-4.5-1.33-1.67-7.89-6.9-9.5-6.5ZM155.63,454.14c-2.07.55-2.07,5.43,0,6,5.49,1.51,9.13-2.06,3.5-5.5-.98-.6-2.49-.77-3.5-.5ZM115.63,458.14c-2.27.76-3.89,5.29-1,7,1.06-1.03,4.02-2.06,4.5-3.5.7-2.11-1.4-4.2-3.5-3.5ZM351.13,464.14l1-2.5c-2.27-3.14-4.74,1.2-1,2.5ZM173.13,466.14c-1.53.55-2.27-.99-2.5-1-.18,0-1.77,1.78-3.5,1,.31,1.6-.86,1.94-1,3.5-.36,4.08,2.35,3.96,5,2,2.14-1.58,2.25-2.89,2-5.5ZM156.13,468.14l-4.5-1-2.5,2.5,1,3.5h8c.57-1.97-1.38-2.38-2-3.5-.26-.47.19-1.31,0-1.5ZM380.63,467.14c-2.08.55-.73,2.31-.5,3.5.94,1.2,1.9,1.92,3.5,1.5,2.08-.55.73-2.31.5-3.5-.94-1.2-1.9-1.92-3.5-1.5ZM107.13,470.14c-3.06-1.09-7.02,3.75-3.5,5,3.12,1.11,4.06-2.82,3.5-5ZM364.63,471.14c-2.66.76-1.31,4.95,2,4,2.66-.76,1.31-4.95-2-4ZM406.13,476.14c-.76-2.55-5.86-6.09-7-2.5-.94,2.98,5.54,2.69,7,2.5ZM165.13,482.14h-3c-.29,1.9,1.1,3.29,3,3v-3ZM394.13,489.14c.37-2.4-.48-4.24-3-4v4h3ZM420.13,487.14h-2v1h2v-1ZM378.13,489.14c-3.5-.22-6.56-.51-6,4,3.5.22,6.56.51,6-4Z"/>
    </g>
  </g>
</svg>